<?xml version="1.0"?>
<svg xmlns="http://www.w3.org/2000/svg"
xmlns:xlink="http://www.w3.org/1999/xlink" xmlns:cml="http://www.xml-cml.org/schema" width="207.963" height="224.591" x="0" y="0" font-family="sans-serif" stroke="rgb(0,0,0)" stroke-width="1"  stroke-linecap="round">
<rect x="0%" y="0%" width="100%" height="100%" stroke-width="0" fill="rgb(255,255,255)"  />
<line x1="62.4" y1="61.8" x2="65.2" y2="73.9" stroke="rgb(0,0,0)"  stroke-width="1.0"/>
<line x1="56.6" y1="63.2" x2="59.3" y2="75.3" stroke="rgb(0,0,0)"  stroke-width="1.0"/>
<line x1="47.1" y1="171.5" x2="52.0" y2="160.0" stroke="rgb(0,0,0)"  stroke-width="1.0"/>
<line x1="52.6" y1="173.8" x2="57.5" y2="162.3" stroke="rgb(0,0,0)"  stroke-width="1.0"/>
<polygon points="98.722136 89.769508 92.848125 77.427148 100.761588 76.253648 " stroke-width="1.000000" fill="rgb(0,0,0)"  stroke="rgb(0,0,0)" />
<polygon points="102.934677 151.845395 112.362389 161.756547 105.206972 165.334256 " stroke-width="1.000000" fill="rgb(0,0,0)"  stroke="rgb(0,0,0)" />
<polygon points="132.799937 65.187790 131.694489 51.549461 139.508954 53.262392 " stroke-width="1.000000" fill="rgb(0,0,0)"  stroke="rgb(0,0,0)" />
<line x1="133.9" y1="129.3" x2="132.5" y2="130.0" stroke="rgb(0,0,0)"  stroke-width="1.0"/>
<line x1="135.4" y1="130.9" x2="132.8" y2="132.1" stroke="rgb(0,0,0)"  stroke-width="1.0"/>
<line x1="136.8" y1="132.5" x2="133.1" y2="134.3" stroke="rgb(0,0,0)"  stroke-width="1.0"/>
<line x1="138.3" y1="134.2" x2="133.4" y2="136.5" stroke="rgb(0,0,0)"  stroke-width="1.0"/>
<line x1="139.8" y1="135.8" x2="133.7" y2="138.6" stroke="rgb(0,0,0)"  stroke-width="1.0"/>
<line x1="141.2" y1="137.4" x2="134.0" y2="140.8" stroke="rgb(0,0,0)"  stroke-width="1.0"/>
<line x1="109.2" y1="63.1" x2="119.4" y2="70.2" stroke="rgb(0,0,0)"  stroke-width="1.0"/>
<line x1="120.1" y1="85.9" x2="110.5" y2="94.0" stroke="rgb(0,0,0)"  stroke-width="1.0"/>
<line x1="99.5" y1="115.3" x2="98.4" y2="127.5" stroke="rgb(0,0,0)"  stroke-width="1.0"/>
<line x1="107.2" y1="132.1" x2="116.8" y2="124.1" stroke="rgb(0,0,0)"  stroke-width="1.0"/>
<line x1="121.2" y1="104.0" x2="104.1" y2="67.4" stroke="rgb(0,0,0)"  stroke-width="1.0"/>
<line x1="88.6" y1="97.2" x2="77.1" y2="92.4" stroke="rgb(0,0,0)"  stroke-width="1.0"/>
<line x1="56.6" y1="97.1" x2="48.5" y2="106.4" stroke="rgb(0,0,0)"  stroke-width="1.0"/>
<line x1="46.7" y1="127.3" x2="53.1" y2="138.0" stroke="rgb(0,0,0)"  stroke-width="1.0"/>
<line x1="72.5" y1="146.2" x2="84.6" y2="143.4" stroke="rgb(0,0,0)"  stroke-width="1.0"/>
<line x1="142.9" y1="75.3" x2="155.2" y2="73.1" stroke="rgb(0,0,0)"  stroke-width="1.0"/>
<line x1="166.9" y1="83.4" x2="165.7" y2="96.5" stroke="rgb(0,0,0)"  stroke-width="1.0"/>
<line x1="159.5" y1="85.0" x2="158.7" y2="93.7" stroke="rgb(0,0,0)"  stroke-width="1.0"/>
<line x1="151.8" y1="111.4" x2="139.6" y2="113.5" stroke="rgb(0,0,0)"  stroke-width="1.0"/>
<text x="92.558979" y="63.614926" fill="rgb(255,12,12)"  stroke="rgb(255,12,12)" stroke-width="1" font-size="16" >O</text>
<text x="34.000000" y="124.197951" fill="rgb(255,12,12)"  stroke="rgb(255,12,12)" stroke-width="1" font-size="16" >O</text>
<text x="50.628452" y="57.831509" fill="rgb(255,12,12)"  stroke="rgb(255,12,12)" stroke-width="1" font-size="16" >O</text>
<text x="38.772898" y="192.591446" fill="rgb(255,12,12)"  stroke="rgb(255,12,12)" stroke-width="1" font-size="16" >O</text>
<text x="94.583025" y="110.318351" fill="rgb(102,102,102)"  stroke="rgb(102,102,102)" stroke-width="1" font-size="16" >C</text>
<text x="91.256733" y="148.489506" fill="rgb(102,102,102)"  stroke="rgb(102,102,102)" stroke-width="1" font-size="16" >C</text>
<text x="124.080558" y="85.593716" fill="rgb(102,102,102)"  stroke="rgb(102,102,102)" stroke-width="1" font-size="16" >C</text>
<text x="120.754266" y="123.764871" fill="rgb(102,102,102)"  stroke="rgb(102,102,102)" stroke-width="1" font-size="16" >C</text>
<text x="161.962994" y="78.796772" fill="rgb(102,102,102)"  stroke="rgb(102,102,102)" stroke-width="1" font-size="16" >C</text>
<text x="161.962994" y="62.796772" fill="rgb(102,102,102)"  stroke="rgb(102,102,102)" stroke-width="1" font-size="16" >H</text>
<text x="158.636702" y="117.115295" fill="rgb(102,102,102)"  stroke="rgb(102,102,102)" stroke-width="1" font-size="16" >CH</text>
<text x="59.157715" y="95.280865" fill="rgb(102,102,102)"  stroke="rgb(102,102,102)" stroke-width="1" font-size="16" >C</text>
<text x="53.807377" y="157.166136" fill="rgb(102,102,102)"  stroke="rgb(102,102,102)" stroke-width="1" font-size="16" >C</text>
<text x="88.943968" y="72.291555" fill="rgb(191,191,191)"  stroke="rgb(191,191,191)" stroke-width="1" font-size="16" >H</text>
<text x="108.462625" y="182.901290" fill="rgb(191,191,191)"  stroke="rgb(191,191,191)" stroke-width="1" font-size="16" >H</text>
<text x="132.321101" y="48.000000" fill="rgb(191,191,191)"  stroke="rgb(191,191,191)" stroke-width="1" font-size="16" >H</text>
<text x="136.946631" y="158.612742" fill="rgb(191,191,191)"  stroke="rgb(191,191,191)" stroke-width="1" font-size="16" >H</text>
<text font-size="18.000000" fill ="black" font-family="sans-serif"
x="10.000000" y="20.000000" ></text>
<title> - OBDepict</title>
</svg>
