<?xml version="1.0"?>
<svg xmlns="http://www.w3.org/2000/svg"
xmlns:xlink="http://www.w3.org/1999/xlink" xmlns:cml="http://www.xml-cml.org/schema" width="499.117" height="536.928" x="0" y="0" font-family="sans-serif" stroke="rgb(0,0,0)" stroke-width="1"  stroke-linecap="round">
<rect x="0%" y="0%" width="100%" height="100%" stroke-width="0" fill="rgb(255,255,255)"  />
<line x1="330.6" y1="141.6" x2="324.7" y2="113.9" stroke="rgb(0,0,0)"  stroke-width="1.0"/>
<line x1="336.4" y1="140.4" x2="330.5" y2="112.7" stroke="rgb(0,0,0)"  stroke-width="1.0"/>
<line x1="277.9" y1="182.9" x2="253.3" y2="168.8" stroke="rgb(0,0,0)"  stroke-width="1.0"/>
<line x1="280.9" y1="177.7" x2="256.3" y2="163.6" stroke="rgb(0,0,0)"  stroke-width="1.0"/>
<line x1="449.5" y1="51.8" x2="428.4" y2="70.7" stroke="rgb(0,0,0)"  stroke-width="1.0"/>
<line x1="447.4" y1="91.8" x2="428.4" y2="70.7" stroke="rgb(0,0,0)"  stroke-width="1.0"/>
<line x1="160.2" y1="232.1" x2="184.7" y2="246.3" stroke="rgb(0,0,0)"  stroke-width="1.0"/>
<line x1="157.2" y1="237.3" x2="181.7" y2="251.4" stroke="rgb(0,0,0)"  stroke-width="1.0"/>
<line x1="170.5" y1="369.0" x2="145.9" y2="354.8" stroke="rgb(0,0,0)"  stroke-width="1.0"/>
<line x1="173.5" y1="363.8" x2="148.9" y2="349.6" stroke="rgb(0,0,0)"  stroke-width="1.0"/>
<line x1="75.8" y1="463.3" x2="75.8" y2="434.9" stroke="rgb(0,0,0)"  stroke-width="1.0"/>
<line x1="64.5" y1="482.8" x2="51.3" y2="490.4" stroke="rgb(0,0,0)"  stroke-width="1.0"/>
<line x1="52.8" y1="418.1" x2="77.3" y2="432.3" stroke="rgb(0,0,0)"  stroke-width="1.0"/>
<line x1="49.8" y1="423.3" x2="74.3" y2="437.5" stroke="rgb(0,0,0)"  stroke-width="1.0"/>
<line x1="254.8" y1="137.8" x2="254.8" y2="166.2" stroke="rgb(0,0,0)"  stroke-width="1.0"/>
<line x1="348.7" y1="94.3" x2="327.6" y2="113.3" stroke="rgb(0,0,0)"  stroke-width="1.0"/>
<line x1="392.1" y1="97.4" x2="392.6" y2="95.9" stroke="rgb(0,0,0)"  stroke-width="1.0"/>
<line x1="387.7" y1="96.7" x2="388.6" y2="93.9" stroke="rgb(0,0,0)"  stroke-width="1.0"/>
<line x1="383.3" y1="95.9" x2="384.6" y2="92.0" stroke="rgb(0,0,0)"  stroke-width="1.0"/>
<line x1="378.9" y1="95.2" x2="380.6" y2="90.0" stroke="rgb(0,0,0)"  stroke-width="1.0"/>
<line x1="374.5" y1="94.4" x2="376.6" y2="88.0" stroke="rgb(0,0,0)"  stroke-width="1.0"/>
<line x1="370.1" y1="93.6" x2="372.6" y2="86.0" stroke="rgb(0,0,0)"  stroke-width="1.0"/>
<line x1="355.6" y1="72.9" x2="355.7" y2="73.3" stroke="rgb(0,0,0)"  stroke-width="1.0"/>
<polygon points="219.034328 186.829566 223.034328 214.531698 215.034328 214.531698 " stroke-width="1.000000" fill="rgb(0,0,0)"  stroke="rgb(0,0,0)" />
<line x1="207.8" y1="234.7" x2="183.2" y2="248.8" stroke="rgb(0,0,0)"  stroke-width="1.0"/>
<line x1="230.3" y1="234.7" x2="230.0" y2="234.5" stroke="rgb(0,0,0)"  stroke-width="1.0"/>
<line x1="178.8" y1="293.7" x2="178.0" y2="292.3" stroke="rgb(0,0,0)"  stroke-width="1.0"/>
<line x1="175.3" y1="296.4" x2="173.9" y2="293.9" stroke="rgb(0,0,0)"  stroke-width="1.0"/>
<line x1="171.8" y1="299.2" x2="169.7" y2="295.6" stroke="rgb(0,0,0)"  stroke-width="1.0"/>
<line x1="168.3" y1="302.0" x2="165.6" y2="297.3" stroke="rgb(0,0,0)"  stroke-width="1.0"/>
<line x1="164.8" y1="304.7" x2="161.4" y2="298.9" stroke="rgb(0,0,0)"  stroke-width="1.0"/>
<line x1="161.2" y1="307.5" x2="157.2" y2="300.6" stroke="rgb(0,0,0)"  stroke-width="1.0"/>
<line x1="147.4" y1="323.9" x2="147.4" y2="352.2" stroke="rgb(0,0,0)"  stroke-width="1.0"/>
<line x1="136.2" y1="304.4" x2="136.5" y2="304.6" stroke="rgb(0,0,0)"  stroke-width="1.0"/>
<polygon points="288.293791 100.506417 328.850353 109.478250 326.378207 117.086699 " stroke-width="1.000000" fill="rgb(0,0,0)"  stroke="rgb(0,0,0)" />
<line x1="254.8" y1="166.2" x2="219.0" y2="186.8" stroke="rgb(0,0,0)"  stroke-width="1.0"/>
<line x1="219.0" y1="186.8" x2="194.5" y2="172.7" stroke="rgb(0,0,0)"  stroke-width="1.0"/>
<line x1="397.7" y1="98.4" x2="428.4" y2="70.7" stroke="rgb(0,0,0)"  stroke-width="1.0"/>
<line x1="397.7" y1="98.4" x2="403.6" y2="126.1" stroke="rgb(0,0,0)"  stroke-width="1.0"/>
<line x1="428.4" y1="70.7" x2="409.4" y2="49.7" stroke="rgb(0,0,0)"  stroke-width="1.0"/>
<line x1="183.2" y1="248.8" x2="183.2" y2="290.2" stroke="rgb(0,0,0)"  stroke-width="1.0"/>
<line x1="183.2" y1="290.2" x2="207.8" y2="304.4" stroke="rgb(0,0,0)"  stroke-width="1.0"/>
<line x1="147.4" y1="352.2" x2="111.6" y2="372.9" stroke="rgb(0,0,0)"  stroke-width="1.0"/>
<line x1="111.6" y1="372.9" x2="111.6" y2="414.2" stroke="rgb(0,0,0)"  stroke-width="1.0"/>
<line x1="111.6" y1="414.2" x2="75.8" y2="434.9" stroke="rgb(0,0,0)"  stroke-width="1.0"/>
<line x1="265.4" y1="117.2" x2="288.3" y2="100.5" stroke="rgb(0,0,0)"  stroke-width="1.0"/>
<line x1="288.3" y1="100.5" x2="275.5" y2="61.2" stroke="rgb(0,0,0)"  stroke-width="1.0"/>
<line x1="275.5" y1="61.2" x2="234.2" y2="61.2" stroke="rgb(0,0,0)"  stroke-width="1.0"/>
<line x1="234.2" y1="61.2" x2="221.4" y2="100.5" stroke="rgb(0,0,0)"  stroke-width="1.0"/>
<line x1="221.4" y1="100.5" x2="244.3" y2="117.2" stroke="rgb(0,0,0)"  stroke-width="1.0"/>
<text x="330.210210" y="161.727587" fill="rgb(255,12,12)"  stroke="rgb(255,12,12)" stroke-width="1" font-size="16" >O</text>
<text x="284.650540" y="194.829566" fill="rgb(255,12,12)"  stroke="rgb(255,12,12)" stroke-width="1" font-size="16" >O</text>
<text x="453.116711" y="51.059638" fill="rgb(255,12,12)"  stroke="rgb(255,12,12)" stroke-width="1" font-size="16" >OH</text>
<text x="450.057073" y="109.453251" fill="rgb(255,12,12)"  stroke="rgb(255,12,12)" stroke-width="1" font-size="16" >OH</text>
<text x="141.422251" y="236.176031" fill="rgb(255,12,12)"  stroke="rgb(255,12,12)" stroke-width="1" font-size="16" >O</text>
<text x="177.228289" y="380.888659" fill="rgb(255,12,12)"  stroke="rgb(255,12,12)" stroke-width="1" font-size="16" >O</text>
<text x="69.806039" y="484.254821" fill="rgb(255,12,12)"  stroke="rgb(255,12,12)" stroke-width="1" font-size="16" >O</text>
<text x="34.000000" y="422.235124" fill="rgb(255,12,12)"  stroke="rgb(255,12,12)" stroke-width="1" font-size="16" >O</text>
<text x="248.844501" y="132.809869" fill="rgb(12,12,255)"  stroke="rgb(12,12,255)" stroke-width="1" font-size="16" >N</text>
<text x="352.342972" y="93.617555" fill="rgb(12,12,255)"  stroke="rgb(12,12,255)" stroke-width="1" font-size="16" >N</text>
<text x="213.034328" y="236.176031" fill="rgb(12,12,255)"  stroke="rgb(12,12,255)" stroke-width="1" font-size="16" >N</text>
<text x="141.422251" y="318.868961" fill="rgb(12,12,255)"  stroke="rgb(12,12,255)" stroke-width="1" font-size="16" >N</text>
<text x="157.228289" y="174.156334" fill="rgb(102,102,102)"  stroke="rgb(102,102,102)" stroke-width="1" font-size="16" >H</text>
<text x="169.228289" y="177.836334" fill="rgb(102,102,102)"  stroke="rgb(102,102,102)" stroke-width="1" font-size="13" >3</text>
<text x="175.728289" y="174.156334" fill="rgb(102,102,102)"  stroke="rgb(102,102,102)" stroke-width="1" font-size="16" >C</text>
<text x="402.259391" y="146.834590" fill="rgb(102,102,102)"  stroke="rgb(102,102,102)" stroke-width="1" font-size="16" >CH</text>
<text x="426.259391" y="150.514590" fill="rgb(102,102,102)"  stroke="rgb(102,102,102)" stroke-width="1" font-size="13" >3</text>
<text x="374.723099" y="48.000000" fill="rgb(102,102,102)"  stroke="rgb(102,102,102)" stroke-width="1" font-size="16" >H</text>
<text x="386.723099" y="51.680000" fill="rgb(102,102,102)"  stroke="rgb(102,102,102)" stroke-width="1" font-size="13" >3</text>
<text x="393.223099" y="48.000000" fill="rgb(102,102,102)"  stroke="rgb(102,102,102)" stroke-width="1" font-size="16" >C</text>
<text x="215.034328" y="318.868961" fill="rgb(102,102,102)"  stroke="rgb(102,102,102)" stroke-width="1" font-size="16" >CH</text>
<text x="239.034328" y="322.548961" fill="rgb(102,102,102)"  stroke="rgb(102,102,102)" stroke-width="1" font-size="13" >3</text>
<text x="14.000000" y="504.928054" fill="rgb(102,102,102)"  stroke="rgb(102,102,102)" stroke-width="1" font-size="16" >H</text>
<text x="26.000000" y="508.608054" fill="rgb(102,102,102)"  stroke="rgb(102,102,102)" stroke-width="1" font-size="13" >3</text>
<text x="32.500000" y="504.928054" fill="rgb(102,102,102)"  stroke="rgb(102,102,102)" stroke-width="1" font-size="16" >C</text>
<text x="347.013413" y="68.540924" fill="rgb(191,191,191)"  stroke="rgb(191,191,191)" stroke-width="1" font-size="16" >H</text>
<text x="235.237380" y="248.993435" fill="rgb(191,191,191)"  stroke="rgb(191,191,191)" stroke-width="1" font-size="16" >H</text>
<text x="119.219199" y="306.051557" fill="rgb(191,191,191)"  stroke="rgb(191,191,191)" stroke-width="1" font-size="16" >H</text>
<text font-size="18.000000" fill ="black" font-family="sans-serif"
x="10.000000" y="20.000000" ></text>
<title> - OBDepict</title>
</svg>
