<?xml version="1.0"?>
<svg xmlns="http://www.w3.org/2000/svg"
xmlns:xlink="http://www.w3.org/1999/xlink" xmlns:cml="http://www.xml-cml.org/schema" width="253.205" height="200" x="0" y="0" font-family="sans-serif" stroke="rgb(0,0,0)" stroke-width="1"  stroke-linecap="round">
<rect x="0%" y="0%" width="100%" height="100%" stroke-width="0" fill="rgb(255,255,255)"  />
<line x1="213.2" y1="53.0" x2="213.2" y2="67.0" stroke="rgb(0,0,0)"  stroke-width="1.0"/>
<line x1="201.9" y1="86.5" x2="189.8" y2="93.5" stroke="rgb(0,0,0)"  stroke-width="1.0"/>
<line x1="98.0" y1="93.5" x2="85.9" y2="86.5" stroke="rgb(0,0,0)"  stroke-width="1.0"/>
<line x1="71.6" y1="67.0" x2="71.6" y2="53.0" stroke="rgb(0,0,0)"  stroke-width="1.0"/>
<line x1="77.6" y1="67.0" x2="77.6" y2="53.0" stroke="rgb(0,0,0)"  stroke-width="1.0"/>
<line x1="63.4" y1="86.5" x2="51.3" y2="93.5" stroke="rgb(0,0,0)"  stroke-width="1.0"/>
<line x1="178.6" y1="113.2" x2="178.6" y2="126.8" stroke="rgb(0,0,0)"  stroke-width="1.0"/>
<line x1="171.4" y1="115.2" x2="171.4" y2="124.8" stroke="rgb(0,0,0)"  stroke-width="1.0"/>
<line x1="167.3" y1="146.5" x2="155.2" y2="153.5" stroke="rgb(0,0,0)"  stroke-width="1.0"/>
<line x1="132.5" y1="153.4" x2="120.7" y2="146.6" stroke="rgb(0,0,0)"  stroke-width="1.0"/>
<line x1="134.4" y1="146.2" x2="126.0" y2="141.4" stroke="rgb(0,0,0)"  stroke-width="1.0"/>
<line x1="109.3" y1="127.0" x2="109.3" y2="113.0" stroke="rgb(0,0,0)"  stroke-width="1.0"/>
<line x1="120.7" y1="93.4" x2="132.5" y2="86.6" stroke="rgb(0,0,0)"  stroke-width="1.0"/>
<line x1="126.0" y1="98.6" x2="134.4" y2="93.8" stroke="rgb(0,0,0)"  stroke-width="1.0"/>
<line x1="155.2" y1="86.5" x2="167.3" y2="93.5" stroke="rgb(0,0,0)"  stroke-width="1.0"/>
<text x="209.205081" y="48.000000" fill="rgb(0,0,0)"  stroke="rgb(0,0,0)" stroke-width="1" font-size="16" >CH</text>
<text x="233.205081" y="51.680000" fill="rgb(0,0,0)"  stroke="rgb(0,0,0)" stroke-width="1" font-size="13" >3</text>
<text x="209.205081" y="88.000000" fill="rgb(0,0,0)"  stroke="rgb(0,0,0)" stroke-width="1" font-size="16" >CH</text>
<text x="233.205081" y="91.680000" fill="rgb(0,0,0)"  stroke="rgb(0,0,0)" stroke-width="1" font-size="13" >2</text>
<text x="172.564065" y="108.000000" fill="rgb(0,0,0)"  stroke="rgb(0,0,0)" stroke-width="1" font-size="16" >C</text>
<text x="172.564065" y="148.000000" fill="rgb(0,0,0)"  stroke="rgb(0,0,0)" stroke-width="1" font-size="16" >CH</text>
<text x="137.923048" y="168.000000" fill="rgb(0,0,0)"  stroke="rgb(0,0,0)" stroke-width="1" font-size="16" >C</text>
<text x="137.923048" y="184.000000" fill="rgb(0,0,0)"  stroke="rgb(0,0,0)" stroke-width="1" font-size="16" >H</text>
<text x="91.282032" y="148.000000" fill="rgb(0,0,0)"  stroke="rgb(0,0,0)" stroke-width="1" font-size="16" >HC</text>
<text x="103.282032" y="108.000000" fill="rgb(0,0,0)"  stroke="rgb(0,0,0)" stroke-width="1" font-size="16" >C</text>
<text x="137.923048" y="88.000000" fill="rgb(0,0,0)"  stroke="rgb(0,0,0)" stroke-width="1" font-size="16" >C</text>
<text x="137.923048" y="72.000000" fill="rgb(0,0,0)"  stroke="rgb(0,0,0)" stroke-width="1" font-size="16" >H</text>
<text x="68.641016" y="88.000000" fill="rgb(0,0,0)"  stroke="rgb(0,0,0)" stroke-width="1" font-size="16" >C</text>
<text x="68.641016" y="48.000000" fill="rgb(0,0,0)"  stroke="rgb(0,0,0)" stroke-width="1" font-size="16" >O</text>
<text x="22.000000" y="108.000000" fill="rgb(0,0,0)"  stroke="rgb(0,0,0)" stroke-width="1" font-size="16" >Cl</text>
<text font-size="18.000000" fill ="black" font-family="sans-serif"
x="10.000000" y="20.000000" ></text>
<title> - OBDepict</title>
</svg>
