<?xml version="1.0"?>
<svg xmlns="http://www.w3.org/2000/svg"
xmlns:xlink="http://www.w3.org/1999/xlink" xmlns:cml="http://www.xml-cml.org/schema" width="799.726" height="490.467" x="0" y="0" font-family="sans-serif" stroke="rgb(0,0,0)" stroke-width="1"  stroke-linecap="round">
<rect x="0%" y="0%" width="100%" height="100%" stroke-width="0" fill="rgb(255,255,255)"  />
<line x1="744.2" y1="120.2" x2="723.9" y2="104.5" stroke="rgb(0,0,0)"  stroke-width="1.0"/>
<line x1="723.9" y1="104.5" x2="747.7" y2="94.8" stroke="rgb(0,0,0)"  stroke-width="1.0"/>
<polygon points="667.522217 77.170271 656.458997 53.380186 664.142488 51.152193 " stroke-width="1.000000" fill="rgb(0,0,0)"  stroke="rgb(0,0,0)" />
<line x1="667.5" y1="77.2" x2="642.6" y2="71.0" stroke="rgb(0,0,0)"  stroke-width="1.0"/>
<polygon points="662.250191 115.510942 687.332409 123.208041 683.846872 130.408806 " stroke-width="1.000000" fill="rgb(0,0,0)"  stroke="rgb(0,0,0)" />
<line x1="667.9" y1="152.0" x2="667.9" y2="153.6" stroke="rgb(0,0,0)"  stroke-width="1.0"/>
<line x1="671.9" y1="151.4" x2="671.9" y2="154.2" stroke="rgb(0,0,0)"  stroke-width="1.0"/>
<line x1="675.9" y1="150.8" x2="675.9" y2="154.9" stroke="rgb(0,0,0)"  stroke-width="1.0"/>
<line x1="679.9" y1="150.1" x2="679.9" y2="155.6" stroke="rgb(0,0,0)"  stroke-width="1.0"/>
<line x1="683.9" y1="149.5" x2="683.8" y2="156.2" stroke="rgb(0,0,0)"  stroke-width="1.0"/>
<line x1="687.9" y1="148.9" x2="687.8" y2="156.9" stroke="rgb(0,0,0)"  stroke-width="1.0"/>
<line x1="662.9" y1="152.7" x2="724.4" y2="153.2" stroke="rgb(0,0,0)"  stroke-width="1.0"/>
<polygon points="628.973764 172.028535 654.636222 168.204152 654.581448 176.203964 " stroke-width="1.000000" fill="rgb(0,0,0)"  stroke="rgb(0,0,0)" />
<polygon points="595.542586 153.418000 599.009722 191.384789 591.010511 191.272437 " stroke-width="1.000000" fill="rgb(0,0,0)"  stroke="rgb(0,0,0)" />
<line x1="559.7" y1="132.2" x2="572.7" y2="110.0" stroke="rgb(0,0,0)"  stroke-width="1.0"/>
<line x1="564.8" y1="135.2" x2="577.8" y2="113.1" stroke="rgb(0,0,0)"  stroke-width="1.0"/>
<line x1="523.4" y1="189.8" x2="524.3" y2="188.4" stroke="rgb(0,0,0)"  stroke-width="1.0"/>
<line x1="519.6" y1="188.3" x2="521.1" y2="185.8" stroke="rgb(0,0,0)"  stroke-width="1.0"/>
<line x1="515.8" y1="186.8" x2="517.9" y2="183.2" stroke="rgb(0,0,0)"  stroke-width="1.0"/>
<line x1="512.0" y1="185.3" x2="514.7" y2="180.6" stroke="rgb(0,0,0)"  stroke-width="1.0"/>
<line x1="508.1" y1="183.8" x2="511.5" y2="178.0" stroke="rgb(0,0,0)"  stroke-width="1.0"/>
<line x1="504.3" y1="182.3" x2="508.3" y2="175.4" stroke="rgb(0,0,0)"  stroke-width="1.0"/>
<polygon points="561.059873 210.621074 586.484053 206.795059 586.429279 214.794872 " stroke-width="1.000000" fill="rgb(0,0,0)"  stroke="rgb(0,0,0)" />
<line x1="496.2" y1="253.7" x2="494.6" y2="253.7" stroke="rgb(0,0,0)"  stroke-width="1.0"/>
<line x1="496.8" y1="257.9" x2="494.0" y2="257.9" stroke="rgb(0,0,0)"  stroke-width="1.0"/>
<line x1="497.5" y1="262.0" x2="493.3" y2="262.0" stroke="rgb(0,0,0)"  stroke-width="1.0"/>
<line x1="498.1" y1="266.2" x2="492.7" y2="266.2" stroke="rgb(0,0,0)"  stroke-width="1.0"/>
<line x1="498.8" y1="270.3" x2="492.0" y2="270.3" stroke="rgb(0,0,0)"  stroke-width="1.0"/>
<line x1="499.4" y1="274.5" x2="491.4" y2="274.5" stroke="rgb(0,0,0)"  stroke-width="1.0"/>
<polygon points="495.403802 210.621074 491.403802 158.761148 499.403802 158.761148 " stroke-width="1.000000" fill="rgb(0,0,0)"  stroke="rgb(0,0,0)" />
<polygon points="298.435588 248.527625 302.435588 300.387551 294.435588 300.387551 " stroke-width="1.000000" fill="rgb(0,0,0)"  stroke="rgb(0,0,0)" />
<line x1="297.6" y1="205.4" x2="299.2" y2="205.4" stroke="rgb(0,0,0)"  stroke-width="1.0"/>
<line x1="297.0" y1="201.3" x2="299.9" y2="201.3" stroke="rgb(0,0,0)"  stroke-width="1.0"/>
<line x1="296.4" y1="197.1" x2="300.5" y2="197.1" stroke="rgb(0,0,0)"  stroke-width="1.0"/>
<line x1="295.7" y1="193.0" x2="301.2" y2="193.0" stroke="rgb(0,0,0)"  stroke-width="1.0"/>
<line x1="295.1" y1="188.8" x2="301.8" y2="188.8" stroke="rgb(0,0,0)"  stroke-width="1.0"/>
<line x1="294.4" y1="184.7" x2="302.4" y2="184.7" stroke="rgb(0,0,0)"  stroke-width="1.0"/>
<polygon points="232.779517 248.527625 208.323511 239.026745 212.323511 232.098542 " stroke-width="1.000000" fill="rgb(0,0,0)"  stroke="rgb(0,0,0)" />
<line x1="270.5" y1="269.4" x2="269.7" y2="270.8" stroke="rgb(0,0,0)"  stroke-width="1.0"/>
<line x1="274.4" y1="270.9" x2="273.0" y2="273.4" stroke="rgb(0,0,0)"  stroke-width="1.0"/>
<line x1="278.3" y1="272.4" x2="276.2" y2="276.0" stroke="rgb(0,0,0)"  stroke-width="1.0"/>
<line x1="282.2" y1="273.9" x2="279.5" y2="278.7" stroke="rgb(0,0,0)"  stroke-width="1.0"/>
<line x1="286.2" y1="275.5" x2="282.8" y2="281.3" stroke="rgb(0,0,0)"  stroke-width="1.0"/>
<line x1="290.1" y1="277.0" x2="286.1" y2="283.9" stroke="rgb(0,0,0)"  stroke-width="1.0"/>
<line x1="228.3" y1="333.7" x2="226.9" y2="332.9" stroke="rgb(0,0,0)"  stroke-width="1.0"/>
<line x1="224.7" y1="341.2" x2="222.2" y2="339.8" stroke="rgb(0,0,0)"  stroke-width="1.0"/>
<line x1="221.1" y1="348.7" x2="217.5" y2="346.7" stroke="rgb(0,0,0)"  stroke-width="1.0"/>
<line x1="217.5" y1="356.2" x2="212.8" y2="353.5" stroke="rgb(0,0,0)"  stroke-width="1.0"/>
<line x1="213.9" y1="363.7" x2="208.1" y2="360.4" stroke="rgb(0,0,0)"  stroke-width="1.0"/>
<line x1="210.3" y1="371.3" x2="203.4" y2="367.3" stroke="rgb(0,0,0)"  stroke-width="1.0"/>
<line x1="232.8" y1="324.3" x2="245.6" y2="346.6" stroke="rgb(0,0,0)"  stroke-width="1.0"/>
<polygon points="199.951482 305.387450 214.152330 327.448704 206.843966 330.702597 " stroke-width="1.000000" fill="rgb(0,0,0)"  stroke="rgb(0,0,0)" />
<line x1="137.9" y1="282.7" x2="139.2" y2="281.8" stroke="rgb(0,0,0)"  stroke-width="1.0"/>
<line x1="135.0" y1="279.7" x2="137.3" y2="278.0" stroke="rgb(0,0,0)"  stroke-width="1.0"/>
<line x1="132.0" y1="276.7" x2="135.4" y2="274.3" stroke="rgb(0,0,0)"  stroke-width="1.0"/>
<line x1="129.1" y1="273.8" x2="133.5" y2="270.6" stroke="rgb(0,0,0)"  stroke-width="1.0"/>
<line x1="126.1" y1="270.8" x2="131.5" y2="266.8" stroke="rgb(0,0,0)"  stroke-width="1.0"/>
<line x1="123.1" y1="267.8" x2="129.6" y2="263.1" stroke="rgb(0,0,0)"  stroke-width="1.0"/>
<line x1="167.6" y1="320.8" x2="166.3" y2="321.8" stroke="rgb(0,0,0)"  stroke-width="1.0"/>
<line x1="170.6" y1="323.8" x2="168.2" y2="325.5" stroke="rgb(0,0,0)"  stroke-width="1.0"/>
<line x1="173.5" y1="326.8" x2="170.1" y2="329.2" stroke="rgb(0,0,0)"  stroke-width="1.0"/>
<line x1="176.5" y1="329.8" x2="172.1" y2="333.0" stroke="rgb(0,0,0)"  stroke-width="1.0"/>
<line x1="179.4" y1="332.7" x2="174.0" y2="336.7" stroke="rgb(0,0,0)"  stroke-width="1.0"/>
<line x1="182.4" y1="335.7" x2="175.9" y2="340.4" stroke="rgb(0,0,0)"  stroke-width="1.0"/>
<polygon points="141.619299 347.768262 140.140747 373.963240 132.315566 372.299946 " stroke-width="1.000000" fill="rgb(0,0,0)"  stroke="rgb(0,0,0)" />
<line x1="141.6" y1="347.8" x2="160.7" y2="365.0" stroke="rgb(0,0,0)"  stroke-width="1.0"/>
<polygon points="105.568027 336.054494 101.568027 310.657105 109.568027 310.657105 " stroke-width="1.000000" fill="rgb(0,0,0)"  stroke="rgb(0,0,0)" />
<line x1="69.1" y1="318.9" x2="70.6" y2="319.2" stroke="rgb(0,0,0)"  stroke-width="1.0"/>
<line x1="69.3" y1="314.7" x2="72.1" y2="315.3" stroke="rgb(0,0,0)"  stroke-width="1.0"/>
<line x1="69.5" y1="310.5" x2="73.6" y2="311.3" stroke="rgb(0,0,0)"  stroke-width="1.0"/>
<line x1="69.8" y1="306.3" x2="75.1" y2="307.4" stroke="rgb(0,0,0)"  stroke-width="1.0"/>
<line x1="70.0" y1="302.1" x2="76.6" y2="303.5" stroke="rgb(0,0,0)"  stroke-width="1.0"/>
<line x1="70.2" y1="297.9" x2="78.1" y2="299.6" stroke="rgb(0,0,0)"  stroke-width="1.0"/>
<line x1="68.8" y1="324.1" x2="49.7" y2="306.9" stroke="rgb(0,0,0)"  stroke-width="1.0"/>
<polygon points="68.760773 386.715333 52.167578 407.038444 46.814533 401.093285 " stroke-width="1.000000" fill="rgb(0,0,0)"  stroke="rgb(0,0,0)" />
<line x1="68.8" y1="386.7" x2="76.8" y2="424.6" stroke="rgb(0,0,0)"  stroke-width="1.0"/>
<line x1="76.8" y1="424.6" x2="57.7" y2="441.8" stroke="rgb(0,0,0)"  stroke-width="1.0"/>
<line x1="723.9" y1="104.5" x2="705.6" y2="70.3" stroke="rgb(0,0,0)"  stroke-width="1.0"/>
<line x1="705.6" y1="70.3" x2="667.5" y2="77.2" stroke="rgb(0,0,0)"  stroke-width="1.0"/>
<line x1="667.5" y1="77.2" x2="662.3" y2="115.5" stroke="rgb(0,0,0)"  stroke-width="1.0"/>
<line x1="662.3" y1="115.5" x2="685.4" y2="126.7" stroke="rgb(0,0,0)"  stroke-width="1.0"/>
<line x1="706.1" y1="123.0" x2="723.9" y2="104.5" stroke="rgb(0,0,0)"  stroke-width="1.0"/>
<line x1="629.0" y1="172.0" x2="648.6" y2="206.6" stroke="rgb(0,0,0)"  stroke-width="1.0"/>
<line x1="648.6" y1="206.6" x2="614.7" y2="225.9" stroke="rgb(0,0,0)"  stroke-width="1.0"/>
<line x1="614.7" y1="225.9" x2="595.0" y2="191.3" stroke="rgb(0,0,0)"  stroke-width="1.0"/>
<line x1="618.0" y1="217.1" x2="604.2" y2="193.0" stroke="rgb(0,0,0)"  stroke-width="1.0"/>
<line x1="595.0" y1="191.3" x2="595.5" y2="153.4" stroke="rgb(0,0,0)"  stroke-width="1.0"/>
<line x1="595.5" y1="153.4" x2="629.0" y2="172.0" stroke="rgb(0,0,0)"  stroke-width="1.0"/>
<line x1="141.6" y1="286.4" x2="163.9" y2="317.1" stroke="rgb(0,0,0)"  stroke-width="1.0"/>
<line x1="163.9" y1="317.1" x2="200.0" y2="305.4" stroke="rgb(0,0,0)"  stroke-width="1.0"/>
<line x1="200.0" y1="305.4" x2="200.0" y2="267.5" stroke="rgb(0,0,0)"  stroke-width="1.0"/>
<line x1="200.0" y1="267.5" x2="163.9" y2="255.8" stroke="rgb(0,0,0)"  stroke-width="1.0"/>
<line x1="192.0" y1="272.5" x2="167.4" y2="264.5" stroke="rgb(0,0,0)"  stroke-width="1.0"/>
<line x1="163.9" y1="255.8" x2="141.6" y2="286.4" stroke="rgb(0,0,0)"  stroke-width="1.0"/>
<line x1="105.6" y1="336.1" x2="141.6" y2="347.8" stroke="rgb(0,0,0)"  stroke-width="1.0"/>
<line x1="141.6" y1="347.8" x2="163.9" y2="317.1" stroke="rgb(0,0,0)"  stroke-width="1.0"/>
<line x1="141.6" y1="286.4" x2="117.9" y2="294.1" stroke="rgb(0,0,0)"  stroke-width="1.0"/>
<line x1="105.6" y1="311.1" x2="105.6" y2="336.1" stroke="rgb(0,0,0)"  stroke-width="1.0"/>
<line x1="105.6" y1="336.1" x2="68.8" y2="324.1" stroke="rgb(0,0,0)"  stroke-width="1.0"/>
<line x1="68.8" y1="324.1" x2="46.0" y2="355.4" stroke="rgb(0,0,0)"  stroke-width="1.0"/>
<line x1="46.0" y1="355.4" x2="68.8" y2="386.7" stroke="rgb(0,0,0)"  stroke-width="1.0"/>
<line x1="68.8" y1="386.7" x2="93.2" y2="378.8" stroke="rgb(0,0,0)"  stroke-width="1.0"/>
<line x1="105.6" y1="361.8" x2="105.6" y2="336.1" stroke="rgb(0,0,0)"  stroke-width="1.0"/>
<line x1="662.3" y1="115.5" x2="662.9" y2="152.7" stroke="rgb(0,0,0)"  stroke-width="1.0"/>
<line x1="662.9" y1="152.7" x2="629.0" y2="172.0" stroke="rgb(0,0,0)"  stroke-width="1.0"/>
<line x1="595.5" y1="153.4" x2="596.2" y2="114.4" stroke="rgb(0,0,0)"  stroke-width="1.0"/>
<line x1="596.2" y1="114.4" x2="618.9" y2="101.5" stroke="rgb(0,0,0)"  stroke-width="1.0"/>
<line x1="641.1" y1="102.1" x2="662.3" y2="115.5" stroke="rgb(0,0,0)"  stroke-width="1.0"/>
<line x1="528.2" y1="191.7" x2="528.3" y2="153.0" stroke="rgb(0,0,0)"  stroke-width="1.0"/>
<line x1="528.3" y1="153.0" x2="562.3" y2="133.7" stroke="rgb(0,0,0)"  stroke-width="1.0"/>
<line x1="562.3" y1="133.7" x2="595.5" y2="153.4" stroke="rgb(0,0,0)"  stroke-width="1.0"/>
<line x1="595.0" y1="191.3" x2="561.1" y2="210.6" stroke="rgb(0,0,0)"  stroke-width="1.0"/>
<line x1="561.1" y1="210.6" x2="528.2" y2="191.7" stroke="rgb(0,0,0)"  stroke-width="1.0"/>
<line x1="495.4" y1="248.5" x2="495.4" y2="210.6" stroke="rgb(0,0,0)"  stroke-width="1.0"/>
<line x1="495.4" y1="210.6" x2="528.2" y2="191.7" stroke="rgb(0,0,0)"  stroke-width="1.0"/>
<line x1="561.1" y1="210.6" x2="561.1" y2="248.5" stroke="rgb(0,0,0)"  stroke-width="1.0"/>
<line x1="561.1" y1="248.5" x2="528.2" y2="267.5" stroke="rgb(0,0,0)"  stroke-width="1.0"/>
<line x1="528.2" y1="267.5" x2="495.4" y2="248.5" stroke="rgb(0,0,0)"  stroke-width="1.0"/>
<line x1="298.4" y1="210.6" x2="298.4" y2="248.5" stroke="rgb(0,0,0)"  stroke-width="1.0"/>
<line x1="298.4" y1="248.5" x2="331.3" y2="267.5" stroke="rgb(0,0,0)"  stroke-width="1.0"/>
<line x1="331.3" y1="267.5" x2="364.1" y2="248.5" stroke="rgb(0,0,0)"  stroke-width="1.0"/>
<line x1="364.1" y1="248.5" x2="364.1" y2="210.6" stroke="rgb(0,0,0)"  stroke-width="1.0"/>
<line x1="356.9" y1="242.5" x2="356.9" y2="216.6" stroke="rgb(0,0,0)"  stroke-width="1.0"/>
<line x1="364.1" y1="210.6" x2="331.3" y2="191.7" stroke="rgb(0,0,0)"  stroke-width="1.0"/>
<line x1="331.3" y1="191.7" x2="298.4" y2="210.6" stroke="rgb(0,0,0)"  stroke-width="1.0"/>
<line x1="232.8" y1="248.5" x2="265.6" y2="267.5" stroke="rgb(0,0,0)"  stroke-width="1.0"/>
<line x1="265.6" y1="267.5" x2="298.4" y2="248.5" stroke="rgb(0,0,0)"  stroke-width="1.0"/>
<line x1="298.4" y1="210.6" x2="265.6" y2="191.7" stroke="rgb(0,0,0)"  stroke-width="1.0"/>
<line x1="265.6" y1="191.7" x2="232.8" y2="210.6" stroke="rgb(0,0,0)"  stroke-width="1.0"/>
<line x1="232.8" y1="210.6" x2="232.8" y2="248.5" stroke="rgb(0,0,0)"  stroke-width="1.0"/>
<line x1="462.6" y1="267.5" x2="429.7" y2="248.5" stroke="rgb(0,0,0)"  stroke-width="1.0"/>
<line x1="429.7" y1="248.5" x2="429.7" y2="210.6" stroke="rgb(0,0,0)"  stroke-width="1.0"/>
<line x1="429.7" y1="210.6" x2="462.6" y2="191.7" stroke="rgb(0,0,0)"  stroke-width="1.0"/>
<line x1="462.6" y1="191.7" x2="495.4" y2="210.6" stroke="rgb(0,0,0)"  stroke-width="1.0"/>
<line x1="495.4" y1="248.5" x2="462.6" y2="267.5" stroke="rgb(0,0,0)"  stroke-width="1.0"/>
<line x1="407.8" y1="197.9" x2="429.7" y2="210.6" stroke="rgb(0,0,0)"  stroke-width="1.0"/>
<line x1="406.1" y1="205.3" x2="421.0" y2="213.9" stroke="rgb(0,0,0)"  stroke-width="1.0"/>
<line x1="429.7" y1="248.5" x2="407.8" y2="261.2" stroke="rgb(0,0,0)"  stroke-width="1.0"/>
<line x1="421.0" y1="245.3" x2="406.1" y2="253.9" stroke="rgb(0,0,0)"  stroke-width="1.0"/>
<line x1="385.7" y1="261.0" x2="364.1" y2="248.5" stroke="rgb(0,0,0)"  stroke-width="1.0"/>
<line x1="364.1" y1="210.6" x2="385.7" y2="198.2" stroke="rgb(0,0,0)"  stroke-width="1.0"/>
<line x1="200.0" y1="305.4" x2="232.8" y2="324.3" stroke="rgb(0,0,0)"  stroke-width="1.0"/>
<line x1="232.8" y1="324.3" x2="265.6" y2="305.4" stroke="rgb(0,0,0)"  stroke-width="1.0"/>
<line x1="265.6" y1="305.4" x2="265.6" y2="267.5" stroke="rgb(0,0,0)"  stroke-width="1.0"/>
<line x1="232.8" y1="248.5" x2="200.0" y2="267.5" stroke="rgb(0,0,0)"  stroke-width="1.0"/>
<text x="750.454411" y="136.189463" fill="rgb(102,102,102)"  stroke="rgb(102,102,102)" stroke-width="1" font-size="16" >CH</text>
<text x="774.454411" y="139.869463" fill="rgb(102,102,102)"  stroke="rgb(102,102,102)" stroke-width="1" font-size="13" >3</text>
<text x="755.726437" y="97.848793" fill="rgb(102,102,102)"  stroke="rgb(102,102,102)" stroke-width="1" font-size="16" >CH</text>
<text x="779.726437" y="101.528793" fill="rgb(102,102,102)"  stroke="rgb(102,102,102)" stroke-width="1" font-size="13" >3</text>
<text x="691.085190" y="140.372855" fill="rgb(255,12,12)"  stroke="rgb(255,12,12)" stroke-width="1" font-size="16" >O</text>
<text x="650.743897" y="48.000000" fill="rgb(191,191,191)"  stroke="rgb(191,191,191)" stroke-width="1" font-size="16" >H</text>
<text x="611.942658" y="75.919435" fill="rgb(255,12,12)"  stroke="rgb(255,12,12)" stroke-width="1" font-size="16" >HO</text>
<text x="624.159881" y="103.110035" fill="rgb(255,12,12)"  stroke="rgb(255,12,12)" stroke-width="1" font-size="16" >O</text>
<text x="694.148338" y="160.998656" fill="rgb(191,191,191)"  stroke="rgb(191,191,191)" stroke-width="1" font-size="16" >H</text>
<text x="733.386070" y="161.253622" fill="rgb(102,102,102)"  stroke="rgb(102,102,102)" stroke-width="1" font-size="16" >CH</text>
<text x="757.386070" y="164.933622" fill="rgb(102,102,102)"  stroke="rgb(102,102,102)" stroke-width="1" font-size="13" >3</text>
<text x="661.235064" y="180.290509" fill="rgb(191,191,191)"  stroke="rgb(191,191,191)" stroke-width="1" font-size="16" >H</text>
<text x="575.832393" y="108.323308" fill="rgb(255,12,12)"  stroke="rgb(255,12,12)" stroke-width="1" font-size="16" >O</text>
<text x="489.534341" y="180.490201" fill="rgb(191,191,191)"  stroke="rgb(191,191,191)" stroke-width="1" font-size="16" >H</text>
<text x="592.965535" y="218.880613" fill="rgb(191,191,191)"  stroke="rgb(191,191,191)" stroke-width="1" font-size="16" >H</text>
<text x="489.403802" y="295.229062" fill="rgb(191,191,191)"  stroke="rgb(191,191,191)" stroke-width="1" font-size="16" >H</text>
<text x="491.403802" y="141.218200" fill="rgb(102,102,102)"  stroke="rgb(102,102,102)" stroke-width="1" font-size="16" >CH</text>
<text x="515.403802" y="144.898200" fill="rgb(102,102,102)"  stroke="rgb(102,102,102)" stroke-width="1" font-size="13" >3</text>
<text x="390.919695" y="199.667799" fill="rgb(12,12,255)"  stroke="rgb(12,12,255)" stroke-width="1" font-size="16" >N</text>
<text x="390.919695" y="275.480900" fill="rgb(12,12,255)"  stroke="rgb(12,12,255)" stroke-width="1" font-size="16" >N</text>
<text x="294.435588" y="333.930500" fill="rgb(102,102,102)"  stroke="rgb(102,102,102)" stroke-width="1" font-size="16" >CH</text>
<text x="318.435588" y="337.610500" fill="rgb(102,102,102)"  stroke="rgb(102,102,102)" stroke-width="1" font-size="13" >3</text>
<text x="292.435588" y="179.919637" fill="rgb(191,191,191)"  stroke="rgb(191,191,191)" stroke-width="1" font-size="16" >H</text>
<text x="193.263089" y="237.176906" fill="rgb(191,191,191)"  stroke="rgb(191,191,191)" stroke-width="1" font-size="16" >H</text>
<text x="293.123981" y="294.831619" fill="rgb(191,191,191)"  stroke="rgb(191,191,191)" stroke-width="1" font-size="16" >H</text>
<text x="188.078080" y="399.373581" fill="rgb(191,191,191)"  stroke="rgb(191,191,191)" stroke-width="1" font-size="16" >H</text>
<text x="246.130236" y="365.857153" fill="rgb(255,12,12)"  stroke="rgb(255,12,12)" stroke-width="1" font-size="16" >OH</text>
<text x="211.692775" y="348.742972" fill="rgb(102,102,102)"  stroke="rgb(102,102,102)" stroke-width="1" font-size="16" >CH</text>
<text x="235.692775" y="352.422972" fill="rgb(102,102,102)"  stroke="rgb(102,102,102)" stroke-width="1" font-size="13" >3</text>
<text x="112.871165" y="263.124054" fill="rgb(191,191,191)"  stroke="rgb(191,191,191)" stroke-width="1" font-size="16" >H</text>
<text x="99.568027" y="306.147943" fill="rgb(255,12,12)"  stroke="rgb(255,12,12)" stroke-width="1" font-size="16" >O</text>
<text x="180.648344" y="356.411339" fill="rgb(255,12,12)"  stroke="rgb(255,12,12)" stroke-width="1" font-size="16" >OH</text>
<text x="127.572818" y="393.623980" fill="rgb(191,191,191)"  stroke="rgb(191,191,191)" stroke-width="1" font-size="16" >H</text>
<text x="166.380072" y="381.664578" fill="rgb(102,102,102)"  stroke="rgb(102,102,102)" stroke-width="1" font-size="16" >CH</text>
<text x="190.380072" y="385.344578" fill="rgb(102,102,102)"  stroke="rgb(102,102,102)" stroke-width="1" font-size="13" >3</text>
<text x="99.568027" y="382.755931" fill="rgb(255,12,12)"  stroke="rgb(255,12,12)" stroke-width="1" font-size="16" >O</text>
<text x="70.807254" y="294.239374" fill="rgb(191,191,191)"  stroke="rgb(191,191,191)" stroke-width="1" font-size="16" >H</text>
<text x="22.000000" y="306.198775" fill="rgb(255,12,12)"  stroke="rgb(255,12,12)" stroke-width="1" font-size="16" >HO</text>
<text x="14.000000" y="420.611649" fill="rgb(102,102,102)"  stroke="rgb(102,102,102)" stroke-width="1" font-size="16" >H</text>
<text x="26.000000" y="424.291649" fill="rgb(102,102,102)"  stroke="rgb(102,102,102)" stroke-width="1" font-size="13" >3</text>
<text x="32.500000" y="420.611649" fill="rgb(102,102,102)"  stroke="rgb(102,102,102)" stroke-width="1" font-size="16" >C</text>
<text x="30.046481" y="458.467367" fill="rgb(255,12,12)"  stroke="rgb(255,12,12)" stroke-width="1" font-size="16" >HO</text>
<text font-size="18.000000" fill ="black" font-family="sans-serif"
x="10.000000" y="20.000000" ></text>
<title> - OBDepict</title>
</svg>
