<?xml version="1.0"?>
<svg xmlns="http://www.w3.org/2000/svg"
xmlns:xlink="http://www.w3.org/1999/xlink" xmlns:cml="http://www.xml-cml.org/schema" width="410.323" height="180.723" x="0" y="0" font-family="sans-serif" stroke="rgb(0,0,0)" stroke-width="1"  stroke-linecap="round">
<rect x="0%" y="0%" width="100%" height="100%" stroke-width="0" fill="rgb(255,255,255)"  />
<polygon points="307.03 100 321.585 122.856 314.277 126.11 " stroke-width="1" fill="rgb(0,0,0)"  stroke="rgb(0,0,0)" />
<line x1="245.5" y1="83.0" x2="205.5" y2="83.0" stroke="rgb(0,0,0)"  stroke-width="1.0"/>
<line x1="245.5" y1="77.0" x2="205.5" y2="77.0" stroke="rgb(0,0,0)"  stroke-width="1.0"/>
<line x1="76.1" y1="102.6" x2="52.8" y2="116.1" stroke="rgb(0,0,0)"  stroke-width="1.0"/>
<line x1="73.1" y1="97.4" x2="49.8" y2="110.9" stroke="rgb(0,0,0)"  stroke-width="1.0"/>
<line x1="307.0" y1="100.0" x2="346.8" y2="104.2" stroke="rgb(0,0,0)"  stroke-width="1.0"/>
<line x1="349.6" y1="103.0" x2="360.5" y2="127.6" stroke="rgb(0,0,0)"  stroke-width="1.0"/>
<line x1="344.1" y1="105.4" x2="355.1" y2="130.1" stroke="rgb(0,0,0)"  stroke-width="1.0"/>
<line x1="346.8" y1="104.2" x2="362.7" y2="82.3" stroke="rgb(0,0,0)"  stroke-width="1.0"/>
<line x1="307.0" y1="60.0" x2="307.0" y2="100.0" stroke="rgb(0,0,0)"  stroke-width="1.0"/>
<line x1="307.0" y1="100.0" x2="281.4" y2="108.3" stroke="rgb(0,0,0)"  stroke-width="1.0"/>
<line x1="261.3" y1="101.8" x2="245.5" y2="80.0" stroke="rgb(0,0,0)"  stroke-width="1.0"/>
<line x1="245.5" y1="80.0" x2="261.3" y2="58.2" stroke="rgb(0,0,0)"  stroke-width="1.0"/>
<line x1="281.4" y1="51.7" x2="307.0" y2="60.0" stroke="rgb(0,0,0)"  stroke-width="1.0"/>
<line x1="205.5" y1="80.0" x2="189.6" y2="58.2" stroke="rgb(0,0,0)"  stroke-width="1.0"/>
<line x1="169.6" y1="51.7" x2="143.9" y2="60.0" stroke="rgb(0,0,0)"  stroke-width="1.0"/>
<line x1="143.9" y1="60.0" x2="143.9" y2="100.0" stroke="rgb(0,0,0)"  stroke-width="1.0"/>
<line x1="143.9" y1="100.0" x2="169.6" y2="108.3" stroke="rgb(0,0,0)"  stroke-width="1.0"/>
<line x1="189.6" y1="101.8" x2="205.5" y2="80.0" stroke="rgb(0,0,0)"  stroke-width="1.0"/>
<line x1="109.3" y1="120.0" x2="74.6" y2="100.0" stroke="rgb(0,0,0)"  stroke-width="1.0"/>
<line x1="74.6" y1="100.0" x2="74.6" y2="60.0" stroke="rgb(0,0,0)"  stroke-width="1.0"/>
<line x1="74.6" y1="60.0" x2="109.3" y2="40.0" stroke="rgb(0,0,0)"  stroke-width="1.0"/>
<line x1="83.4" y1="63.2" x2="107.7" y2="49.2" stroke="rgb(0,0,0)"  stroke-width="1.0"/>
<line x1="109.3" y1="40.0" x2="143.9" y2="60.0" stroke="rgb(0,0,0)"  stroke-width="1.0"/>
<line x1="143.9" y1="100.0" x2="109.3" y2="120.0" stroke="rgb(0,0,0)"  stroke-width="1.0"/>
<line x1="135.1" y1="96.8" x2="110.9" y2="110.8" stroke="rgb(0,0,0)"  stroke-width="1.0"/>
<text x="317.299856" y="144.541818" fill="rgb(191,191,191)"  stroke="rgb(191,191,191)" stroke-width="1" font-size="16" >H</text>
<text x="262.988129" y="120.360680" fill="rgb(12,12,255)"  stroke="rgb(12,12,255)" stroke-width="1" font-size="16" >N</text>
<text x="262.988129" y="136.360680" fill="rgb(12,12,255)"  stroke="rgb(12,12,255)" stroke-width="1" font-size="16" >H</text>
<text x="175.965309" y="55.639320" fill="rgb(12,12,255)"  stroke="rgb(12,12,255)" stroke-width="1" font-size="16" >N</text>
<text x="175.965309" y="39.639320" fill="rgb(12,12,255)"  stroke="rgb(12,12,255)" stroke-width="1" font-size="16" >H</text>
<text x="34.000000" y="128.000000" fill="rgb(255,12,12)"  stroke="rgb(255,12,12)" stroke-width="1" font-size="16" >O</text>
<text x="175.965309" y="120.360680" fill="rgb(178,178,0)"  stroke="rgb(178,178,0)" stroke-width="1" font-size="16" >S</text>
<text x="262.988129" y="55.639320" fill="rgb(178,178,0)"  stroke="rgb(178,178,0)" stroke-width="1" font-size="16" >S</text>
<text x="357.080731" y="148.722957" fill="rgb(255,12,12)"  stroke="rgb(255,12,12)" stroke-width="1" font-size="16" >O</text>
<text x="364.322676" y="79.820459" fill="rgb(255,12,12)"  stroke="rgb(255,12,12)" stroke-width="1" font-size="16" >OH</text>
<text font-size="18.000000" fill ="black" font-family="sans-serif"
x="10.000000" y="20.000000" ></text>
<title> - OBDepict</title>
</svg>
