<?xml version="1.0"?>
<svg xmlns="http://www.w3.org/2000/svg"
xmlns:xlink="http://www.w3.org/1999/xlink" xmlns:cml="http://www.xml-cml.org/schema" width="501.323" height="295.211" x="0" y="0" font-family="sans-serif" stroke="rgb(0,0,0)" stroke-width="1"  stroke-linecap="round">
<rect x="0%" y="0%" width="100%" height="100%" stroke-width="0" fill="rgb(255,255,255)"  />
<line x1="442.7" y1="242.3" x2="443.7" y2="233.5" stroke="rgb(0,0,0)"  stroke-width="1.0"/>
<line x1="443.7" y1="233.5" x2="450.8" y2="238.7" stroke="rgb(0,0,0)"  stroke-width="1.0"/>
<polygon points="440.017694 198.335480 446.855159 184.791686 452.793489 190.152306 " stroke-width="1.000000" fill="rgb(0,0,0)"  stroke="rgb(0,0,0)" />
<line x1="440.0" y1="198.3" x2="437.3" y2="189.9" stroke="rgb(0,0,0)"  stroke-width="1.0"/>
<line x1="421.1" y1="210.0" x2="419.6" y2="210.2" stroke="rgb(0,0,0)"  stroke-width="1.0"/>
<line x1="422.0" y1="212.3" x2="419.2" y2="212.6" stroke="rgb(0,0,0)"  stroke-width="1.0"/>
<line x1="422.9" y1="214.5" x2="418.8" y2="215.0" stroke="rgb(0,0,0)"  stroke-width="1.0"/>
<line x1="423.8" y1="216.8" x2="418.4" y2="217.4" stroke="rgb(0,0,0)"  stroke-width="1.0"/>
<line x1="424.7" y1="219.1" x2="418.0" y2="219.8" stroke="rgb(0,0,0)"  stroke-width="1.0"/>
<line x1="425.5" y1="221.3" x2="417.6" y2="222.2" stroke="rgb(0,0,0)"  stroke-width="1.0"/>
<polygon points="420.430885 185.803158 424.487201 171.484512 431.314991 175.653598 " stroke-width="1.000000" fill="rgb(0,0,0)"  stroke="rgb(0,0,0)" />
<line x1="420.4" y1="185.8" x2="436.0" y2="160.4" stroke="rgb(0,0,0)"  stroke-width="1.0"/>
<line x1="358.0" y1="161.2" x2="358.5" y2="159.7" stroke="rgb(0,0,0)"  stroke-width="1.0"/>
<line x1="323.1" y1="150.7" x2="324.0" y2="148.0" stroke="rgb(0,0,0)"  stroke-width="1.0"/>
<line x1="288.2" y1="140.3" x2="289.4" y2="136.3" stroke="rgb(0,0,0)"  stroke-width="1.0"/>
<line x1="253.3" y1="129.8" x2="254.9" y2="124.6" stroke="rgb(0,0,0)"  stroke-width="1.0"/>
<line x1="218.4" y1="119.3" x2="220.4" y2="112.9" stroke="rgb(0,0,0)"  stroke-width="1.0"/>
<line x1="183.5" y1="108.8" x2="185.9" y2="101.2" stroke="rgb(0,0,0)"  stroke-width="1.0"/>
<line x1="382.0" y1="180.1" x2="383.6" y2="180.1" stroke="rgb(0,0,0)"  stroke-width="1.0"/>
<line x1="381.3" y1="176.6" x2="384.2" y2="176.7" stroke="rgb(0,0,0)"  stroke-width="1.0"/>
<line x1="380.7" y1="173.2" x2="384.9" y2="173.2" stroke="rgb(0,0,0)"  stroke-width="1.0"/>
<line x1="380.1" y1="169.7" x2="385.5" y2="169.7" stroke="rgb(0,0,0)"  stroke-width="1.0"/>
<line x1="379.4" y1="166.3" x2="386.2" y2="166.3" stroke="rgb(0,0,0)"  stroke-width="1.0"/>
<line x1="378.8" y1="162.8" x2="386.8" y2="162.8" stroke="rgb(0,0,0)"  stroke-width="1.0"/>
<line x1="362.1" y1="197.5" x2="88.6" y2="78.8" stroke="rgb(0,0,0)"  stroke-width="1.0"/>
<line x1="364.5" y1="192.0" x2="91.0" y2="73.3" stroke="rgb(0,0,0)"  stroke-width="1.0"/>
<polygon points="345.798544 161.855302 164.976232 104.687234 167.548177 97.111939 " stroke-width="1.000000" fill="rgb(0,0,0)"  stroke="rgb(0,0,0)" />
<line x1="325.4" y1="141.3" x2="325.9" y2="139.8" stroke="rgb(0,0,0)"  stroke-width="1.0"/>
<line x1="294.6" y1="133.3" x2="295.4" y2="130.6" stroke="rgb(0,0,0)"  stroke-width="1.0"/>
<line x1="263.7" y1="125.3" x2="264.9" y2="121.3" stroke="rgb(0,0,0)"  stroke-width="1.0"/>
<line x1="232.9" y1="117.3" x2="234.4" y2="112.1" stroke="rgb(0,0,0)"  stroke-width="1.0"/>
<line x1="202.0" y1="109.3" x2="203.9" y2="102.8" stroke="rgb(0,0,0)"  stroke-width="1.0"/>
<line x1="171.2" y1="101.3" x2="173.4" y2="93.6" stroke="rgb(0,0,0)"  stroke-width="1.0"/>
<polygon points="327.596635 130.328670 159.329318 94.387076 161.181831 86.604519 " stroke-width="1.000000" fill="rgb(0,0,0)"  stroke="rgb(0,0,0)" />
<line x1="293.9" y1="141.3" x2="294.4" y2="139.8" stroke="rgb(0,0,0)"  stroke-width="1.0"/>
<line x1="266.9" y1="133.3" x2="267.8" y2="130.6" stroke="rgb(0,0,0)"  stroke-width="1.0"/>
<line x1="239.9" y1="125.3" x2="241.2" y2="121.3" stroke="rgb(0,0,0)"  stroke-width="1.0"/>
<line x1="213.0" y1="117.3" x2="214.6" y2="112.1" stroke="rgb(0,0,0)"  stroke-width="1.0"/>
<line x1="186.0" y1="109.3" x2="188.1" y2="102.9" stroke="rgb(0,0,0)"  stroke-width="1.0"/>
<line x1="159.0" y1="101.2" x2="161.5" y2="93.6" stroke="rgb(0,0,0)"  stroke-width="1.0"/>
<line x1="217.6" y1="127.4" x2="219.2" y2="127.4" stroke="rgb(0,0,0)"  stroke-width="1.0"/>
<line x1="216.9" y1="125.1" x2="219.8" y2="125.1" stroke="rgb(0,0,0)"  stroke-width="1.0"/>
<line x1="216.3" y1="122.7" x2="220.5" y2="122.7" stroke="rgb(0,0,0)"  stroke-width="1.0"/>
<line x1="215.7" y1="120.4" x2="221.1" y2="120.4" stroke="rgb(0,0,0)"  stroke-width="1.0"/>
<line x1="215.0" y1="118.0" x2="221.7" y2="118.0" stroke="rgb(0,0,0)"  stroke-width="1.0"/>
<line x1="214.4" y1="115.7" x2="222.4" y2="115.7" stroke="rgb(0,0,0)"  stroke-width="1.0"/>
<polygon points="218.385177 151.346424 222.385177 165.981495 214.385177 165.981495 " stroke-width="1.000000" fill="rgb(0,0,0)"  stroke="rgb(0,0,0)" />
<line x1="179.8" y1="132.5" x2="179.0" y2="131.1" stroke="rgb(0,0,0)"  stroke-width="1.0"/>
<line x1="178.1" y1="134.2" x2="176.7" y2="131.7" stroke="rgb(0,0,0)"  stroke-width="1.0"/>
<line x1="176.4" y1="135.9" x2="174.4" y2="132.3" stroke="rgb(0,0,0)"  stroke-width="1.0"/>
<line x1="174.7" y1="137.7" x2="172.0" y2="132.9" stroke="rgb(0,0,0)"  stroke-width="1.0"/>
<line x1="173.0" y1="139.4" x2="169.7" y2="133.6" stroke="rgb(0,0,0)"  stroke-width="1.0"/>
<line x1="171.3" y1="141.1" x2="167.3" y2="134.2" stroke="rgb(0,0,0)"  stroke-width="1.0"/>
<polygon points="200.183268 119.819792 223.531953 101.720620 227.531953 108.648824 " stroke-width="1.000000" fill="rgb(0,0,0)"  stroke="rgb(0,0,0)" />
<polygon points="181.981358 88.293160 171.199721 77.618817 178.127925 73.618817 " stroke-width="1.000000" fill="rgb(0,0,0)"  stroke="rgb(0,0,0)" />
<line x1="182.0" y1="88.3" x2="186.4" y2="80.6" stroke="rgb(0,0,0)"  stroke-width="1.0"/>
<line x1="165.4" y1="93.1" x2="166.9" y2="93.8" stroke="rgb(0,0,0)"  stroke-width="1.0"/>
<line x1="166.7" y1="88.6" x2="169.4" y2="89.8" stroke="rgb(0,0,0)"  stroke-width="1.0"/>
<line x1="168.1" y1="84.1" x2="171.9" y2="85.7" stroke="rgb(0,0,0)"  stroke-width="1.0"/>
<line x1="169.4" y1="79.5" x2="174.4" y2="81.7" stroke="rgb(0,0,0)"  stroke-width="1.0"/>
<line x1="170.7" y1="75.0" x2="176.8" y2="77.7" stroke="rgb(0,0,0)"  stroke-width="1.0"/>
<line x1="172.0" y1="70.4" x2="179.3" y2="73.7" stroke="rgb(0,0,0)"  stroke-width="1.0"/>
<polygon points="131.436449 109.310915 126.070239 123.502076 119.598103 118.799794 " stroke-width="1.000000" fill="rgb(0,0,0)"  stroke="rgb(0,0,0)" />
<polygon points="143.790376 92.307194 149.156586 78.116032 155.628722 82.818314 " stroke-width="1.000000" fill="rgb(0,0,0)"  stroke="rgb(0,0,0)" />
<line x1="133.1" y1="72.8" x2="134.1" y2="73.9" stroke="rgb(0,0,0)"  stroke-width="1.0"/>
<line x1="134.4" y1="70.7" x2="136.3" y2="72.8" stroke="rgb(0,0,0)"  stroke-width="1.0"/>
<line x1="135.7" y1="68.7" x2="138.5" y2="71.8" stroke="rgb(0,0,0)"  stroke-width="1.0"/>
<line x1="137.0" y1="66.6" x2="140.7" y2="70.7" stroke="rgb(0,0,0)"  stroke-width="1.0"/>
<line x1="138.3" y1="64.6" x2="142.8" y2="69.6" stroke="rgb(0,0,0)"  stroke-width="1.0"/>
<line x1="139.6" y1="62.5" x2="145.0" y2="68.5" stroke="rgb(0,0,0)"  stroke-width="1.0"/>
<line x1="131.4" y1="75.3" x2="129.6" y2="66.7" stroke="rgb(0,0,0)"  stroke-width="1.0"/>
<polygon points="111.447377 81.798317 115.447377 95.880212 107.447377 95.880212 " stroke-width="1.000000" fill="rgb(0,0,0)"  stroke="rgb(0,0,0)" />
<line x1="114.3" y1="58.9" x2="114.4" y2="60.4" stroke="rgb(0,0,0)"  stroke-width="1.0"/>
<line x1="116.5" y1="58.0" x2="116.8" y2="60.8" stroke="rgb(0,0,0)"  stroke-width="1.0"/>
<line x1="118.8" y1="57.1" x2="119.2" y2="61.2" stroke="rgb(0,0,0)"  stroke-width="1.0"/>
<line x1="121.1" y1="56.2" x2="121.6" y2="61.6" stroke="rgb(0,0,0)"  stroke-width="1.0"/>
<line x1="123.3" y1="55.3" x2="124.0" y2="62.0" stroke="rgb(0,0,0)"  stroke-width="1.0"/>
<line x1="125.6" y1="54.4" x2="126.4" y2="62.4" stroke="rgb(0,0,0)"  stroke-width="1.0"/>
<line x1="111.4" y1="60.0" x2="115.0" y2="51.9" stroke="rgb(0,0,0)"  stroke-width="1.0"/>
<polygon points="77.833858 70.876622 63.159516 67.023189 67.159516 60.094986 " stroke-width="1.000000" fill="rgb(0,0,0)"  stroke="rgb(0,0,0)" />
<line x1="77.8" y1="70.9" x2="58.9" y2="81.8" stroke="rgb(0,0,0)"  stroke-width="1.0"/>
<line x1="58.9" y1="81.8" x2="51.3" y2="77.4" stroke="rgb(0,0,0)"  stroke-width="1.0"/>
<line x1="443.7" y1="233.5" x2="454.6" y2="214.6" stroke="rgb(0,0,0)"  stroke-width="1.0"/>
<line x1="454.6" y1="214.6" x2="440.0" y2="198.3" stroke="rgb(0,0,0)"  stroke-width="1.0"/>
<line x1="440.0" y1="198.3" x2="420.1" y2="207.2" stroke="rgb(0,0,0)"  stroke-width="1.0"/>
<line x1="420.1" y1="207.2" x2="421.0" y2="216.0" stroke="rgb(0,0,0)"  stroke-width="1.0"/>
<line x1="435.0" y1="231.6" x2="443.7" y2="233.5" stroke="rgb(0,0,0)"  stroke-width="1.0"/>
<line x1="401.6" y1="174.3" x2="413.3" y2="155.2" stroke="rgb(0,0,0)"  stroke-width="1.0"/>
<line x1="413.3" y1="155.2" x2="394.5" y2="143.7" stroke="rgb(0,0,0)"  stroke-width="1.0"/>
<line x1="394.5" y1="143.7" x2="382.8" y2="162.8" stroke="rgb(0,0,0)"  stroke-width="1.0"/>
<line x1="397.5" y1="152.5" x2="392.1" y2="161.5" stroke="rgb(0,0,0)"  stroke-width="1.0"/>
<line x1="382.8" y1="162.8" x2="382.8" y2="184.4" stroke="rgb(0,0,0)"  stroke-width="1.0"/>
<line x1="382.8" y1="184.4" x2="401.6" y2="174.3" stroke="rgb(0,0,0)"  stroke-width="1.0"/>
<line x1="131.4" y1="109.3" x2="143.8" y2="92.3" stroke="rgb(0,0,0)"  stroke-width="1.0"/>
<line x1="143.8" y1="92.3" x2="163.8" y2="98.8" stroke="rgb(0,0,0)"  stroke-width="1.0"/>
<line x1="163.8" y1="98.8" x2="163.8" y2="119.8" stroke="rgb(0,0,0)"  stroke-width="1.0"/>
<line x1="163.8" y1="119.8" x2="143.8" y2="126.3" stroke="rgb(0,0,0)"  stroke-width="1.0"/>
<line x1="155.8" y1="114.8" x2="147.3" y2="117.6" stroke="rgb(0,0,0)"  stroke-width="1.0"/>
<line x1="143.8" y1="126.3" x2="131.4" y2="109.3" stroke="rgb(0,0,0)"  stroke-width="1.0"/>
<line x1="111.4" y1="81.8" x2="131.4" y2="75.3" stroke="rgb(0,0,0)"  stroke-width="1.0"/>
<line x1="131.4" y1="75.3" x2="143.8" y2="92.3" stroke="rgb(0,0,0)"  stroke-width="1.0"/>
<line x1="131.4" y1="109.3" x2="123.8" y2="106.8" stroke="rgb(0,0,0)"  stroke-width="1.0"/>
<line x1="111.4" y1="89.8" x2="111.4" y2="81.8" stroke="rgb(0,0,0)"  stroke-width="1.0"/>
<line x1="111.4" y1="81.8" x2="111.4" y2="60.0" stroke="rgb(0,0,0)"  stroke-width="1.0"/>
<line x1="111.4" y1="60.0" x2="90.7" y2="53.2" stroke="rgb(0,0,0)"  stroke-width="1.0"/>
<line x1="90.7" y1="53.2" x2="77.8" y2="70.9" stroke="rgb(0,0,0)"  stroke-width="1.0"/>
<line x1="77.8" y1="70.9" x2="83.0" y2="78.0" stroke="rgb(0,0,0)"  stroke-width="1.0"/>
<line x1="103.0" y1="84.5" x2="111.4" y2="81.8" stroke="rgb(0,0,0)"  stroke-width="1.0"/>
<line x1="420.1" y1="207.2" x2="420.4" y2="185.8" stroke="rgb(0,0,0)"  stroke-width="1.0"/>
<line x1="420.4" y1="185.8" x2="401.6" y2="174.3" stroke="rgb(0,0,0)"  stroke-width="1.0"/>
<line x1="382.8" y1="184.4" x2="382.1" y2="206.2" stroke="rgb(0,0,0)"  stroke-width="1.0"/>
<line x1="382.1" y1="206.2" x2="389.8" y2="211.0" stroke="rgb(0,0,0)"  stroke-width="1.0"/>
<line x1="412.3" y1="211.5" x2="420.1" y2="207.2" stroke="rgb(0,0,0)"  stroke-width="1.0"/>
<line x1="345.8" y1="161.9" x2="344.5" y2="183.3" stroke="rgb(0,0,0)"  stroke-width="1.0"/>
<line x1="344.5" y1="183.3" x2="363.3" y2="194.8" stroke="rgb(0,0,0)"  stroke-width="1.0"/>
<line x1="363.3" y1="194.8" x2="382.8" y2="184.4" stroke="rgb(0,0,0)"  stroke-width="1.0"/>
<line x1="382.8" y1="162.8" x2="364.0" y2="151.3" stroke="rgb(0,0,0)"  stroke-width="1.0"/>
<line x1="364.0" y1="151.3" x2="345.8" y2="161.9" stroke="rgb(0,0,0)"  stroke-width="1.0"/>
<line x1="327.6" y1="130.3" x2="327.6" y2="151.3" stroke="rgb(0,0,0)"  stroke-width="1.0"/>
<line x1="327.6" y1="151.3" x2="345.8" y2="161.9" stroke="rgb(0,0,0)"  stroke-width="1.0"/>
<line x1="364.0" y1="151.3" x2="364.0" y2="130.3" stroke="rgb(0,0,0)"  stroke-width="1.0"/>
<line x1="364.0" y1="130.3" x2="345.8" y2="119.8" stroke="rgb(0,0,0)"  stroke-width="1.0"/>
<line x1="345.8" y1="119.8" x2="327.6" y2="130.3" stroke="rgb(0,0,0)"  stroke-width="1.0"/>
<line x1="218.4" y1="151.3" x2="218.4" y2="130.3" stroke="rgb(0,0,0)"  stroke-width="1.0"/>
<line x1="218.4" y1="130.3" x2="236.6" y2="119.8" stroke="rgb(0,0,0)"  stroke-width="1.0"/>
<line x1="236.6" y1="119.8" x2="254.8" y2="130.3" stroke="rgb(0,0,0)"  stroke-width="1.0"/>
<line x1="254.8" y1="130.3" x2="254.8" y2="151.3" stroke="rgb(0,0,0)"  stroke-width="1.0"/>
<line x1="247.6" y1="136.3" x2="247.6" y2="145.3" stroke="rgb(0,0,0)"  stroke-width="1.0"/>
<line x1="254.8" y1="151.3" x2="236.6" y2="161.9" stroke="rgb(0,0,0)"  stroke-width="1.0"/>
<line x1="236.6" y1="161.9" x2="218.4" y2="151.3" stroke="rgb(0,0,0)"  stroke-width="1.0"/>
<line x1="182.0" y1="130.3" x2="200.2" y2="119.8" stroke="rgb(0,0,0)"  stroke-width="1.0"/>
<line x1="200.2" y1="119.8" x2="218.4" y2="130.3" stroke="rgb(0,0,0)"  stroke-width="1.0"/>
<line x1="218.4" y1="151.3" x2="200.2" y2="161.9" stroke="rgb(0,0,0)"  stroke-width="1.0"/>
<line x1="200.2" y1="161.9" x2="182.0" y2="151.3" stroke="rgb(0,0,0)"  stroke-width="1.0"/>
<line x1="182.0" y1="151.3" x2="182.0" y2="130.3" stroke="rgb(0,0,0)"  stroke-width="1.0"/>
<line x1="309.4" y1="119.8" x2="291.2" y2="130.3" stroke="rgb(0,0,0)"  stroke-width="1.0"/>
<line x1="291.2" y1="130.3" x2="291.2" y2="151.3" stroke="rgb(0,0,0)"  stroke-width="1.0"/>
<line x1="291.2" y1="151.3" x2="309.4" y2="161.9" stroke="rgb(0,0,0)"  stroke-width="1.0"/>
<line x1="309.4" y1="161.9" x2="327.6" y2="151.3" stroke="rgb(0,0,0)"  stroke-width="1.0"/>
<line x1="327.6" y1="130.3" x2="309.4" y2="119.8" stroke="rgb(0,0,0)"  stroke-width="1.0"/>
<line x1="279.0" y1="158.4" x2="291.2" y2="151.3" stroke="rgb(0,0,0)"  stroke-width="1.0"/>
<line x1="278.8" y1="150.2" x2="282.4" y2="148.1" stroke="rgb(0,0,0)"  stroke-width="1.0"/>
<line x1="291.2" y1="130.3" x2="279.0" y2="123.3" stroke="rgb(0,0,0)"  stroke-width="1.0"/>
<line x1="282.4" y1="133.6" x2="278.8" y2="131.5" stroke="rgb(0,0,0)"  stroke-width="1.0"/>
<line x1="261.7" y1="126.3" x2="254.8" y2="130.3" stroke="rgb(0,0,0)"  stroke-width="1.0"/>
<line x1="254.8" y1="151.3" x2="261.7" y2="155.4" stroke="rgb(0,0,0)"  stroke-width="1.0"/>
<line x1="163.8" y1="98.8" x2="182.0" y2="88.3" stroke="rgb(0,0,0)"  stroke-width="1.0"/>
<line x1="182.0" y1="88.3" x2="200.2" y2="98.8" stroke="rgb(0,0,0)"  stroke-width="1.0"/>
<line x1="200.2" y1="98.8" x2="200.2" y2="119.8" stroke="rgb(0,0,0)"  stroke-width="1.0"/>
<line x1="182.0" y1="130.3" x2="163.8" y2="119.8" stroke="rgb(0,0,0)"  stroke-width="1.0"/>
<text x="415.356322" y="263.210691" fill="rgb(102,102,102)"  stroke="rgb(102,102,102)" stroke-width="1" font-size="16" >H</text>
<text x="427.356322" y="266.890691" fill="rgb(102,102,102)"  stroke="rgb(102,102,102)" stroke-width="1" font-size="13" >3</text>
<text x="433.856322" y="263.210691" fill="rgb(102,102,102)"  stroke="rgb(102,102,102)" stroke-width="1" font-size="16" >C</text>
<text x="457.322559" y="254.351630" fill="rgb(102,102,102)"  stroke="rgb(102,102,102)" stroke-width="1" font-size="16" >CH</text>
<text x="481.322559" y="258.031630" fill="rgb(102,102,102)"  stroke="rgb(102,102,102)" stroke-width="1" font-size="13" >3</text>
<text x="416.307017" y="236.921162" fill="rgb(255,12,12)"  stroke="rgb(255,12,12)" stroke-width="1" font-size="16" >O</text>
<text x="448.654455" y="190.121325" fill="rgb(191,191,191)"  stroke="rgb(191,191,191)" stroke-width="1" font-size="16" >H</text>
<text x="415.294204" y="185.552596" fill="rgb(255,12,12)"  stroke="rgb(255,12,12)" stroke-width="1" font-size="16" >HO</text>
<text x="394.933062" y="225.735104" fill="rgb(255,12,12)"  stroke="rgb(255,12,12)" stroke-width="1" font-size="16" >O</text>
<text x="425.580454" y="175.543302" fill="rgb(191,191,191)"  stroke="rgb(191,191,191)" stroke-width="1" font-size="16" >H</text>
<text x="438.730023" y="157.283446" fill="rgb(102,102,102)"  stroke="rgb(102,102,102)" stroke-width="1" font-size="16" >CH</text>
<text x="462.730023" y="160.963446" fill="rgb(102,102,102)"  stroke="rgb(102,102,102)" stroke-width="1" font-size="13" >3</text>
<text x="71.833858" y="78.876622" fill="rgb(191,191,191)"  stroke="rgb(191,191,191)" stroke-width="1" font-size="16" >H</text>
<text x="71.833858" y="78.876622" fill="rgb(255,12,12)"  stroke="rgb(255,12,12)" stroke-width="1" font-size="16" >O</text>
<text x="71.833858" y="78.876622" fill="rgb(191,191,191)"  stroke="rgb(191,191,191)" stroke-width="1" font-size="16" >H</text>
<text x="71.833858" y="78.876622" fill="rgb(191,191,191)"  stroke="rgb(191,191,191)" stroke-width="1" font-size="16" >H</text>
<text x="71.833858" y="78.876622" fill="rgb(191,191,191)"  stroke="rgb(191,191,191)" stroke-width="1" font-size="16" >H</text>
<text x="51.833858" y="78.876622" fill="rgb(102,102,102)"  stroke="rgb(102,102,102)" stroke-width="1" font-size="16" >H</text>
<text x="63.833858" y="82.556622" fill="rgb(102,102,102)"  stroke="rgb(102,102,102)" stroke-width="1" font-size="13" >3</text>
<text x="70.333858" y="78.876622" fill="rgb(102,102,102)"  stroke="rgb(102,102,102)" stroke-width="1" font-size="16" >C</text>
<text x="266.990906" y="169.855302" fill="rgb(12,12,255)"  stroke="rgb(12,12,255)" stroke-width="1" font-size="16" >N</text>
<text x="266.990906" y="127.819792" fill="rgb(12,12,255)"  stroke="rgb(12,12,255)" stroke-width="1" font-size="16" >N</text>
<text x="214.385177" y="116.485281" fill="rgb(102,102,102)"  stroke="rgb(102,102,102)" stroke-width="1" font-size="16" >CH</text>
<text x="238.385177" y="120.165281" fill="rgb(102,102,102)"  stroke="rgb(102,102,102)" stroke-width="1" font-size="13" >3</text>
<text x="212.385177" y="181.189813" fill="rgb(191,191,191)"  stroke="rgb(191,191,191)" stroke-width="1" font-size="16" >H</text>
<text x="157.064429" y="149.250364" fill="rgb(191,191,191)"  stroke="rgb(191,191,191)" stroke-width="1" font-size="16" >H</text>
<text x="232.017126" y="105.976404" fill="rgb(191,191,191)"  stroke="rgb(191,191,191)" stroke-width="1" font-size="16" >H</text>
<text x="165.059664" y="77.376231" fill="rgb(191,191,191)"  stroke="rgb(191,191,191)" stroke-width="1" font-size="16" >H</text>
<text x="186.903052" y="77.376231" fill="rgb(255,12,12)"  stroke="rgb(255,12,12)" stroke-width="1" font-size="16" >OH</text>
<text x="177.548461" y="66.892181" fill="rgb(102,102,102)"  stroke="rgb(102,102,102)" stroke-width="1" font-size="16" >CH</text>
<text x="201.548461" y="70.572181" fill="rgb(102,102,102)"  stroke="rgb(102,102,102)" stroke-width="1" font-size="13" >3</text>
<text x="112.597228" y="134.982587" fill="rgb(191,191,191)"  stroke="rgb(191,191,191)" stroke-width="1" font-size="16" >H</text>
<text x="105.447377" y="110.816071" fill="rgb(255,12,12)"  stroke="rgb(255,12,12)" stroke-width="1" font-size="16" >O</text>
<text x="150.629597" y="82.635522" fill="rgb(255,12,12)"  stroke="rgb(255,12,12)" stroke-width="1" font-size="16" >OH</text>
<text x="141.669251" y="68.687393" fill="rgb(191,191,191)"  stroke="rgb(191,191,191)" stroke-width="1" font-size="16" >H</text>
<text x="100.894954" y="61.937415" fill="rgb(102,102,102)"  stroke="rgb(102,102,102)" stroke-width="1" font-size="16" >H</text>
<text x="112.894954" y="65.617415" fill="rgb(102,102,102)"  stroke="rgb(102,102,102)" stroke-width="1" font-size="13" >3</text>
<text x="119.394954" y="61.937415" fill="rgb(102,102,102)"  stroke="rgb(102,102,102)" stroke-width="1" font-size="16" >C</text>
<text x="84.673080" y="96.548295" fill="rgb(255,12,12)"  stroke="rgb(255,12,12)" stroke-width="1" font-size="16" >O</text>
<text x="127.171105" y="65.671672" fill="rgb(191,191,191)"  stroke="rgb(191,191,191)" stroke-width="1" font-size="16" >H</text>
<text x="114.331883" y="48.000000" fill="rgb(255,12,12)"  stroke="rgb(255,12,12)" stroke-width="1" font-size="16" >OH</text>
<text x="32.916929" y="67.954928" fill="rgb(102,102,102)"  stroke="rgb(102,102,102)" stroke-width="1" font-size="16" >H</text>
<text x="44.916929" y="71.634928" fill="rgb(102,102,102)"  stroke="rgb(102,102,102)" stroke-width="1" font-size="13" >3</text>
<text x="51.416929" y="67.954928" fill="rgb(102,102,102)"  stroke="rgb(102,102,102)" stroke-width="1" font-size="16" >C</text>
<text x="22.000000" y="78.876622" fill="rgb(255,12,12)"  stroke="rgb(255,12,12)" stroke-width="1" font-size="16" >HO</text>
<text font-size="18.000000" fill ="black" font-family="sans-serif"
x="10.000000" y="20.000000" ></text>
<title> - OBDepict</title>
</svg>
