<?xml version="1.0"?>
<svg xmlns="http://www.w3.org/2000/svg"
xmlns:xlink="http://www.w3.org/1999/xlink" xmlns:cml="http://www.xml-cml.org/schema" width="360.05" height="283.581" x="0" y="0" font-family="sans-serif" stroke="rgb(0,0,0)" stroke-width="1"  stroke-linecap="round">
<rect x="0%" y="0%" width="100%" height="100%" stroke-width="0" fill="rgb(255,255,255)"  />
<line x1="255.1" y1="91.8" x2="255.1" y2="129.3" stroke="rgb(0,0,0)"  stroke-width="1.0"/>
<line x1="247.9" y1="97.8" x2="247.9" y2="123.3" stroke="rgb(0,0,0)"  stroke-width="1.0"/>
<line x1="255.1" y1="129.3" x2="222.6" y2="148.0" stroke="rgb(0,0,0)"  stroke-width="1.0"/>
<line x1="222.6" y1="148.0" x2="190.1" y2="129.3" stroke="rgb(0,0,0)"  stroke-width="1.0"/>
<line x1="221.0" y1="138.8" x2="198.9" y2="126.0" stroke="rgb(0,0,0)"  stroke-width="1.0"/>
<line x1="190.1" y1="129.3" x2="190.1" y2="91.8" stroke="rgb(0,0,0)"  stroke-width="1.0"/>
<line x1="190.1" y1="91.8" x2="255.1" y2="91.8" stroke="rgb(0,0,0)"  stroke-width="1.0"/>
<line x1="167.8" y1="199.0" x2="191.3" y2="176.4" stroke="rgb(0,0,0)"  stroke-width="1.0"/>
<line x1="191.3" y1="176.4" x2="222.6" y2="185.5" stroke="rgb(0,0,0)"  stroke-width="1.0"/>
<line x1="222.6" y1="185.5" x2="190.1" y2="204.3" stroke="rgb(0,0,0)"  stroke-width="1.0"/>
<line x1="213.8" y1="182.3" x2="191.7" y2="195.0" stroke="rgb(0,0,0)"  stroke-width="1.0"/>
<line x1="190.1" y1="204.3" x2="175.5" y2="230.6" stroke="rgb(0,0,0)"  stroke-width="1.0"/>
<line x1="175.5" y1="230.6" x2="167.8" y2="199.0" stroke="rgb(0,0,0)"  stroke-width="1.0"/>
<line x1="181.1" y1="223.1" x2="176.2" y2="203.1" stroke="rgb(0,0,0)"  stroke-width="1.0"/>
<line x1="108.9" y1="157.4" x2="125.2" y2="185.5" stroke="rgb(0,0,0)"  stroke-width="1.0"/>
<line x1="118.2" y1="159.0" x2="128.4" y2="176.7" stroke="rgb(0,0,0)"  stroke-width="1.0"/>
<line x1="125.2" y1="185.5" x2="157.6" y2="185.5" stroke="rgb(0,0,0)"  stroke-width="1.0"/>
<line x1="157.6" y1="185.5" x2="157.6" y2="148.0" stroke="rgb(0,0,0)"  stroke-width="1.0"/>
<line x1="150.4" y1="179.5" x2="150.4" y2="154.0" stroke="rgb(0,0,0)"  stroke-width="1.0"/>
<line x1="157.6" y1="148.0" x2="125.2" y2="129.3" stroke="rgb(0,0,0)"  stroke-width="1.0"/>
<line x1="125.2" y1="129.3" x2="108.9" y2="157.4" stroke="rgb(0,0,0)"  stroke-width="1.0"/>
<line x1="47.0" y1="155.9" x2="40.0" y2="125.2" stroke="rgb(0,0,0)"  stroke-width="1.0"/>
<line x1="52.7" y1="148.5" x2="48.3" y2="129.4" stroke="rgb(0,0,0)"  stroke-width="1.0"/>
<line x1="40.0" y1="125.2" x2="63.1" y2="103.8" stroke="rgb(0,0,0)"  stroke-width="1.0"/>
<line x1="63.1" y1="103.8" x2="93.2" y2="113.1" stroke="rgb(0,0,0)"  stroke-width="1.0"/>
<line x1="66.7" y1="112.4" x2="85.4" y2="118.2" stroke="rgb(0,0,0)"  stroke-width="1.0"/>
<line x1="93.2" y1="113.1" x2="81.2" y2="140.1" stroke="rgb(0,0,0)"  stroke-width="1.0"/>
<line x1="81.2" y1="140.1" x2="47.0" y2="155.9" stroke="rgb(0,0,0)"  stroke-width="1.0"/>
<line x1="123.6" y1="172.8" x2="171.0" y2="189.1" stroke="rgb(0,0,0)"  stroke-width="1.0"/>
<line x1="171.0" y1="189.1" x2="208.8" y2="156.1" stroke="rgb(0,0,0)"  stroke-width="1.0"/>
<line x1="208.8" y1="156.1" x2="172.3" y2="106.0" stroke="rgb(0,0,0)"  stroke-width="1.0"/>
<line x1="199.4" y1="155.5" x2="170.0" y2="115.1" stroke="rgb(0,0,0)"  stroke-width="1.0"/>
<line x1="172.3" y1="106.0" x2="109.6" y2="139.7" stroke="rgb(0,0,0)"  stroke-width="1.0"/>
<line x1="109.6" y1="139.7" x2="123.6" y2="172.8" stroke="rgb(0,0,0)"  stroke-width="1.0"/>
<line x1="118.6" y1="142.4" x2="127.9" y2="164.5" stroke="rgb(0,0,0)"  stroke-width="1.0"/>
<line x1="126.4" y1="226.3" x2="132.1" y2="222.5" stroke="rgb(0,0,0)"  stroke-width="1.0"/>
<line x1="135.4" y1="229.0" x2="131.1" y2="231.8" stroke="rgb(0,0,0)"  stroke-width="1.0"/>
<line x1="132.1" y1="222.5" x2="145.9" y2="235.6" stroke="rgb(0,0,0)"  stroke-width="1.0"/>
<line x1="145.9" y1="235.6" x2="123.5" y2="215.5" stroke="rgb(0,0,0)"  stroke-width="1.0"/>
<line x1="136.6" y1="237.0" x2="123.1" y2="224.9" stroke="rgb(0,0,0)"  stroke-width="1.0"/>
<line x1="123.5" y1="215.5" x2="121.0" y2="222.0" stroke="rgb(0,0,0)"  stroke-width="1.0"/>
<line x1="121.0" y1="222.0" x2="126.4" y2="226.3" stroke="rgb(0,0,0)"  stroke-width="1.0"/>
<line x1="200.4" y1="152.9" x2="184.1" y2="160.1" stroke="rgb(0,0,0)"  stroke-width="1.0"/>
<line x1="184.1" y1="160.1" x2="287.6" y2="148.0" stroke="rgb(0,0,0)"  stroke-width="1.0"/>
<line x1="287.6" y1="148.0" x2="320.0" y2="129.3" stroke="rgb(0,0,0)"  stroke-width="1.0"/>
<line x1="289.2" y1="138.8" x2="311.2" y2="126.1" stroke="rgb(0,0,0)"  stroke-width="1.0"/>
<line x1="320.0" y1="129.3" x2="270.0" y2="165.8" stroke="rgb(0,0,0)"  stroke-width="1.0"/>
<line x1="270.0" y1="165.8" x2="200.4" y2="152.9" stroke="rgb(0,0,0)"  stroke-width="1.0"/>
<line x1="265.4" y1="157.6" x2="207.6" y2="146.9" stroke="rgb(0,0,0)"  stroke-width="1.0"/>
<line x1="90.0" y1="211.1" x2="84.0" y2="178.8" stroke="rgb(0,0,0)"  stroke-width="1.0"/>
<line x1="84.0" y1="178.8" x2="125.7" y2="169.0" stroke="rgb(0,0,0)"  stroke-width="1.0"/>
<line x1="91.5" y1="184.4" x2="121.5" y2="177.3" stroke="rgb(0,0,0)"  stroke-width="1.0"/>
<line x1="125.7" y1="169.0" x2="98.6" y2="164.0" stroke="rgb(0,0,0)"  stroke-width="1.0"/>
<line x1="98.6" y1="164.0" x2="80.7" y2="185.1" stroke="rgb(0,0,0)"  stroke-width="1.0"/>
<line x1="80.7" y1="185.1" x2="90.0" y2="211.1" stroke="rgb(0,0,0)"  stroke-width="1.0"/>
<line x1="144.0" y1="130.2" x2="122.7" y2="110.0" stroke="rgb(0,0,0)"  stroke-width="1.0"/>
<line x1="144.6" y1="120.9" x2="132.0" y2="108.9" stroke="rgb(0,0,0)"  stroke-width="1.0"/>
<line x1="122.7" y1="110.0" x2="129.5" y2="81.4" stroke="rgb(0,0,0)"  stroke-width="1.0"/>
<line x1="129.5" y1="81.4" x2="157.7" y2="73.0" stroke="rgb(0,0,0)"  stroke-width="1.0"/>
<line x1="157.7" y1="73.0" x2="125.2" y2="91.7" stroke="rgb(0,0,0)"  stroke-width="1.0"/>
<line x1="125.2" y1="91.7" x2="144.0" y2="130.2" stroke="rgb(0,0,0)"  stroke-width="1.0"/>
<line x1="70.0" y1="69.4" x2="198.7" y2="40.0" stroke="rgb(0,0,0)"  stroke-width="1.0"/>
<line x1="77.5" y1="75.1" x2="194.4" y2="48.4" stroke="rgb(0,0,0)"  stroke-width="1.0"/>
<line x1="198.7" y1="40.0" x2="320.1" y2="91.8" stroke="rgb(0,0,0)"  stroke-width="1.0"/>
<line x1="320.1" y1="91.8" x2="287.6" y2="73.0" stroke="rgb(0,0,0)"  stroke-width="1.0"/>
<line x1="311.3" y1="95.0" x2="289.2" y2="82.3" stroke="rgb(0,0,0)"  stroke-width="1.0"/>
<line x1="287.6" y1="73.0" x2="103.2" y2="58.3" stroke="rgb(0,0,0)"  stroke-width="1.0"/>
<line x1="103.2" y1="58.3" x2="70.0" y2="69.4" stroke="rgb(0,0,0)"  stroke-width="1.0"/>
<line x1="74.3" y1="215.2" x2="43.5" y2="193.4" stroke="rgb(0,0,0)"  stroke-width="1.0"/>
<line x1="43.5" y1="193.4" x2="96.4" y2="196.4" stroke="rgb(0,0,0)"  stroke-width="1.0"/>
<line x1="49.1" y1="201.0" x2="90.0" y2="203.2" stroke="rgb(0,0,0)"  stroke-width="1.0"/>
<line x1="96.4" y1="196.4" x2="120.3" y2="243.6" stroke="rgb(0,0,0)"  stroke-width="1.0"/>
<line x1="120.3" y1="243.6" x2="97.2" y2="235.7" stroke="rgb(0,0,0)"  stroke-width="1.0"/>
<line x1="116.9" y1="234.8" x2="105.2" y2="230.9" stroke="rgb(0,0,0)"  stroke-width="1.0"/>
<line x1="97.2" y1="235.7" x2="74.3" y2="215.2" stroke="rgb(0,0,0)"  stroke-width="1.0"/>
<line x1="140.9" y1="196.5" x2="147.0" y2="199.2" stroke="rgb(0,0,0)"  stroke-width="1.0"/>
<line x1="147.0" y1="199.2" x2="149.7" y2="193.1" stroke="rgb(0,0,0)"  stroke-width="1.0"/>
<line x1="142.8" y1="190.8" x2="140.7" y2="195.7" stroke="rgb(0,0,0)"  stroke-width="1.0"/>
<line x1="149.7" y1="193.1" x2="133.9" y2="203.5" stroke="rgb(0,0,0)"  stroke-width="1.0"/>
<line x1="133.9" y1="203.5" x2="138.6" y2="227.5" stroke="rgb(0,0,0)"  stroke-width="1.0"/>
<line x1="142.1" y1="208.0" x2="144.5" y2="220.2" stroke="rgb(0,0,0)"  stroke-width="1.0"/>
<line x1="138.6" y1="227.5" x2="140.9" y2="196.5" stroke="rgb(0,0,0)"  stroke-width="1.0"/>
<line x1="287.6" y1="73.0" x2="255.1" y2="91.8" stroke="rgb(0,0,0)"  stroke-width="1.0"/>
<line x1="190.1" y1="91.8" x2="157.7" y2="73.0" stroke="rgb(0,0,0)"  stroke-width="1.0"/>
<line x1="188.5" y1="82.5" x2="166.5" y2="69.8" stroke="rgb(0,0,0)"  stroke-width="1.0"/>
<line x1="129.5" y1="81.4" x2="103.2" y2="58.3" stroke="rgb(0,0,0)"  stroke-width="1.0"/>
<line x1="129.7" y1="72.0" x2="112.5" y2="56.8" stroke="rgb(0,0,0)"  stroke-width="1.0"/>
<line x1="287.6" y1="148.0" x2="255.1" y2="129.3" stroke="rgb(0,0,0)"  stroke-width="1.0"/>
<line x1="320.1" y1="91.8" x2="320.0" y2="129.3" stroke="rgb(0,0,0)"  stroke-width="1.0"/>
<line x1="222.6" y1="185.5" x2="222.6" y2="148.0" stroke="rgb(0,0,0)"  stroke-width="1.0"/>
<line x1="190.1" y1="129.3" x2="157.6" y2="148.0" stroke="rgb(0,0,0)"  stroke-width="1.0"/>
<line x1="157.6" y1="185.5" x2="190.1" y2="204.3" stroke="rgb(0,0,0)"  stroke-width="1.0"/>
<line x1="63.1" y1="103.8" x2="70.0" y2="69.4" stroke="rgb(0,0,0)"  stroke-width="1.0"/>
<line x1="122.7" y1="110.0" x2="93.2" y2="113.1" stroke="rgb(0,0,0)"  stroke-width="1.0"/>
<line x1="208.8" y1="156.1" x2="270.0" y2="165.8" stroke="rgb(0,0,0)"  stroke-width="1.0"/>
<line x1="198.7" y1="40.0" x2="172.3" y2="106.0" stroke="rgb(0,0,0)"  stroke-width="1.0"/>
<line x1="145.9" y1="235.6" x2="175.5" y2="230.6" stroke="rgb(0,0,0)"  stroke-width="1.0"/>
<line x1="125.2" y1="185.5" x2="123.5" y2="215.5" stroke="rgb(0,0,0)"  stroke-width="1.0"/>
<line x1="184.1" y1="160.1" x2="191.3" y2="176.4" stroke="rgb(0,0,0)"  stroke-width="1.0"/>
<line x1="193.1" y1="162.7" x2="195.5" y2="168.0" stroke="rgb(0,0,0)"  stroke-width="1.0"/>
<line x1="125.2" y1="129.3" x2="125.2" y2="91.7" stroke="rgb(0,0,0)"  stroke-width="1.0"/>
<line x1="132.4" y1="123.3" x2="132.4" y2="97.7" stroke="rgb(0,0,0)"  stroke-width="1.0"/>
<line x1="125.7" y1="169.0" x2="144.0" y2="130.2" stroke="rgb(0,0,0)"  stroke-width="1.0"/>
<line x1="81.2" y1="140.1" x2="98.6" y2="164.0" stroke="rgb(0,0,0)"  stroke-width="1.0"/>
<line x1="90.5" y1="140.7" x2="100.9" y2="155.0" stroke="rgb(0,0,0)"  stroke-width="1.0"/>
<line x1="109.6" y1="139.7" x2="40.0" y2="125.2" stroke="rgb(0,0,0)"  stroke-width="1.0"/>
<line x1="132.1" y1="222.5" x2="133.9" y2="203.5" stroke="rgb(0,0,0)"  stroke-width="1.0"/>
<line x1="149.7" y1="193.1" x2="167.8" y2="199.0" stroke="rgb(0,0,0)"  stroke-width="1.0"/>
<line x1="147.0" y1="199.2" x2="200.4" y2="152.9" stroke="rgb(0,0,0)"  stroke-width="1.0"/>
<line x1="90.0" y1="211.1" x2="121.0" y2="222.0" stroke="rgb(0,0,0)"  stroke-width="1.0"/>
<line x1="98.1" y1="206.3" x2="117.8" y2="213.2" stroke="rgb(0,0,0)"  stroke-width="1.0"/>
<line x1="108.9" y1="157.4" x2="84.0" y2="178.8" stroke="rgb(0,0,0)"  stroke-width="1.0"/>
<line x1="138.6" y1="227.5" x2="120.3" y2="243.6" stroke="rgb(0,0,0)"  stroke-width="1.0"/>
<line x1="96.4" y1="196.4" x2="123.6" y2="172.8" stroke="rgb(0,0,0)"  stroke-width="1.0"/>
<line x1="171.0" y1="189.1" x2="140.9" y2="196.5" stroke="rgb(0,0,0)"  stroke-width="1.0"/>
<line x1="166.9" y1="197.5" x2="148.4" y2="202.1" stroke="rgb(0,0,0)"  stroke-width="1.0"/>
<line x1="80.7" y1="185.1" x2="74.3" y2="215.2" stroke="rgb(0,0,0)"  stroke-width="1.0"/>
<line x1="86.5" y1="192.5" x2="82.6" y2="210.8" stroke="rgb(0,0,0)"  stroke-width="1.0"/>
<line x1="97.2" y1="235.7" x2="126.4" y2="226.3" stroke="rgb(0,0,0)"  stroke-width="1.0"/>
<line x1="47.0" y1="155.9" x2="43.5" y2="193.4" stroke="rgb(0,0,0)"  stroke-width="1.0"/>
<text font-size="18.000000" fill ="black" font-family="sans-serif"
x="10.000000" y="20.000000" ></text>
<title> - OBDepict</title>
</svg>
