<?xml version="1.0"?>
<svg xmlns="http://www.w3.org/2000/svg"
xmlns:xlink="http://www.w3.org/1999/xlink" xmlns:cml="http://www.xml-cml.org/schema" width="935.758" height="490.869" x="0" y="0" font-family="sans-serif" stroke="rgb(0,0,0)" stroke-width="1"  stroke-linecap="round">
<rect x="0%" y="0%" width="100%" height="100%" stroke-width="0" fill="rgb(255,255,255)"  />
<line x1="723.8" y1="433.2" x2="741.3" y2="413.7" stroke="rgb(0,0,0)"  stroke-width="1.0"/>
<line x1="743.7" y1="418.4" x2="742.1" y2="418.9" stroke="rgb(0,0,0)"  stroke-width="1.0"/>
<line x1="745.6" y1="422.2" x2="742.8" y2="423.1" stroke="rgb(0,0,0)"  stroke-width="1.0"/>
<line x1="747.5" y1="426.0" x2="743.5" y2="427.3" stroke="rgb(0,0,0)"  stroke-width="1.0"/>
<line x1="749.4" y1="429.8" x2="744.2" y2="431.5" stroke="rgb(0,0,0)"  stroke-width="1.0"/>
<line x1="751.3" y1="433.6" x2="744.9" y2="435.7" stroke="rgb(0,0,0)"  stroke-width="1.0"/>
<line x1="753.2" y1="437.3" x2="745.7" y2="439.9" stroke="rgb(0,0,0)"  stroke-width="1.0"/>
<line x1="796.6" y1="375.5" x2="796.5" y2="373.9" stroke="rgb(0,0,0)"  stroke-width="1.0"/>
<line x1="792.6" y1="376.6" x2="792.2" y2="373.8" stroke="rgb(0,0,0)"  stroke-width="1.0"/>
<line x1="788.5" y1="377.8" x2="788.0" y2="373.7" stroke="rgb(0,0,0)"  stroke-width="1.0"/>
<line x1="784.4" y1="378.9" x2="783.7" y2="373.5" stroke="rgb(0,0,0)"  stroke-width="1.0"/>
<line x1="780.3" y1="380.1" x2="779.5" y2="373.4" stroke="rgb(0,0,0)"  stroke-width="1.0"/>
<line x1="776.2" y1="381.2" x2="775.2" y2="373.3" stroke="rgb(0,0,0)"  stroke-width="1.0"/>
<polygon points="794.482575 335.617764 770.094947 346.054417 768.092484 338.309087 " stroke-width="1.000000" fill="rgb(0,0,0)"  stroke="rgb(0,0,0)" />
<line x1="856.7" y1="340.7" x2="882.4" y2="335.8" stroke="rgb(0,0,0)"  stroke-width="1.0"/>
<line x1="857.9" y1="346.6" x2="883.5" y2="341.7" stroke="rgb(0,0,0)"  stroke-width="1.0"/>
<polygon points="723.686327 320.846079 729.150406 346.804198 721.162991 347.252762 " stroke-width="1.000000" fill="rgb(0,0,0)"  stroke="rgb(0,0,0)" />
<polygon points="667.673868 282.657431 644.724319 295.961504 641.801591 288.514514 " stroke-width="1.000000" fill="rgb(0,0,0)"  stroke="rgb(0,0,0)" />
<line x1="644.8" y1="309.8" x2="646.4" y2="309.8" stroke="rgb(0,0,0)"  stroke-width="1.0"/>
<line x1="644.2" y1="305.6" x2="647.1" y2="305.6" stroke="rgb(0,0,0)"  stroke-width="1.0"/>
<line x1="643.5" y1="301.4" x2="647.7" y2="301.4" stroke="rgb(0,0,0)"  stroke-width="1.0"/>
<line x1="642.9" y1="297.2" x2="648.3" y2="297.2" stroke="rgb(0,0,0)"  stroke-width="1.0"/>
<line x1="642.3" y1="293.0" x2="649.0" y2="293.0" stroke="rgb(0,0,0)"  stroke-width="1.0"/>
<line x1="641.6" y1="288.8" x2="649.6" y2="288.8" stroke="rgb(0,0,0)"  stroke-width="1.0"/>
<polygon points="579.973485 289.229666 553.517228 287.294066 555.297395 279.494642 " stroke-width="1.000000" fill="rgb(0,0,0)"  stroke="rgb(0,0,0)" />
<line x1="588.6" y1="246.0" x2="589.8" y2="247.0" stroke="rgb(0,0,0)"  stroke-width="1.0"/>
<line x1="590.8" y1="242.4" x2="593.0" y2="244.3" stroke="rgb(0,0,0)"  stroke-width="1.0"/>
<line x1="593.1" y1="238.8" x2="596.2" y2="241.5" stroke="rgb(0,0,0)"  stroke-width="1.0"/>
<line x1="595.3" y1="235.2" x2="599.4" y2="238.7" stroke="rgb(0,0,0)"  stroke-width="1.0"/>
<line x1="597.5" y1="231.6" x2="602.6" y2="235.9" stroke="rgb(0,0,0)"  stroke-width="1.0"/>
<line x1="599.7" y1="228.0" x2="605.8" y2="233.1" stroke="rgb(0,0,0)"  stroke-width="1.0"/>
<polygon points="619.703016 230.957148 594.625607 239.606061 593.187493 231.736384 " stroke-width="1.000000" fill="rgb(0,0,0)"  stroke="rgb(0,0,0)" />
<polygon points="522.103235 174.607888 529.599082 200.053761 521.671989 201.131353 " stroke-width="1.000000" fill="rgb(0,0,0)"  stroke="rgb(0,0,0)" />
<line x1="522.0" y1="208.4" x2="523.6" y2="208.7" stroke="rgb(0,0,0)"  stroke-width="1.0"/>
<line x1="521.9" y1="204.2" x2="524.8" y2="204.6" stroke="rgb(0,0,0)"  stroke-width="1.0"/>
<line x1="521.9" y1="200.0" x2="526.0" y2="200.5" stroke="rgb(0,0,0)"  stroke-width="1.0"/>
<line x1="521.8" y1="195.7" x2="527.2" y2="196.4" stroke="rgb(0,0,0)"  stroke-width="1.0"/>
<line x1="521.7" y1="191.5" x2="528.4" y2="192.4" stroke="rgb(0,0,0)"  stroke-width="1.0"/>
<line x1="521.7" y1="187.2" x2="529.6" y2="188.3" stroke="rgb(0,0,0)"  stroke-width="1.0"/>
<line x1="434.5" y1="166.6" x2="435.6" y2="167.8" stroke="rgb(0,0,0)"  stroke-width="1.0"/>
<line x1="439.9" y1="160.2" x2="442.0" y2="162.3" stroke="rgb(0,0,0)"  stroke-width="1.0"/>
<line x1="445.4" y1="153.9" x2="448.4" y2="156.8" stroke="rgb(0,0,0)"  stroke-width="1.0"/>
<line x1="450.9" y1="147.5" x2="454.8" y2="151.3" stroke="rgb(0,0,0)"  stroke-width="1.0"/>
<line x1="456.4" y1="141.1" x2="461.1" y2="145.8" stroke="rgb(0,0,0)"  stroke-width="1.0"/>
<line x1="461.9" y1="134.7" x2="467.5" y2="140.4" stroke="rgb(0,0,0)"  stroke-width="1.0"/>
<polygon points="455.287443 146.931881 421.030020 186.846158 415.373166 181.189304 " stroke-width="1.000000" fill="rgb(0,0,0)"  stroke="rgb(0,0,0)" />
<polygon points="360.795643 107.792096 379.933007 126.161675 373.586180 131.031767 " stroke-width="1.000000" fill="rgb(0,0,0)"  stroke="rgb(0,0,0)" />
<line x1="293.8" y1="152.2" x2="292.2" y2="152.2" stroke="rgb(0,0,0)"  stroke-width="1.0"/>
<line x1="294.4" y1="156.4" x2="291.6" y2="156.4" stroke="rgb(0,0,0)"  stroke-width="1.0"/>
<line x1="295.1" y1="160.6" x2="290.9" y2="160.6" stroke="rgb(0,0,0)"  stroke-width="1.0"/>
<line x1="295.7" y1="164.8" x2="290.3" y2="164.8" stroke="rgb(0,0,0)"  stroke-width="1.0"/>
<line x1="296.4" y1="169.0" x2="289.6" y2="169.0" stroke="rgb(0,0,0)"  stroke-width="1.0"/>
<line x1="297.0" y1="173.2" x2="289.0" y2="173.2" stroke="rgb(0,0,0)"  stroke-width="1.0"/>
<polygon points="293.003547 107.792096 289.003547 81.568440 297.003547 81.568440 " stroke-width="1.000000" fill="rgb(0,0,0)"  stroke="rgb(0,0,0)" />
<polygon points="225.211451 107.792096 221.211451 81.568440 229.211451 81.568440 " stroke-width="1.000000" fill="rgb(0,0,0)"  stroke="rgb(0,0,0)" />
<line x1="226.0" y1="152.2" x2="224.4" y2="152.2" stroke="rgb(0,0,0)"  stroke-width="1.0"/>
<line x1="226.7" y1="156.4" x2="223.8" y2="156.4" stroke="rgb(0,0,0)"  stroke-width="1.0"/>
<line x1="227.3" y1="160.6" x2="223.1" y2="160.6" stroke="rgb(0,0,0)"  stroke-width="1.0"/>
<line x1="227.9" y1="164.8" x2="222.5" y2="164.8" stroke="rgb(0,0,0)"  stroke-width="1.0"/>
<line x1="228.6" y1="169.0" x2="221.9" y2="169.0" stroke="rgb(0,0,0)"  stroke-width="1.0"/>
<line x1="229.2" y1="173.2" x2="221.2" y2="173.2" stroke="rgb(0,0,0)"  stroke-width="1.0"/>
<line x1="189.4" y1="171.4" x2="188.0" y2="170.6" stroke="rgb(0,0,0)"  stroke-width="1.0"/>
<line x1="187.8" y1="175.4" x2="185.3" y2="174.0" stroke="rgb(0,0,0)"  stroke-width="1.0"/>
<line x1="186.3" y1="179.4" x2="182.7" y2="177.3" stroke="rgb(0,0,0)"  stroke-width="1.0"/>
<line x1="184.8" y1="183.3" x2="180.0" y2="180.6" stroke="rgb(0,0,0)"  stroke-width="1.0"/>
<line x1="183.2" y1="187.3" x2="177.4" y2="183.9" stroke="rgb(0,0,0)"  stroke-width="1.0"/>
<line x1="181.7" y1="191.2" x2="174.7" y2="187.2" stroke="rgb(0,0,0)"  stroke-width="1.0"/>
<line x1="154.1" y1="103.7" x2="155.5" y2="102.9" stroke="rgb(0,0,0)"  stroke-width="1.0"/>
<line x1="151.5" y1="100.3" x2="153.9" y2="98.9" stroke="rgb(0,0,0)"  stroke-width="1.0"/>
<line x1="148.8" y1="97.0" x2="152.4" y2="94.9" stroke="rgb(0,0,0)"  stroke-width="1.0"/>
<line x1="146.1" y1="93.7" x2="150.9" y2="91.0" stroke="rgb(0,0,0)"  stroke-width="1.0"/>
<line x1="143.5" y1="90.4" x2="149.3" y2="87.0" stroke="rgb(0,0,0)"  stroke-width="1.0"/>
<line x1="140.8" y1="87.1" x2="147.8" y2="83.1" stroke="rgb(0,0,0)"  stroke-width="1.0"/>
<line x1="157.4" y1="107.8" x2="118.3" y2="107.8" stroke="rgb(0,0,0)"  stroke-width="1.0"/>
<line x1="118.3" y1="107.8" x2="98.7" y2="73.9" stroke="rgb(0,0,0)"  stroke-width="1.0"/>
<line x1="96.1" y1="72.4" x2="109.2" y2="49.8" stroke="rgb(0,0,0)"  stroke-width="1.0"/>
<line x1="101.3" y1="75.4" x2="114.4" y2="52.8" stroke="rgb(0,0,0)"  stroke-width="1.0"/>
<line x1="98.7" y1="73.9" x2="59.6" y2="73.9" stroke="rgb(0,0,0)"  stroke-width="1.0"/>
<line x1="57.0" y1="75.4" x2="43.9" y2="52.8" stroke="rgb(0,0,0)"  stroke-width="1.0"/>
<line x1="62.2" y1="72.4" x2="49.1" y2="49.8" stroke="rgb(0,0,0)"  stroke-width="1.0"/>
<line x1="191.3" y1="166.5" x2="204.4" y2="189.1" stroke="rgb(0,0,0)"  stroke-width="1.0"/>
<line x1="363.4" y1="142.3" x2="364.6" y2="143.3" stroke="rgb(0,0,0)"  stroke-width="1.0"/>
<line x1="365.4" y1="138.6" x2="367.7" y2="140.3" stroke="rgb(0,0,0)"  stroke-width="1.0"/>
<line x1="367.4" y1="134.8" x2="370.7" y2="137.4" stroke="rgb(0,0,0)"  stroke-width="1.0"/>
<line x1="369.5" y1="131.1" x2="373.8" y2="134.4" stroke="rgb(0,0,0)"  stroke-width="1.0"/>
<line x1="371.5" y1="127.4" x2="376.9" y2="131.5" stroke="rgb(0,0,0)"  stroke-width="1.0"/>
<line x1="373.6" y1="123.7" x2="379.9" y2="128.6" stroke="rgb(0,0,0)"  stroke-width="1.0"/>
<line x1="580.0" y1="289.2" x2="562.2" y2="308.4" stroke="rgb(0,0,0)"  stroke-width="1.0"/>
<line x1="706.4" y1="350.8" x2="706.9" y2="352.3" stroke="rgb(0,0,0)"  stroke-width="1.0"/>
<line x1="710.2" y1="348.9" x2="711.1" y2="351.6" stroke="rgb(0,0,0)"  stroke-width="1.0"/>
<line x1="713.9" y1="346.9" x2="715.2" y2="350.9" stroke="rgb(0,0,0)"  stroke-width="1.0"/>
<line x1="717.7" y1="345.0" x2="719.4" y2="350.2" stroke="rgb(0,0,0)"  stroke-width="1.0"/>
<line x1="721.5" y1="343.1" x2="723.6" y2="349.5" stroke="rgb(0,0,0)"  stroke-width="1.0"/>
<line x1="725.3" y1="341.2" x2="727.8" y2="348.8" stroke="rgb(0,0,0)"  stroke-width="1.0"/>
<line x1="801.8" y1="374.1" x2="794.5" y2="335.6" stroke="rgb(0,0,0)"  stroke-width="1.0"/>
<line x1="794.5" y1="335.6" x2="828.8" y2="316.8" stroke="rgb(0,0,0)"  stroke-width="1.0"/>
<line x1="828.8" y1="316.8" x2="857.3" y2="343.6" stroke="rgb(0,0,0)"  stroke-width="1.0"/>
<line x1="857.3" y1="343.6" x2="846.1" y2="367.3" stroke="rgb(0,0,0)"  stroke-width="1.0"/>
<line x1="827.7" y1="377.4" x2="801.8" y2="374.1" stroke="rgb(0,0,0)"  stroke-width="1.0"/>
<line x1="645.6" y1="315.0" x2="657.0" y2="338.5" stroke="rgb(0,0,0)"  stroke-width="1.0"/>
<line x1="675.6" y1="351.2" x2="701.6" y2="353.2" stroke="rgb(0,0,0)"  stroke-width="1.0"/>
<line x1="701.6" y1="353.2" x2="723.7" y2="320.8" stroke="rgb(0,0,0)"  stroke-width="1.0"/>
<line x1="723.7" y1="320.8" x2="706.7" y2="285.6" stroke="rgb(0,0,0)"  stroke-width="1.0"/>
<line x1="706.7" y1="285.6" x2="667.7" y2="282.7" stroke="rgb(0,0,0)"  stroke-width="1.0"/>
<line x1="667.7" y1="282.7" x2="645.6" y2="315.0" stroke="rgb(0,0,0)"  stroke-width="1.0"/>
<line x1="293.0" y1="107.8" x2="315.6" y2="94.7" stroke="rgb(0,0,0)"  stroke-width="1.0"/>
<line x1="338.2" y1="94.7" x2="360.8" y2="107.8" stroke="rgb(0,0,0)"  stroke-width="1.0"/>
<line x1="360.8" y1="107.8" x2="360.8" y2="146.9" stroke="rgb(0,0,0)"  stroke-width="1.0"/>
<line x1="360.8" y1="146.9" x2="326.9" y2="166.5" stroke="rgb(0,0,0)"  stroke-width="1.0"/>
<line x1="326.9" y1="166.5" x2="293.0" y2="146.9" stroke="rgb(0,0,0)"  stroke-width="1.0"/>
<line x1="293.0" y1="146.9" x2="293.0" y2="107.8" stroke="rgb(0,0,0)"  stroke-width="1.0"/>
<line x1="225.2" y1="146.9" x2="225.2" y2="107.8" stroke="rgb(0,0,0)"  stroke-width="1.0"/>
<line x1="225.2" y1="107.8" x2="259.1" y2="88.2" stroke="rgb(0,0,0)"  stroke-width="1.0"/>
<line x1="259.1" y1="88.2" x2="293.0" y2="107.8" stroke="rgb(0,0,0)"  stroke-width="1.0"/>
<line x1="293.0" y1="146.9" x2="270.4" y2="160.0" stroke="rgb(0,0,0)"  stroke-width="1.0"/>
<line x1="247.8" y1="160.0" x2="225.2" y2="146.9" stroke="rgb(0,0,0)"  stroke-width="1.0"/>
<line x1="157.4" y1="107.8" x2="180.1" y2="94.7" stroke="rgb(0,0,0)"  stroke-width="1.0"/>
<line x1="202.6" y1="94.7" x2="225.2" y2="107.8" stroke="rgb(0,0,0)"  stroke-width="1.0"/>
<line x1="225.2" y1="146.9" x2="191.3" y2="166.5" stroke="rgb(0,0,0)"  stroke-width="1.0"/>
<line x1="191.3" y1="166.5" x2="157.4" y2="146.9" stroke="rgb(0,0,0)"  stroke-width="1.0"/>
<line x1="157.4" y1="146.9" x2="157.4" y2="107.8" stroke="rgb(0,0,0)"  stroke-width="1.0"/>
<line x1="585.8" y1="250.5" x2="580.0" y2="289.2" stroke="rgb(0,0,0)"  stroke-width="1.0"/>
<line x1="580.0" y1="289.2" x2="606.6" y2="317.9" stroke="rgb(0,0,0)"  stroke-width="1.0"/>
<line x1="606.6" y1="317.9" x2="645.6" y2="315.0" stroke="rgb(0,0,0)"  stroke-width="1.0"/>
<line x1="667.7" y1="282.7" x2="660.0" y2="257.7" stroke="rgb(0,0,0)"  stroke-width="1.0"/>
<line x1="644.0" y1="240.5" x2="619.7" y2="231.0" stroke="rgb(0,0,0)"  stroke-width="1.0"/>
<line x1="619.7" y1="231.0" x2="585.8" y2="250.5" stroke="rgb(0,0,0)"  stroke-width="1.0"/>
<line x1="741.3" y1="413.7" x2="779.7" y2="406.4" stroke="rgb(0,0,0)"  stroke-width="1.0"/>
<line x1="779.7" y1="406.4" x2="801.8" y2="374.1" stroke="rgb(0,0,0)"  stroke-width="1.0"/>
<line x1="794.5" y1="335.6" x2="772.9" y2="320.9" stroke="rgb(0,0,0)"  stroke-width="1.0"/>
<line x1="749.4" y1="316.0" x2="723.7" y2="320.8" stroke="rgb(0,0,0)"  stroke-width="1.0"/>
<line x1="701.6" y1="353.2" x2="708.9" y2="391.6" stroke="rgb(0,0,0)"  stroke-width="1.0"/>
<line x1="708.9" y1="391.6" x2="741.3" y2="413.7" stroke="rgb(0,0,0)"  stroke-width="1.0"/>
<line x1="427.6" y1="174.6" x2="427.6" y2="213.7" stroke="rgb(0,0,0)"  stroke-width="1.0"/>
<line x1="427.6" y1="213.7" x2="455.3" y2="241.4" stroke="rgb(0,0,0)"  stroke-width="1.0"/>
<line x1="436.9" y1="212.9" x2="456.1" y2="232.1" stroke="rgb(0,0,0)"  stroke-width="1.0"/>
<line x1="455.3" y1="241.4" x2="494.4" y2="241.4" stroke="rgb(0,0,0)"  stroke-width="1.0"/>
<line x1="494.4" y1="241.4" x2="522.1" y2="213.7" stroke="rgb(0,0,0)"  stroke-width="1.0"/>
<line x1="522.1" y1="213.7" x2="522.1" y2="174.6" stroke="rgb(0,0,0)"  stroke-width="1.0"/>
<line x1="522.1" y1="174.6" x2="503.6" y2="156.1" stroke="rgb(0,0,0)"  stroke-width="1.0"/>
<line x1="481.4" y1="146.9" x2="455.3" y2="146.9" stroke="rgb(0,0,0)"  stroke-width="1.0"/>
<line x1="455.3" y1="146.9" x2="427.6" y2="174.6" stroke="rgb(0,0,0)"  stroke-width="1.0"/>
<line x1="360.8" y1="146.9" x2="379.3" y2="165.4" stroke="rgb(0,0,0)"  stroke-width="1.0"/>
<line x1="401.5" y1="174.6" x2="427.6" y2="174.6" stroke="rgb(0,0,0)"  stroke-width="1.0"/>
<line x1="455.3" y1="146.9" x2="455.3" y2="107.8" stroke="rgb(0,0,0)"  stroke-width="1.0"/>
<line x1="455.3" y1="107.8" x2="427.6" y2="80.1" stroke="rgb(0,0,0)"  stroke-width="1.0"/>
<line x1="427.6" y1="80.1" x2="388.5" y2="80.1" stroke="rgb(0,0,0)"  stroke-width="1.0"/>
<line x1="388.5" y1="80.1" x2="360.8" y2="107.8" stroke="rgb(0,0,0)"  stroke-width="1.0"/>
<line x1="547.3" y1="144.6" x2="522.1" y2="174.6" stroke="rgb(0,0,0)"  stroke-width="1.0"/>
<line x1="522.1" y1="213.7" x2="538.9" y2="233.8" stroke="rgb(0,0,0)"  stroke-width="1.0"/>
<line x1="560.1" y1="246.0" x2="585.8" y2="250.5" stroke="rgb(0,0,0)"  stroke-width="1.0"/>
<line x1="619.7" y1="231.0" x2="633.1" y2="194.2" stroke="rgb(0,0,0)"  stroke-width="1.0"/>
<line x1="633.1" y1="194.2" x2="619.7" y2="157.4" stroke="rgb(0,0,0)"  stroke-width="1.0"/>
<line x1="619.7" y1="157.4" x2="585.8" y2="137.8" stroke="rgb(0,0,0)"  stroke-width="1.0"/>
<line x1="610.9" y1="160.6" x2="587.4" y2="147.1" stroke="rgb(0,0,0)"  stroke-width="1.0"/>
<line x1="585.8" y1="137.8" x2="547.3" y2="144.6" stroke="rgb(0,0,0)"  stroke-width="1.0"/>
<text x="689.172787" y="450.874827" fill="rgb(102,102,102)"  stroke="rgb(102,102,102)" stroke-width="1" font-size="16" >H</text>
<text x="701.172787" y="454.554827" fill="rgb(102,102,102)"  stroke="rgb(102,102,102)" stroke-width="1" font-size="13" >3</text>
<text x="707.672787" y="450.874827" fill="rgb(102,102,102)"  stroke="rgb(102,102,102)" stroke-width="1" font-size="16" >C</text>
<text x="747.487441" y="458.869206" fill="rgb(191,191,191)"  stroke="rgb(191,191,191)" stroke-width="1" font-size="16" >H</text>
<text x="756.905508" y="386.799606" fill="rgb(191,191,191)"  stroke="rgb(191,191,191)" stroke-width="1" font-size="16" >H</text>
<text x="750.588754" y="353.414760" fill="rgb(191,191,191)"  stroke="rgb(191,191,191)" stroke-width="1" font-size="16" >H</text>
<text x="889.758201" y="344.372500" fill="rgb(255,12,12)"  stroke="rgb(255,12,12)" stroke-width="1" font-size="16" >O</text>
<text x="834.582889" y="387.038806" fill="rgb(255,12,12)"  stroke="rgb(255,12,12)" stroke-width="1" font-size="16" >O</text>
<text x="756.143767" y="321.569538" fill="rgb(255,12,12)"  stroke="rgb(255,12,12)" stroke-width="1" font-size="16" >O</text>
<text x="719.880912" y="367.924290" fill="rgb(191,191,191)"  stroke="rgb(191,191,191)" stroke-width="1" font-size="16" >H</text>
<text x="625.239670" y="304.956800" fill="rgb(191,191,191)"  stroke="rgb(191,191,191)" stroke-width="1" font-size="16" >H</text>
<text x="639.625642" y="283.856454" fill="rgb(191,191,191)"  stroke="rgb(191,191,191)" stroke-width="1" font-size="16" >H</text>
<text x="535.815017" y="288.520245" fill="rgb(191,191,191)"  stroke="rgb(191,191,191)" stroke-width="1" font-size="16" >H</text>
<text x="605.151357" y="228.701134" fill="rgb(191,191,191)"  stroke="rgb(191,191,191)" stroke-width="1" font-size="16" >H</text>
<text x="575.200828" y="245.993080" fill="rgb(191,191,191)"  stroke="rgb(191,191,191)" stroke-width="1" font-size="16" >H</text>
<text x="650.137214" y="253.256517" fill="rgb(255,12,12)"  stroke="rgb(255,12,12)" stroke-width="1" font-size="16" >O</text>
<text x="521.375326" y="221.390975" fill="rgb(191,191,191)"  stroke="rgb(191,191,191)" stroke-width="1" font-size="16" >H</text>
<text x="521.375326" y="182.964586" fill="rgb(191,191,191)"  stroke="rgb(191,191,191)" stroke-width="1" font-size="16" >H</text>
<text x="541.261804" y="251.730488" fill="rgb(255,12,12)"  stroke="rgb(255,12,12)" stroke-width="1" font-size="16" >O</text>
<text x="476.963450" y="127.255874" fill="rgb(191,191,191)"  stroke="rgb(191,191,191)" stroke-width="1" font-size="16" >H</text>
<text x="393.935428" y="210.283896" fill="rgb(191,191,191)"  stroke="rgb(191,191,191)" stroke-width="1" font-size="16" >H</text>
<text x="488.427228" y="154.931881" fill="rgb(255,12,12)"  stroke="rgb(255,12,12)" stroke-width="1" font-size="16" >O</text>
<text x="378.622435" y="146.843775" fill="rgb(191,191,191)"  stroke="rgb(191,191,191)" stroke-width="1" font-size="16" >H</text>
<text x="382.471651" y="182.607888" fill="rgb(255,12,12)"  stroke="rgb(255,12,12)" stroke-width="1" font-size="16" >O</text>
<text x="287.003547" y="194.071666" fill="rgb(191,191,191)"  stroke="rgb(191,191,191)" stroke-width="1" font-size="16" >H</text>
<text x="287.003547" y="76.652311" fill="rgb(191,191,191)"  stroke="rgb(191,191,191)" stroke-width="1" font-size="16" >H</text>
<text x="320.899595" y="96.222204" fill="rgb(255,12,12)"  stroke="rgb(255,12,12)" stroke-width="1" font-size="16" >O</text>
<text x="219.211451" y="76.652311" fill="rgb(191,191,191)"  stroke="rgb(191,191,191)" stroke-width="1" font-size="16" >H</text>
<text x="219.211451" y="194.071666" fill="rgb(191,191,191)"  stroke="rgb(191,191,191)" stroke-width="1" font-size="16" >H</text>
<text x="253.107499" y="174.501774" fill="rgb(255,12,12)"  stroke="rgb(255,12,12)" stroke-width="1" font-size="16" >O</text>
<text x="165.745510" y="208.397822" fill="rgb(191,191,191)"  stroke="rgb(191,191,191)" stroke-width="1" font-size="16" >H</text>
<text x="131.849462" y="81.896048" fill="rgb(191,191,191)"  stroke="rgb(191,191,191)" stroke-width="1" font-size="16" >H</text>
<text x="185.315403" y="96.222204" fill="rgb(255,12,12)"  stroke="rgb(255,12,12)" stroke-width="1" font-size="16" >O</text>
<text x="114.279570" y="48.000000" fill="rgb(102,102,102)"  stroke="rgb(102,102,102)" stroke-width="1" font-size="16" >CH</text>
<text x="138.279570" y="51.680000" fill="rgb(102,102,102)"  stroke="rgb(102,102,102)" stroke-width="1" font-size="13" >2</text>
<text x="34.000000" y="48.000000" fill="rgb(255,12,12)"  stroke="rgb(255,12,12)" stroke-width="1" font-size="16" >O</text>
<text x="204.885295" y="208.397822" fill="rgb(255,12,12)"  stroke="rgb(255,12,12)" stroke-width="1" font-size="16" >OH</text>
<text x="380.622435" y="123.880202" fill="rgb(102,102,102)"  stroke="rgb(102,102,102)" stroke-width="1" font-size="16" >CH</text>
<text x="404.622435" y="127.560202" fill="rgb(102,102,102)"  stroke="rgb(102,102,102)" stroke-width="1" font-size="13" >3</text>
<text x="527.351671" y="325.921159" fill="rgb(102,102,102)"  stroke="rgb(102,102,102)" stroke-width="1" font-size="16" >H</text>
<text x="539.351671" y="329.601159" fill="rgb(102,102,102)"  stroke="rgb(102,102,102)" stroke-width="1" font-size="13" >3</text>
<text x="545.851671" y="325.921159" fill="rgb(102,102,102)"  stroke="rgb(102,102,102)" stroke-width="1" font-size="16" >C</text>
<text x="656.607758" y="358.259967" fill="rgb(255,12,12)"  stroke="rgb(255,12,12)" stroke-width="1" font-size="16" >O</text>
<text x="734.816753" y="348.950895" fill="rgb(102,102,102)"  stroke="rgb(102,102,102)" stroke-width="1" font-size="16" >CH</text>
<text x="758.816753" y="352.630895" fill="rgb(102,102,102)"  stroke="rgb(102,102,102)" stroke-width="1" font-size="13" >3</text>
<text font-size="18.000000" fill ="black" font-family="sans-serif"
x="10.000000" y="20.000000" ></text>
<title> - OBDepict</title>
</svg>
