<?xml version="1.0"?>
<svg xmlns="http://www.w3.org/2000/svg"
xmlns:xlink="http://www.w3.org/1999/xlink" xmlns:cml="http://www.xml-cml.org/schema" width="183.923" height="300" x="0" y="0" font-family="sans-serif" stroke="rgb(0,0,0)" stroke-width="1"  stroke-linecap="round">
<rect x="0%" y="0%" width="100%" height="100%" stroke-width="0" fill="rgb(255,255,255)"  />
<line x1="109.3" y1="247.0" x2="109.3" y2="233.0" stroke="rgb(0,0,0)"  stroke-width="1.0"/>
<line x1="119.0" y1="210.9" x2="131.2" y2="203.9" stroke="rgb(0,0,0)"  stroke-width="1.0"/>
<line x1="122.0" y1="216.1" x2="134.2" y2="209.1" stroke="rgb(0,0,0)"  stroke-width="1.0"/>
<line x1="98.0" y1="213.5" x2="85.9" y2="206.5" stroke="rgb(0,0,0)"  stroke-width="1.0"/>
<line x1="74.6" y1="187.0" x2="74.6" y2="173.0" stroke="rgb(0,0,0)"  stroke-width="1.0"/>
<line x1="74.6" y1="67.0" x2="74.6" y2="53.0" stroke="rgb(0,0,0)"  stroke-width="1.0"/>
<line x1="63.2" y1="153.4" x2="51.4" y2="146.6" stroke="rgb(0,0,0)"  stroke-width="1.0"/>
<line x1="65.1" y1="146.2" x2="56.8" y2="141.4" stroke="rgb(0,0,0)"  stroke-width="1.0"/>
<line x1="40.0" y1="127.0" x2="40.0" y2="113.0" stroke="rgb(0,0,0)"  stroke-width="1.0"/>
<line x1="51.4" y1="93.4" x2="63.2" y2="86.6" stroke="rgb(0,0,0)"  stroke-width="1.0"/>
<line x1="56.8" y1="98.6" x2="65.1" y2="93.8" stroke="rgb(0,0,0)"  stroke-width="1.0"/>
<line x1="85.9" y1="86.5" x2="98.0" y2="93.5" stroke="rgb(0,0,0)"  stroke-width="1.0"/>
<line x1="109.3" y1="113.2" x2="109.3" y2="126.8" stroke="rgb(0,0,0)"  stroke-width="1.0"/>
<line x1="102.1" y1="115.2" x2="102.1" y2="124.8" stroke="rgb(0,0,0)"  stroke-width="1.0"/>
<line x1="98.0" y1="146.5" x2="85.9" y2="153.5" stroke="rgb(0,0,0)"  stroke-width="1.0"/>
<text x="105.282032" y="268.000000" fill="rgb(102,102,102)"  stroke="rgb(102,102,102)" stroke-width="1" font-size="16" >CH</text>
<text x="129.282032" y="271.680000" fill="rgb(102,102,102)"  stroke="rgb(102,102,102)" stroke-width="1" font-size="13" >3</text>
<text x="103.282032" y="228.000000" fill="rgb(102,102,102)"  stroke="rgb(102,102,102)" stroke-width="1" font-size="16" >C</text>
<text x="137.923048" y="208.000000" fill="rgb(255,12,12)"  stroke="rgb(255,12,12)" stroke-width="1" font-size="16" >O</text>
<text x="56.641016" y="208.000000" fill="rgb(12,12,255)"  stroke="rgb(12,12,255)" stroke-width="1" font-size="16" >HN</text>
<text x="68.641016" y="168.000000" fill="rgb(102,102,102)"  stroke="rgb(102,102,102)" stroke-width="1" font-size="16" >C</text>
<text x="22.000000" y="148.000000" fill="rgb(102,102,102)"  stroke="rgb(102,102,102)" stroke-width="1" font-size="16" >HC</text>
<text x="22.000000" y="108.000000" fill="rgb(102,102,102)"  stroke="rgb(102,102,102)" stroke-width="1" font-size="16" >HC</text>
<text x="68.641016" y="88.000000" fill="rgb(102,102,102)"  stroke="rgb(102,102,102)" stroke-width="1" font-size="16" >C</text>
<text x="103.282032" y="108.000000" fill="rgb(102,102,102)"  stroke="rgb(102,102,102)" stroke-width="1" font-size="16" >CH</text>
<text x="103.282032" y="148.000000" fill="rgb(102,102,102)"  stroke="rgb(102,102,102)" stroke-width="1" font-size="16" >CH</text>
<text x="68.641016" y="48.000000" fill="rgb(255,12,12)"  stroke="rgb(255,12,12)" stroke-width="1" font-size="16" >OH</text>
<text font-size="18.000000" fill ="black" font-family="sans-serif"
x="10.000000" y="20.000000" ></text>
<title> - OBDepict</title>
</svg>
