<?xml version="1.0"?>
<svg xmlns="http://www.w3.org/2000/svg"
xmlns:xlink="http://www.w3.org/1999/xlink" xmlns:cml="http://www.xml-cml.org/schema" width="505.786" height="292.571" x="0" y="0" font-family="sans-serif" stroke="rgb(0,0,0)" stroke-width="1"  stroke-linecap="round">
<rect x="0%" y="0%" width="100%" height="100%" stroke-width="0" fill="rgb(255,255,255)"  />
<line x1="210.0" y1="157.9" x2="210.8" y2="156.5" stroke="rgb(0,0,0)"  stroke-width="1.0"/>
<line x1="206.1" y1="156.3" x2="207.5" y2="153.8" stroke="rgb(0,0,0)"  stroke-width="1.0"/>
<line x1="202.1" y1="154.8" x2="204.2" y2="151.2" stroke="rgb(0,0,0)"  stroke-width="1.0"/>
<line x1="198.2" y1="153.2" x2="200.9" y2="148.5" stroke="rgb(0,0,0)"  stroke-width="1.0"/>
<line x1="194.2" y1="151.7" x2="197.6" y2="145.9" stroke="rgb(0,0,0)"  stroke-width="1.0"/>
<line x1="190.2" y1="150.2" x2="194.2" y2="143.2" stroke="rgb(0,0,0)"  stroke-width="1.0"/>
<line x1="215.0" y1="159.8" x2="192.3" y2="172.9" stroke="rgb(0,0,0)"  stroke-width="1.0"/>
<line x1="169.8" y1="172.9" x2="147.1" y2="159.8" stroke="rgb(0,0,0)"  stroke-width="1.0"/>
<line x1="109.8" y1="96.9" x2="111.2" y2="96.1" stroke="rgb(0,0,0)"  stroke-width="1.0"/>
<line x1="107.2" y1="93.6" x2="109.7" y2="92.1" stroke="rgb(0,0,0)"  stroke-width="1.0"/>
<line x1="104.5" y1="90.2" x2="108.1" y2="88.2" stroke="rgb(0,0,0)"  stroke-width="1.0"/>
<line x1="101.9" y1="86.9" x2="106.6" y2="84.2" stroke="rgb(0,0,0)"  stroke-width="1.0"/>
<line x1="99.2" y1="83.6" x2="105.0" y2="80.2" stroke="rgb(0,0,0)"  stroke-width="1.0"/>
<line x1="96.6" y1="80.3" x2="103.5" y2="76.3" stroke="rgb(0,0,0)"  stroke-width="1.0"/>
<polygon points="79.200000 120.622487 52.936000 124.622487 52.936000 116.622487 " stroke-width="1.000000" fill="rgb(0,0,0)"  stroke="rgb(0,0,0)" />
<line x1="79.2" y1="120.6" x2="66.1" y2="97.9" stroke="rgb(0,0,0)"  stroke-width="1.0"/>
<line x1="77.3" y1="164.8" x2="75.9" y2="164.0" stroke="rgb(0,0,0)"  stroke-width="1.0"/>
<line x1="75.7" y1="168.7" x2="73.2" y2="167.3" stroke="rgb(0,0,0)"  stroke-width="1.0"/>
<line x1="74.2" y1="172.7" x2="70.6" y2="170.6" stroke="rgb(0,0,0)"  stroke-width="1.0"/>
<line x1="72.6" y1="176.6" x2="67.9" y2="173.9" stroke="rgb(0,0,0)"  stroke-width="1.0"/>
<line x1="71.1" y1="180.6" x2="65.3" y2="177.2" stroke="rgb(0,0,0)"  stroke-width="1.0"/>
<line x1="69.5" y1="184.6" x2="62.6" y2="180.6" stroke="rgb(0,0,0)"  stroke-width="1.0"/>
<line x1="79.2" y1="159.8" x2="53.0" y2="159.8" stroke="rgb(0,0,0)"  stroke-width="1.0"/>
<polygon points="113.148196 179.422487 129.744297 200.167778 122.816094 204.167778 " stroke-width="1.000000" fill="rgb(0,0,0)"  stroke="rgb(0,0,0)" />
<line x1="113.1" y1="179.4" x2="100.0" y2="202.1" stroke="rgb(0,0,0)"  stroke-width="1.0"/>
<line x1="113.1" y1="101.0" x2="132.7" y2="67.1" stroke="rgb(0,0,0)"  stroke-width="1.0"/>
<line x1="132.7" y1="67.1" x2="158.9" y2="67.1" stroke="rgb(0,0,0)"  stroke-width="1.0"/>
<polygon points="234.592783 125.874291 230.592783 99.610291 238.592783 99.610291 " stroke-width="1.000000" fill="rgb(0,0,0)"  stroke="rgb(0,0,0)" />
<line x1="234.6" y1="125.9" x2="211.9" y2="112.8" stroke="rgb(0,0,0)"  stroke-width="1.0"/>
<line x1="277.9" y1="122.6" x2="278.7" y2="123.9" stroke="rgb(0,0,0)"  stroke-width="1.0"/>
<line x1="281.3" y1="119.9" x2="282.7" y2="122.4" stroke="rgb(0,0,0)"  stroke-width="1.0"/>
<line x1="284.6" y1="117.2" x2="286.7" y2="120.8" stroke="rgb(0,0,0)"  stroke-width="1.0"/>
<line x1="287.9" y1="114.6" x2="290.6" y2="119.3" stroke="rgb(0,0,0)"  stroke-width="1.0"/>
<line x1="291.2" y1="111.9" x2="294.6" y2="117.8" stroke="rgb(0,0,0)"  stroke-width="1.0"/>
<line x1="294.5" y1="109.3" x2="298.5" y2="116.2" stroke="rgb(0,0,0)"  stroke-width="1.0"/>
<line x1="273.8" y1="125.9" x2="273.8" y2="99.7" stroke="rgb(0,0,0)"  stroke-width="1.0"/>
<polygon points="234.592783 193.770683 213.847492 210.366785 209.847492 203.438581 " stroke-width="1.000000" fill="rgb(0,0,0)"  stroke="rgb(0,0,0)" />
<line x1="234.6" y1="193.8" x2="234.6" y2="233.0" stroke="rgb(0,0,0)"  stroke-width="1.0"/>
<line x1="234.6" y1="233.0" x2="211.9" y2="246.1" stroke="rgb(0,0,0)"  stroke-width="1.0"/>
<line x1="293.4" y1="159.8" x2="319.6" y2="159.8" stroke="rgb(0,0,0)"  stroke-width="1.0"/>
<line x1="339.1" y1="148.6" x2="352.2" y2="125.9" stroke="rgb(0,0,0)"  stroke-width="1.0"/>
<line x1="345.2" y1="118.0" x2="346.4" y2="117.1" stroke="rgb(0,0,0)"  stroke-width="1.0"/>
<line x1="339.5" y1="111.7" x2="341.8" y2="110.0" stroke="rgb(0,0,0)"  stroke-width="1.0"/>
<line x1="333.9" y1="105.5" x2="337.2" y2="102.9" stroke="rgb(0,0,0)"  stroke-width="1.0"/>
<line x1="328.3" y1="99.2" x2="332.6" y2="95.9" stroke="rgb(0,0,0)"  stroke-width="1.0"/>
<line x1="322.7" y1="92.9" x2="328.0" y2="88.8" stroke="rgb(0,0,0)"  stroke-width="1.0"/>
<line x1="317.0" y1="86.6" x2="323.4" y2="81.8" stroke="rgb(0,0,0)"  stroke-width="1.0"/>
<polygon points="362.338490 88.009999 351.677163 63.676199 359.404570 61.605647 " stroke-width="1.000000" fill="rgb(0,0,0)"  stroke="rgb(0,0,0)" />
<line x1="362.3" y1="88.0" x2="337.0" y2="81.2" stroke="rgb(0,0,0)"  stroke-width="1.0"/>
<line x1="403.4" y1="73.6" x2="404.5" y2="74.7" stroke="rgb(0,0,0)"  stroke-width="1.0"/>
<line x1="405.9" y1="70.2" x2="407.9" y2="72.2" stroke="rgb(0,0,0)"  stroke-width="1.0"/>
<line x1="408.4" y1="66.7" x2="411.3" y2="69.7" stroke="rgb(0,0,0)"  stroke-width="1.0"/>
<line x1="410.9" y1="63.3" x2="414.8" y2="67.2" stroke="rgb(0,0,0)"  stroke-width="1.0"/>
<line x1="413.4" y1="59.9" x2="418.2" y2="64.6" stroke="rgb(0,0,0)"  stroke-width="1.0"/>
<line x1="415.9" y1="56.5" x2="421.6" y2="62.1" stroke="rgb(0,0,0)"  stroke-width="1.0"/>
<line x1="400.2" y1="77.9" x2="393.4" y2="52.6" stroke="rgb(0,0,0)"  stroke-width="1.0"/>
<line x1="433.2" y1="106.2" x2="432.8" y2="107.7" stroke="rgb(0,0,0)"  stroke-width="1.0"/>
<line x1="437.4" y1="106.6" x2="436.7" y2="109.4" stroke="rgb(0,0,0)"  stroke-width="1.0"/>
<line x1="441.7" y1="107.1" x2="440.6" y2="111.1" stroke="rgb(0,0,0)"  stroke-width="1.0"/>
<line x1="445.9" y1="107.6" x2="444.5" y2="112.8" stroke="rgb(0,0,0)"  stroke-width="1.0"/>
<line x1="450.1" y1="108.0" x2="448.4" y2="114.5" stroke="rgb(0,0,0)"  stroke-width="1.0"/>
<line x1="454.3" y1="108.5" x2="452.3" y2="116.2" stroke="rgb(0,0,0)"  stroke-width="1.0"/>
<polygon points="379.911369 153.592877 364.168344 174.992757 358.511490 169.335903 " stroke-width="1.000000" fill="rgb(0,0,0)"  stroke="rgb(0,0,0)" />
<line x1="379.9" y1="153.6" x2="390.1" y2="191.5" stroke="rgb(0,0,0)"  stroke-width="1.0"/>
<line x1="390.1" y1="191.5" x2="415.4" y2="198.2" stroke="rgb(0,0,0)"  stroke-width="1.0"/>
<line x1="427.9" y1="105.6" x2="446.4" y2="87.1" stroke="rgb(0,0,0)"  stroke-width="1.0"/>
<line x1="147.1" y1="159.8" x2="147.1" y2="133.6" stroke="rgb(0,0,0)"  stroke-width="1.0"/>
<line x1="135.8" y1="114.1" x2="113.1" y2="101.0" stroke="rgb(0,0,0)"  stroke-width="1.0"/>
<line x1="113.1" y1="101.0" x2="79.2" y2="120.6" stroke="rgb(0,0,0)"  stroke-width="1.0"/>
<line x1="79.2" y1="120.6" x2="79.2" y2="159.8" stroke="rgb(0,0,0)"  stroke-width="1.0"/>
<line x1="79.2" y1="159.8" x2="113.1" y2="179.4" stroke="rgb(0,0,0)"  stroke-width="1.0"/>
<line x1="113.1" y1="179.4" x2="147.1" y2="159.8" stroke="rgb(0,0,0)"  stroke-width="1.0"/>
<line x1="215.0" y1="159.8" x2="234.6" y2="125.9" stroke="rgb(0,0,0)"  stroke-width="1.0"/>
<line x1="234.6" y1="125.9" x2="273.8" y2="125.9" stroke="rgb(0,0,0)"  stroke-width="1.0"/>
<line x1="273.8" y1="125.9" x2="293.4" y2="159.8" stroke="rgb(0,0,0)"  stroke-width="1.0"/>
<line x1="293.4" y1="159.8" x2="280.3" y2="182.5" stroke="rgb(0,0,0)"  stroke-width="1.0"/>
<line x1="260.8" y1="193.8" x2="234.6" y2="193.8" stroke="rgb(0,0,0)"  stroke-width="1.0"/>
<line x1="234.6" y1="193.8" x2="215.0" y2="159.8" stroke="rgb(0,0,0)"  stroke-width="1.0"/>
<line x1="352.2" y1="125.9" x2="362.3" y2="88.0" stroke="rgb(0,0,0)"  stroke-width="1.0"/>
<line x1="362.3" y1="88.0" x2="400.2" y2="77.9" stroke="rgb(0,0,0)"  stroke-width="1.0"/>
<line x1="400.2" y1="77.9" x2="427.9" y2="105.6" stroke="rgb(0,0,0)"  stroke-width="1.0"/>
<line x1="427.9" y1="105.6" x2="421.1" y2="130.9" stroke="rgb(0,0,0)"  stroke-width="1.0"/>
<line x1="405.2" y1="146.8" x2="379.9" y2="153.6" stroke="rgb(0,0,0)"  stroke-width="1.0"/>
<line x1="379.9" y1="153.6" x2="352.2" y2="125.9" stroke="rgb(0,0,0)"  stroke-width="1.0"/>
<text x="175.044587" y="148.222487" fill="rgb(191,191,191)"  stroke="rgb(191,191,191)" stroke-width="1" font-size="16" >H</text>
<text x="175.044587" y="187.422487" fill="rgb(255,12,12)"  stroke="rgb(255,12,12)" stroke-width="1" font-size="16" >O</text>
<text x="141.096392" y="128.622487" fill="rgb(255,12,12)"  stroke="rgb(255,12,12)" stroke-width="1" font-size="16" >O</text>
<text x="87.548196" y="75.074291" fill="rgb(191,191,191)"  stroke="rgb(191,191,191)" stroke-width="1" font-size="16" >H</text>
<text x="34.000000" y="128.622487" fill="rgb(191,191,191)"  stroke="rgb(191,191,191)" stroke-width="1" font-size="16" >H</text>
<text x="41.600000" y="94.674291" fill="rgb(255,12,12)"  stroke="rgb(255,12,12)" stroke-width="1" font-size="16" >HO</text>
<text x="53.600000" y="201.770683" fill="rgb(191,191,191)"  stroke="rgb(191,191,191)" stroke-width="1" font-size="16" >H</text>
<text x="22.000000" y="167.822487" fill="rgb(255,12,12)"  stroke="rgb(255,12,12)" stroke-width="1" font-size="16" >HO</text>
<text x="126.748196" y="221.370683" fill="rgb(191,191,191)"  stroke="rgb(191,191,191)" stroke-width="1" font-size="16" >H</text>
<text x="75.548196" y="221.370683" fill="rgb(255,12,12)"  stroke="rgb(255,12,12)" stroke-width="1" font-size="16" >HO</text>
<text x="165.948196" y="75.074291" fill="rgb(255,12,12)"  stroke="rgb(255,12,12)" stroke-width="1" font-size="16" >OH</text>
<text x="228.592783" y="94.674291" fill="rgb(191,191,191)"  stroke="rgb(191,191,191)" stroke-width="1" font-size="16" >H</text>
<text x="182.644587" y="114.274291" fill="rgb(255,12,12)"  stroke="rgb(255,12,12)" stroke-width="1" font-size="16" >HO</text>
<text x="301.740979" y="114.274291" fill="rgb(191,191,191)"  stroke="rgb(191,191,191)" stroke-width="1" font-size="16" >H</text>
<text x="267.792783" y="94.674291" fill="rgb(255,12,12)"  stroke="rgb(255,12,12)" stroke-width="1" font-size="16" >OH</text>
<text x="267.792783" y="201.770683" fill="rgb(255,12,12)"  stroke="rgb(255,12,12)" stroke-width="1" font-size="16" >O</text>
<text x="194.644587" y="221.370683" fill="rgb(191,191,191)"  stroke="rgb(191,191,191)" stroke-width="1" font-size="16" >H</text>
<text x="182.644587" y="260.570683" fill="rgb(255,12,12)"  stroke="rgb(255,12,12)" stroke-width="1" font-size="16" >HO</text>
<text x="326.592783" y="167.822487" fill="rgb(255,12,12)"  stroke="rgb(255,12,12)" stroke-width="1" font-size="16" >O</text>
<text x="298.465887" y="71.675389" fill="rgb(191,191,191)"  stroke="rgb(191,191,191)" stroke-width="1" font-size="16" >H</text>
<text x="346.192783" y="58.145707" fill="rgb(191,191,191)"  stroke="rgb(191,191,191)" stroke-width="1" font-size="16" >H</text>
<text x="306.474197" y="85.864292" fill="rgb(255,12,12)"  stroke="rgb(255,12,12)" stroke-width="1" font-size="16" >HO</text>
<text x="421.921368" y="58.145707" fill="rgb(191,191,191)"  stroke="rgb(191,191,191)" stroke-width="1" font-size="16" >H</text>
<text x="372.057076" y="48.000000" fill="rgb(255,12,12)"  stroke="rgb(255,12,12)" stroke-width="1" font-size="16" >HO</text>
<text x="459.785660" y="123.728585" fill="rgb(191,191,191)"  stroke="rgb(191,191,191)" stroke-width="1" font-size="16" >H</text>
<text x="411.775662" y="151.447171" fill="rgb(255,12,12)"  stroke="rgb(255,12,12)" stroke-width="1" font-size="16" >O</text>
<text x="346.192783" y="189.311463" fill="rgb(191,191,191)"  stroke="rgb(191,191,191)" stroke-width="1" font-size="16" >H</text>
<text x="421.921368" y="209.602876" fill="rgb(255,12,12)"  stroke="rgb(255,12,12)" stroke-width="1" font-size="16" >OH</text>
<text x="449.639954" y="85.864292" fill="rgb(255,12,12)"  stroke="rgb(255,12,12)" stroke-width="1" font-size="16" >OH</text>
<text font-size="18.000000" fill ="black" font-family="sans-serif"
x="10.000000" y="20.000000" ></text>
<title> - OBDepict</title>
</svg>
