<?xml version="1.0"?>
<svg xmlns="http://www.w3.org/2000/svg"
xmlns:xlink="http://www.w3.org/1999/xlink" xmlns:cml="http://www.xml-cml.org/schema" width="411.711" height="179.963" x="0" y="0" font-family="sans-serif" stroke="rgb(0,0,0)" stroke-width="1"  stroke-linecap="round">
<rect x="0%" y="0%" width="100%" height="100%" stroke-width="0" fill="rgb(255,255,255)"  />
<line x1="48.2" y1="65.2" x2="65.2" y2="86.2" stroke="rgb(0,0,0)"  stroke-width="1.0"/>
<line x1="68.0" y1="87.3" x2="58.3" y2="112.5" stroke="rgb(0,0,0)"  stroke-width="1.0"/>
<line x1="62.4" y1="85.1" x2="52.7" y2="110.4" stroke="rgb(0,0,0)"  stroke-width="1.0"/>
<line x1="65.2" y1="86.2" x2="104.7" y2="80.0" stroke="rgb(0,0,0)"  stroke-width="1.0"/>
<polygon points="104.680349 79.962680 101.841500 53.014935 109.834036 53.360433 " stroke-width="1.000000" fill="rgb(0,0,0)"  stroke="rgb(0,0,0)" />
<line x1="166.2" y1="97.0" x2="206.2" y2="97.0" stroke="rgb(0,0,0)"  stroke-width="1.0"/>
<line x1="166.2" y1="103.0" x2="206.2" y2="103.0" stroke="rgb(0,0,0)"  stroke-width="1.0"/>
<line x1="335.6" y1="77.4" x2="359.0" y2="63.9" stroke="rgb(0,0,0)"  stroke-width="1.0"/>
<line x1="338.6" y1="82.6" x2="362.0" y2="69.1" stroke="rgb(0,0,0)"  stroke-width="1.0"/>
<line x1="104.7" y1="80.0" x2="130.4" y2="71.6" stroke="rgb(0,0,0)"  stroke-width="1.0"/>
<line x1="150.4" y1="78.1" x2="166.2" y2="100.0" stroke="rgb(0,0,0)"  stroke-width="1.0"/>
<line x1="166.2" y1="100.0" x2="150.4" y2="121.8" stroke="rgb(0,0,0)"  stroke-width="1.0"/>
<line x1="130.4" y1="128.3" x2="104.7" y2="120.0" stroke="rgb(0,0,0)"  stroke-width="1.0"/>
<line x1="104.7" y1="120.0" x2="104.7" y2="80.0" stroke="rgb(0,0,0)"  stroke-width="1.0"/>
<line x1="206.2" y1="100.0" x2="222.1" y2="78.1" stroke="rgb(0,0,0)"  stroke-width="1.0"/>
<line x1="242.1" y1="71.6" x2="267.8" y2="80.0" stroke="rgb(0,0,0)"  stroke-width="1.0"/>
<line x1="267.8" y1="80.0" x2="267.8" y2="120.0" stroke="rgb(0,0,0)"  stroke-width="1.0"/>
<line x1="267.8" y1="120.0" x2="242.3" y2="128.2" stroke="rgb(0,0,0)"  stroke-width="1.0"/>
<line x1="259.9" y1="115.0" x2="242.0" y2="120.8" stroke="rgb(0,0,0)"  stroke-width="1.0"/>
<line x1="222.1" y1="121.8" x2="206.2" y2="100.0" stroke="rgb(0,0,0)"  stroke-width="1.0"/>
<line x1="267.8" y1="80.0" x2="302.4" y2="60.0" stroke="rgb(0,0,0)"  stroke-width="1.0"/>
<line x1="276.6" y1="83.2" x2="300.8" y2="69.2" stroke="rgb(0,0,0)"  stroke-width="1.0"/>
<line x1="302.4" y1="60.0" x2="337.1" y2="80.0" stroke="rgb(0,0,0)"  stroke-width="1.0"/>
<line x1="337.1" y1="80.0" x2="337.1" y2="120.0" stroke="rgb(0,0,0)"  stroke-width="1.0"/>
<line x1="337.1" y1="120.0" x2="302.4" y2="140.0" stroke="rgb(0,0,0)"  stroke-width="1.0"/>
<line x1="328.3" y1="116.7" x2="304.0" y2="130.7" stroke="rgb(0,0,0)"  stroke-width="1.0"/>
<line x1="302.4" y1="140.0" x2="267.8" y2="120.0" stroke="rgb(0,0,0)"  stroke-width="1.0"/>
<text x="22.000000" y="63.134220" fill="rgb(255,12,12)"  stroke="rgb(255,12,12)" stroke-width="1" font-size="16" >HO</text>
<text x="44.838098" y="131.563275" fill="rgb(255,12,12)"  stroke="rgb(255,12,12)" stroke-width="1" font-size="16" >O</text>
<text x="100.407840" y="48.000000" fill="rgb(191,191,191)"  stroke="rgb(191,191,191)" stroke-width="1" font-size="16" >H</text>
<text x="136.722610" y="75.602000" fill="rgb(12,12,255)"  stroke="rgb(12,12,255)" stroke-width="1" font-size="16" >N</text>
<text x="136.722610" y="59.602000" fill="rgb(12,12,255)"  stroke="rgb(12,12,255)" stroke-width="1" font-size="16" >H</text>
<text x="136.722610" y="140.323360" fill="rgb(178,178,0)"  stroke="rgb(178,178,0)" stroke-width="1" font-size="16" >S</text>
<text x="223.745430" y="75.602000" fill="rgb(178,178,0)"  stroke="rgb(178,178,0)" stroke-width="1" font-size="16" >S</text>
<text x="365.710739" y="67.962680" fill="rgb(255,12,12)"  stroke="rgb(255,12,12)" stroke-width="1" font-size="16" >O</text>
<text x="223.745430" y="140.323360" fill="rgb(12,12,255)"  stroke="rgb(12,12,255)" stroke-width="1" font-size="16" >N</text>
<text font-size="18.000000" fill ="black" font-family="sans-serif"
x="10.000000" y="20.000000" ></text>
<title> - OBDepict</title>
</svg>
