<?xml version="1.0"?>
<svg xmlns="http://www.w3.org/2000/svg"
xmlns:xlink="http://www.w3.org/1999/xlink" xmlns:cml="http://www.xml-cml.org/schema" width="294.004" height="301.69" x="0" y="0" font-family="sans-serif" stroke="rgb(0,0,0)" stroke-width="1"  stroke-linecap="round">
<rect x="0%" y="0%" width="100%" height="100%" stroke-width="0" fill="rgb(255,255,255)"  />
<line x1="210.7" y1="98.6" x2="195.3" y2="105.7" stroke="rgb(0,0,0)"  stroke-width="1.0"/>
<line x1="139.2" y1="150.1" x2="138.8" y2="151.6" stroke="rgb(0,0,0)"  stroke-width="1.0"/>
<line x1="143.7" y1="150.5" x2="143.0" y2="153.3" stroke="rgb(0,0,0)"  stroke-width="1.0"/>
<line x1="148.2" y1="151.0" x2="147.2" y2="155.0" stroke="rgb(0,0,0)"  stroke-width="1.0"/>
<line x1="152.7" y1="151.4" x2="151.4" y2="156.7" stroke="rgb(0,0,0)"  stroke-width="1.0"/>
<line x1="157.2" y1="151.9" x2="155.6" y2="158.4" stroke="rgb(0,0,0)"  stroke-width="1.0"/>
<line x1="161.7" y1="152.3" x2="159.8" y2="160.1" stroke="rgb(0,0,0)"  stroke-width="1.0"/>
<line x1="108.5" y1="191.3" x2="107.4" y2="190.2" stroke="rgb(0,0,0)"  stroke-width="1.0"/>
<line x1="105.8" y1="195.1" x2="103.7" y2="193.1" stroke="rgb(0,0,0)"  stroke-width="1.0"/>
<line x1="103.0" y1="198.9" x2="100.0" y2="196.0" stroke="rgb(0,0,0)"  stroke-width="1.0"/>
<line x1="100.3" y1="202.6" x2="96.4" y2="198.8" stroke="rgb(0,0,0)"  stroke-width="1.0"/>
<line x1="97.5" y1="206.4" x2="92.7" y2="201.7" stroke="rgb(0,0,0)"  stroke-width="1.0"/>
<line x1="94.8" y1="210.1" x2="89.1" y2="204.6" stroke="rgb(0,0,0)"  stroke-width="1.0"/>
<line x1="77.2" y1="171.1" x2="77.1" y2="169.5" stroke="rgb(0,0,0)"  stroke-width="1.0"/>
<line x1="72.6" y1="172.1" x2="72.4" y2="169.2" stroke="rgb(0,0,0)"  stroke-width="1.0"/>
<line x1="68.1" y1="173.0" x2="67.8" y2="168.9" stroke="rgb(0,0,0)"  stroke-width="1.0"/>
<line x1="63.5" y1="174.0" x2="63.1" y2="168.6" stroke="rgb(0,0,0)"  stroke-width="1.0"/>
<line x1="59.0" y1="175.0" x2="58.5" y2="168.3" stroke="rgb(0,0,0)"  stroke-width="1.0"/>
<line x1="54.4" y1="176.0" x2="53.8" y2="168.0" stroke="rgb(0,0,0)"  stroke-width="1.0"/>
<line x1="139.2" y1="104.2" x2="140.6" y2="104.9" stroke="rgb(0,0,0)"  stroke-width="1.0"/>
<line x1="143.3" y1="95.8" x2="145.8" y2="97.3" stroke="rgb(0,0,0)"  stroke-width="1.0"/>
<line x1="147.3" y1="87.5" x2="150.9" y2="89.6" stroke="rgb(0,0,0)"  stroke-width="1.0"/>
<line x1="151.3" y1="79.2" x2="156.1" y2="81.9" stroke="rgb(0,0,0)"  stroke-width="1.0"/>
<line x1="155.4" y1="70.9" x2="161.2" y2="74.3" stroke="rgb(0,0,0)"  stroke-width="1.0"/>
<line x1="159.4" y1="62.6" x2="166.4" y2="66.6" stroke="rgb(0,0,0)"  stroke-width="1.0"/>
<line x1="158.3" y1="88.7" x2="159.7" y2="87.9" stroke="rgb(0,0,0)"  stroke-width="1.0"/>
<line x1="155.4" y1="85.0" x2="157.9" y2="83.6" stroke="rgb(0,0,0)"  stroke-width="1.0"/>
<line x1="152.6" y1="81.4" x2="156.1" y2="79.3" stroke="rgb(0,0,0)"  stroke-width="1.0"/>
<line x1="149.7" y1="77.7" x2="154.4" y2="75.0" stroke="rgb(0,0,0)"  stroke-width="1.0"/>
<line x1="146.8" y1="74.1" x2="152.6" y2="70.7" stroke="rgb(0,0,0)"  stroke-width="1.0"/>
<line x1="143.9" y1="70.4" x2="150.8" y2="66.4" stroke="rgb(0,0,0)"  stroke-width="1.0"/>
<line x1="82.9" y1="169.9" x2="69.9" y2="196.9" stroke="rgb(0,0,0)"  stroke-width="1.0"/>
<line x1="219.1" y1="218.9" x2="222.2" y2="248.8" stroke="rgb(0,0,0)"  stroke-width="1.0"/>
<line x1="152.5" y1="213.4" x2="179.9" y2="201.3" stroke="rgb(0,0,0)"  stroke-width="1.0"/>
<line x1="179.9" y1="201.3" x2="175.6" y2="158.6" stroke="rgb(0,0,0)"  stroke-width="1.0"/>
<line x1="175.6" y1="158.6" x2="133.6" y2="149.5" stroke="rgb(0,0,0)"  stroke-width="1.0"/>
<line x1="133.6" y1="149.5" x2="111.9" y2="186.6" stroke="rgb(0,0,0)"  stroke-width="1.0"/>
<line x1="111.9" y1="186.6" x2="131.9" y2="209.0" stroke="rgb(0,0,0)"  stroke-width="1.0"/>
<line x1="183.3" y1="124.1" x2="183.0" y2="139.1" stroke="rgb(0,0,0)"  stroke-width="1.0"/>
<line x1="183.0" y1="139.1" x2="160.8" y2="156.2" stroke="rgb(0,0,0)"  stroke-width="1.0"/>
<line x1="160.8" y1="156.2" x2="133.6" y2="149.5" stroke="rgb(0,0,0)"  stroke-width="1.0"/>
<line x1="133.6" y1="149.5" x2="134.2" y2="114.5" stroke="rgb(0,0,0)"  stroke-width="1.0"/>
<line x1="134.2" y1="114.5" x2="161.9" y2="93.2" stroke="rgb(0,0,0)"  stroke-width="1.0"/>
<line x1="161.9" y1="93.2" x2="173.5" y2="102.8" stroke="rgb(0,0,0)"  stroke-width="1.0"/>
<line x1="219.1" y1="218.9" x2="254.0" y2="193.8" stroke="rgb(0,0,0)"  stroke-width="1.0"/>
<line x1="254.0" y1="193.8" x2="249.6" y2="151.0" stroke="rgb(0,0,0)"  stroke-width="1.0"/>
<line x1="246.2" y1="188.5" x2="243.1" y2="157.7" stroke="rgb(0,0,0)"  stroke-width="1.0"/>
<line x1="249.6" y1="151.0" x2="210.4" y2="133.4" stroke="rgb(0,0,0)"  stroke-width="1.0"/>
<line x1="210.4" y1="133.4" x2="175.6" y2="158.6" stroke="rgb(0,0,0)"  stroke-width="1.0"/>
<line x1="209.8" y1="142.7" x2="184.7" y2="160.9" stroke="rgb(0,0,0)"  stroke-width="1.0"/>
<line x1="179.9" y1="201.3" x2="219.1" y2="218.9" stroke="rgb(0,0,0)"  stroke-width="1.0"/>
<line x1="188.4" y1="197.2" x2="216.6" y2="209.9" stroke="rgb(0,0,0)"  stroke-width="1.0"/>
<line x1="111.9" y1="186.6" x2="82.9" y2="169.9" stroke="rgb(0,0,0)"  stroke-width="1.0"/>
<line x1="82.9" y1="169.9" x2="77.9" y2="136.6" stroke="rgb(0,0,0)"  stroke-width="1.0"/>
<line x1="77.9" y1="136.6" x2="100.7" y2="112.0" stroke="rgb(0,0,0)"  stroke-width="1.0"/>
<line x1="87.2" y1="137.1" x2="101.9" y2="121.3" stroke="rgb(0,0,0)"  stroke-width="1.0"/>
<line x1="100.7" y1="112.0" x2="134.2" y2="114.5" stroke="rgb(0,0,0)"  stroke-width="1.0"/>
<line x1="210.4" y1="133.4" x2="195.8" y2="101.6" stroke="rgb(0,0,0)"  stroke-width="1.0"/>
<line x1="195.8" y1="101.6" x2="161.9" y2="93.2" stroke="rgb(0,0,0)"  stroke-width="1.0"/>
<text x="218.562015" y="101.167375" fill="rgb(102,102,102)"  stroke="rgb(102,102,102)" stroke-width="1" font-size="16" >CH</text>
<text x="242.562015" y="104.847375" fill="rgb(102,102,102)"  stroke="rgb(102,102,102)" stroke-width="1" font-size="13" >3</text>
<text x="177.502274" y="119.114279" fill="rgb(12,12,255)"  stroke="rgb(12,12,255)" stroke-width="1" font-size="16" >N</text>
<text x="134.611015" y="226.679551" fill="rgb(255,12,12)"  stroke="rgb(255,12,12)" stroke-width="1" font-size="16" >O</text>
<text x="76.069694" y="225.548446" fill="rgb(191,191,191)"  stroke="rgb(191,191,191)" stroke-width="1" font-size="16" >H</text>
<text x="34.000000" y="181.066267" fill="rgb(191,191,191)"  stroke="rgb(191,191,191)" stroke-width="1" font-size="16" >H</text>
<text x="171.026738" y="48.000000" fill="rgb(191,191,191)"  stroke="rgb(191,191,191)" stroke-width="1" font-size="16" >H</text>
<text x="134.209761" y="64.136600" fill="rgb(191,191,191)"  stroke="rgb(191,191,191)" stroke-width="1" font-size="16" >H</text>
<text x="46.214604" y="216.582569" fill="rgb(255,12,12)"  stroke="rgb(255,12,12)" stroke-width="1" font-size="16" >HO</text>
<text x="217.508239" y="269.689695" fill="rgb(255,12,12)"  stroke="rgb(255,12,12)" stroke-width="1" font-size="16" >OH</text>
<text font-size="18.000000" fill ="black" font-family="sans-serif"
x="10.000000" y="20.000000" ></text>
<title> - OBDepict</title>
</svg>
