<?xml version="1.0"?>
<svg xmlns="http://www.w3.org/2000/svg"
xmlns:xlink="http://www.w3.org/1999/xlink" xmlns:cml="http://www.xml-cml.org/schema" width="478.974" height="280.494" x="0" y="0" font-family="sans-serif" stroke="rgb(0,0,0)" stroke-width="1"  stroke-linecap="round">
<rect x="0%" y="0%" width="100%" height="100%" stroke-width="0" fill="rgb(255,255,255)"  />
<line x1="170.8" y1="100.0" x2="205.5" y2="120.0" stroke="rgb(0,0,0)"  stroke-width="1.0"/>
<line x1="305.3" y1="117.2" x2="340.0" y2="137.2" stroke="rgb(0,0,0)"  stroke-width="1.0"/>
<line x1="55.9" y1="101.8" x2="40.0" y2="80.0" stroke="rgb(0,0,0)"  stroke-width="1.0"/>
<line x1="40.0" y1="80.0" x2="55.9" y2="58.2" stroke="rgb(0,0,0)"  stroke-width="1.0"/>
<line x1="75.9" y1="51.7" x2="101.6" y2="60.0" stroke="rgb(0,0,0)"  stroke-width="1.0"/>
<line x1="101.6" y1="60.0" x2="101.6" y2="100.0" stroke="rgb(0,0,0)"  stroke-width="1.0"/>
<line x1="94.4" y1="66.0" x2="94.4" y2="94.0" stroke="rgb(0,0,0)"  stroke-width="1.0"/>
<line x1="101.6" y1="100.0" x2="75.9" y2="108.3" stroke="rgb(0,0,0)"  stroke-width="1.0"/>
<line x1="242.0" y1="103.7" x2="262.0" y2="69.1" stroke="rgb(0,0,0)"  stroke-width="1.0"/>
<line x1="262.0" y1="69.1" x2="288.4" y2="74.7" stroke="rgb(0,0,0)"  stroke-width="1.0"/>
<line x1="302.5" y1="90.3" x2="305.3" y2="117.2" stroke="rgb(0,0,0)"  stroke-width="1.0"/>
<line x1="305.3" y1="117.2" x2="268.8" y2="133.5" stroke="rgb(0,0,0)"  stroke-width="1.0"/>
<line x1="268.8" y1="133.5" x2="242.0" y2="103.7" stroke="rgb(0,0,0)"  stroke-width="1.0"/>
<line x1="208.3" y1="146.9" x2="205.5" y2="120.0" stroke="rgb(0,0,0)"  stroke-width="1.0"/>
<line x1="205.5" y1="120.0" x2="242.0" y2="103.7" stroke="rgb(0,0,0)"  stroke-width="1.0"/>
<line x1="268.8" y1="133.5" x2="248.8" y2="168.1" stroke="rgb(0,0,0)"  stroke-width="1.0"/>
<line x1="248.8" y1="168.1" x2="222.4" y2="162.5" stroke="rgb(0,0,0)"  stroke-width="1.0"/>
<line x1="422.7" y1="240.5" x2="395.9" y2="237.7" stroke="rgb(0,0,0)"  stroke-width="1.0"/>
<line x1="380.2" y1="223.6" x2="374.6" y2="197.2" stroke="rgb(0,0,0)"  stroke-width="1.0"/>
<line x1="374.6" y1="197.2" x2="409.2" y2="177.2" stroke="rgb(0,0,0)"  stroke-width="1.0"/>
<line x1="409.2" y1="177.2" x2="429.3" y2="195.3" stroke="rgb(0,0,0)"  stroke-width="1.0"/>
<line x1="433.7" y1="215.8" x2="422.7" y2="240.5" stroke="rgb(0,0,0)"  stroke-width="1.0"/>
<line x1="170.8" y1="60.0" x2="136.2" y2="40.0" stroke="rgb(0,0,0)"  stroke-width="1.0"/>
<line x1="162.0" y1="63.2" x2="137.8" y2="49.2" stroke="rgb(0,0,0)"  stroke-width="1.0"/>
<line x1="136.2" y1="40.0" x2="101.6" y2="60.0" stroke="rgb(0,0,0)"  stroke-width="1.0"/>
<line x1="101.6" y1="100.0" x2="136.2" y2="120.0" stroke="rgb(0,0,0)"  stroke-width="1.0"/>
<line x1="136.2" y1="120.0" x2="170.8" y2="100.0" stroke="rgb(0,0,0)"  stroke-width="1.0"/>
<line x1="137.8" y1="110.8" x2="162.0" y2="96.8" stroke="rgb(0,0,0)"  stroke-width="1.0"/>
<line x1="170.8" y1="100.0" x2="170.8" y2="60.0" stroke="rgb(0,0,0)"  stroke-width="1.0"/>
<line x1="340.0" y1="137.2" x2="374.6" y2="117.2" stroke="rgb(0,0,0)"  stroke-width="1.0"/>
<line x1="348.8" y1="140.4" x2="373.0" y2="126.4" stroke="rgb(0,0,0)"  stroke-width="1.0"/>
<line x1="374.6" y1="117.2" x2="409.2" y2="137.2" stroke="rgb(0,0,0)"  stroke-width="1.0"/>
<line x1="409.2" y1="137.2" x2="409.2" y2="177.2" stroke="rgb(0,0,0)"  stroke-width="1.0"/>
<line x1="402.0" y1="143.2" x2="402.0" y2="171.2" stroke="rgb(0,0,0)"  stroke-width="1.0"/>
<line x1="374.6" y1="197.2" x2="340.0" y2="177.2" stroke="rgb(0,0,0)"  stroke-width="1.0"/>
<line x1="373.0" y1="188.0" x2="348.8" y2="174.0" stroke="rgb(0,0,0)"  stroke-width="1.0"/>
<line x1="340.0" y1="177.2" x2="340.0" y2="137.2" stroke="rgb(0,0,0)"  stroke-width="1.0"/>
<text x="295.144442" y="85.405986" fill="rgb(255,12,12)"  stroke="rgb(255,12,12)" stroke-width="1" font-size="16" >O</text>
<text x="203.657858" y="167.780876" fill="rgb(255,12,12)"  stroke="rgb(255,12,12)" stroke-width="1" font-size="16" >O</text>
<text x="376.924080" y="244.312766" fill="rgb(255,12,12)"  stroke="rgb(255,12,12)" stroke-width="1" font-size="16" >O</text>
<text x="432.974422" y="211.952086" fill="rgb(255,12,12)"  stroke="rgb(255,12,12)" stroke-width="1" font-size="16" >O</text>
<text x="57.511410" y="120.360680" fill="rgb(255,12,12)"  stroke="rgb(255,12,12)" stroke-width="1" font-size="16" >O</text>
<text x="57.511410" y="55.639320" fill="rgb(255,12,12)"  stroke="rgb(255,12,12)" stroke-width="1" font-size="16" >O</text>
<text font-size="18.000000" fill ="black" font-family="sans-serif"
x="10.000000" y="20.000000" ></text>
<title> - OBDepict</title>
</svg>
