<?xml version="1.0"?>
<svg xmlns="http://www.w3.org/2000/svg"
xmlns:xlink="http://www.w3.org/1999/xlink" xmlns:cml="http://www.xml-cml.org/schema" width="210.836" height="190.403" x="0" y="0" font-family="sans-serif" stroke="rgb(0,0,0)" stroke-width="1"  stroke-linecap="round">
<rect x="0%" y="0%" width="100%" height="100%" stroke-width="0" fill="rgb(255,255,255)"  />
<line x1="151.3" y1="65.7" x2="155.7" y2="52.4" stroke="rgb(0,0,0)"  stroke-width="1.0"/>
<line x1="170.8" y1="110.4" x2="155.0" y2="88.6" stroke="rgb(0,0,0)"  stroke-width="1.0"/>
<line x1="135.0" y1="82.1" x2="109.3" y2="90.4" stroke="rgb(0,0,0)"  stroke-width="1.0"/>
<line x1="109.3" y1="90.4" x2="109.3" y2="130.4" stroke="rgb(0,0,0)"  stroke-width="1.0"/>
<line x1="109.3" y1="130.4" x2="135.0" y2="138.7" stroke="rgb(0,0,0)"  stroke-width="1.0"/>
<line x1="155.1" y1="132.1" x2="170.8" y2="110.4" stroke="rgb(0,0,0)"  stroke-width="1.0"/>
<line x1="150.4" y1="126.2" x2="161.5" y2="111.0" stroke="rgb(0,0,0)"  stroke-width="1.0"/>
<line x1="40.0" y1="90.4" x2="40.0" y2="130.4" stroke="rgb(0,0,0)"  stroke-width="1.0"/>
<line x1="47.2" y1="96.4" x2="47.2" y2="124.4" stroke="rgb(0,0,0)"  stroke-width="1.0"/>
<line x1="40.0" y1="130.4" x2="74.6" y2="150.4" stroke="rgb(0,0,0)"  stroke-width="1.0"/>
<line x1="74.6" y1="150.4" x2="109.3" y2="130.4" stroke="rgb(0,0,0)"  stroke-width="1.0"/>
<line x1="76.2" y1="141.2" x2="100.5" y2="127.2" stroke="rgb(0,0,0)"  stroke-width="1.0"/>
<line x1="109.3" y1="90.4" x2="74.6" y2="70.4" stroke="rgb(0,0,0)"  stroke-width="1.0"/>
<line x1="100.5" y1="93.6" x2="76.2" y2="79.6" stroke="rgb(0,0,0)"  stroke-width="1.0"/>
<line x1="74.6" y1="70.4" x2="40.0" y2="90.4" stroke="rgb(0,0,0)"  stroke-width="1.0"/>
<text x="141.324293" y="86.042261" fill="rgb(12,12,255)"  stroke="rgb(12,12,255)" stroke-width="1" font-size="16" >N</text>
<text x="153.684973" y="48.000000" fill="rgb(191,191,191)"  stroke="rgb(191,191,191)" stroke-width="1" font-size="16" >H</text>
<text x="141.324293" y="150.763620" fill="rgb(12,12,255)"  stroke="rgb(12,12,255)" stroke-width="1" font-size="16" >N</text>
<text font-size="18.000000" fill ="black" font-family="sans-serif"
x="10.000000" y="20.000000" ></text>
<title> - OBDepict</title>
</svg>
