<?xml version="1.0"?>
<svg xmlns="http://www.w3.org/2000/svg"
xmlns:xlink="http://www.w3.org/1999/xlink" xmlns:cml="http://www.xml-cml.org/schema" width="183.923" height="300" x="0" y="0" font-family="sans-serif" stroke="rgb(0,0,0)" stroke-width="1"  stroke-linecap="round">
<rect x="0%" y="0%" width="100%" height="100%" stroke-width="0" fill="rgb(255,255,255)"  />
<line x1="109.3" y1="247.0" x2="109.3" y2="220.0" stroke="rgb(0,0,0)"  stroke-width="1.0"/>
<line x1="107.8" y1="217.4" x2="131.2" y2="203.9" stroke="rgb(0,0,0)"  stroke-width="1.0"/>
<line x1="110.8" y1="222.6" x2="134.2" y2="209.1" stroke="rgb(0,0,0)"  stroke-width="1.0"/>
<line x1="109.3" y1="220.0" x2="85.9" y2="206.5" stroke="rgb(0,0,0)"  stroke-width="1.0"/>
<line x1="74.6" y1="187.0" x2="74.6" y2="160.0" stroke="rgb(0,0,0)"  stroke-width="1.0"/>
<line x1="74.6" y1="80.0" x2="74.6" y2="53.0" stroke="rgb(0,0,0)"  stroke-width="1.0"/>
<line x1="74.6" y1="160.0" x2="40.0" y2="140.0" stroke="rgb(0,0,0)"  stroke-width="1.0"/>
<line x1="73.0" y1="150.8" x2="48.8" y2="136.8" stroke="rgb(0,0,0)"  stroke-width="1.0"/>
<line x1="40.0" y1="140.0" x2="40.0" y2="100.0" stroke="rgb(0,0,0)"  stroke-width="1.0"/>
<line x1="40.0" y1="100.0" x2="74.6" y2="80.0" stroke="rgb(0,0,0)"  stroke-width="1.0"/>
<line x1="48.8" y1="103.2" x2="73.0" y2="89.2" stroke="rgb(0,0,0)"  stroke-width="1.0"/>
<line x1="74.6" y1="80.0" x2="109.3" y2="100.0" stroke="rgb(0,0,0)"  stroke-width="1.0"/>
<line x1="109.3" y1="100.0" x2="109.3" y2="140.0" stroke="rgb(0,0,0)"  stroke-width="1.0"/>
<line x1="102.1" y1="106.0" x2="102.1" y2="134.0" stroke="rgb(0,0,0)"  stroke-width="1.0"/>
<line x1="109.3" y1="140.0" x2="74.6" y2="160.0" stroke="rgb(0,0,0)"  stroke-width="1.0"/>
<text x="105.282032" y="268.000000" fill="rgb(102,102,102)"  stroke="rgb(102,102,102)" stroke-width="1" font-size="16" >CH</text>
<text x="129.282032" y="271.680000" fill="rgb(102,102,102)"  stroke="rgb(102,102,102)" stroke-width="1" font-size="13" >3</text>
<text x="137.923048" y="208.000000" fill="rgb(255,12,12)"  stroke="rgb(255,12,12)" stroke-width="1" font-size="16" >O</text>
<text x="56.641016" y="208.000000" fill="rgb(12,12,255)"  stroke="rgb(12,12,255)" stroke-width="1" font-size="16" >HN</text>
<text x="68.641016" y="48.000000" fill="rgb(255,12,12)"  stroke="rgb(255,12,12)" stroke-width="1" font-size="16" >OH</text>
<text font-size="18.000000" fill ="black" font-family="sans-serif"
x="10.000000" y="20.000000" ></text>
<title> - OBDepict</title>
</svg>
