<?xml version="1.0"?>
<svg xmlns="http://www.w3.org/2000/svg"
xmlns:xlink="http://www.w3.org/1999/xlink" xmlns:cml="http://www.xml-cml.org/schema" width="168.902" height="215.976" x="0" y="0" font-family="sans-serif" stroke="rgb(0,0,0)" stroke-width="1"  stroke-linecap="round">
<rect x="0%" y="0%" width="100%" height="100%" stroke-width="0" fill="rgb(255,255,255)"  />
<polygon points="76.5418 136.195 53.6857 150.749 50.4319 143.441 " stroke-width="1" fill="rgb(0,0,0)"  stroke="rgb(0,0,0)" />
<line x1="76.5" y1="136.2" x2="72.4" y2="176.0" stroke="rgb(0,0,0)"  stroke-width="1.0"/>
<line x1="98.5" y1="69.6" x2="99.9" y2="70.4" stroke="rgb(0,0,0)"  stroke-width="1.0"/>
<line x1="100.1" y1="65.6" x2="102.6" y2="67.0" stroke="rgb(0,0,0)"  stroke-width="1.0"/>
<line x1="101.7" y1="61.5" x2="105.3" y2="63.6" stroke="rgb(0,0,0)"  stroke-width="1.0"/>
<line x1="103.3" y1="57.5" x2="108.0" y2="60.2" stroke="rgb(0,0,0)"  stroke-width="1.0"/>
<line x1="104.9" y1="53.5" x2="110.7" y2="56.8" stroke="rgb(0,0,0)"  stroke-width="1.0"/>
<line x1="106.5" y1="49.4" x2="113.4" y2="53.4" stroke="rgb(0,0,0)"  stroke-width="1.0"/>
<line x1="96.5" y1="74.6" x2="83.0" y2="51.3" stroke="rgb(0,0,0)"  stroke-width="1.0"/>
<line x1="116.5" y1="136.2" x2="76.5" y2="136.2" stroke="rgb(0,0,0)"  stroke-width="1.0"/>
<line x1="76.5" y1="136.2" x2="64.2" y2="98.2" stroke="rgb(0,0,0)"  stroke-width="1.0"/>
<line x1="64.2" y1="98.2" x2="96.5" y2="74.6" stroke="rgb(0,0,0)"  stroke-width="1.0"/>
<line x1="96.5" y1="74.6" x2="128.9" y2="98.2" stroke="rgb(0,0,0)"  stroke-width="1.0"/>
<line x1="128.9" y1="98.2" x2="116.5" y2="136.2" stroke="rgb(0,0,0)"  stroke-width="1.0"/>
<text x="34.000000" y="160.464153" fill="rgb(191,191,191)"  stroke="rgb(191,191,191)" stroke-width="1" font-size="16" >H</text>
<text x="110.541818" y="48.000000" fill="rgb(191,191,191)"  stroke="rgb(191,191,191)" stroke-width="1" font-size="16" >H</text>
<text x="58.541818" y="48.000000" fill="rgb(255,12,12)"  stroke="rgb(255,12,12)" stroke-width="1" font-size="16" >HO</text>
<text font-size="18.000000" fill ="black" font-family="sans-serif"
x="10.000000" y="20.000000" ></text>
<title> - OBDepict</title>
</svg>
