<?xml version="1.0"?>
<svg xmlns="http://www.w3.org/2000/svg"
xmlns:xlink="http://www.w3.org/1999/xlink" xmlns:cml="http://www.xml-cml.org/schema" width="468.271" height="270.389" x="0" y="0" font-family="sans-serif" stroke="rgb(0,0,0)" stroke-width="1"  stroke-linecap="round">
<rect x="0%" y="0%" width="100%" height="100%" stroke-width="0" fill="rgb(255,255,255)"  />
<line x1="167.4" y1="98.4" x2="201.1" y2="117.9" stroke="rgb(0,0,0)"  stroke-width="1.0"/>
<line x1="269.3" y1="196.7" x2="308.2" y2="196.7" stroke="rgb(0,0,0)"  stroke-width="1.0"/>
<line x1="55.2" y1="99.9" x2="40.0" y2="78.9" stroke="rgb(0,0,0)"  stroke-width="1.0"/>
<line x1="40.0" y1="78.9" x2="55.2" y2="58.0" stroke="rgb(0,0,0)"  stroke-width="1.0"/>
<line x1="75.3" y1="51.5" x2="99.9" y2="59.5" stroke="rgb(0,0,0)"  stroke-width="1.0"/>
<line x1="99.9" y1="59.5" x2="99.9" y2="98.4" stroke="rgb(0,0,0)"  stroke-width="1.0"/>
<line x1="92.7" y1="65.5" x2="92.7" y2="92.4" stroke="rgb(0,0,0)"  stroke-width="1.0"/>
<line x1="99.9" y1="98.4" x2="75.3" y2="106.4" stroke="rgb(0,0,0)"  stroke-width="1.0"/>
<line x1="201.1" y1="157.3" x2="201.1" y2="196.7" stroke="rgb(0,0,0)"  stroke-width="1.0"/>
<line x1="201.1" y1="196.7" x2="224.4" y2="209.9" stroke="rgb(0,0,0)"  stroke-width="1.0"/>
<line x1="246.9" y1="209.8" x2="269.3" y2="196.7" stroke="rgb(0,0,0)"  stroke-width="1.0"/>
<line x1="269.3" y1="196.7" x2="269.3" y2="157.3" stroke="rgb(0,0,0)"  stroke-width="1.0"/>
<line x1="269.3" y1="157.3" x2="201.1" y2="157.3" stroke="rgb(0,0,0)"  stroke-width="1.0"/>
<line x1="223.5" y1="104.8" x2="201.1" y2="117.9" stroke="rgb(0,0,0)"  stroke-width="1.0"/>
<line x1="201.1" y1="117.9" x2="201.1" y2="157.3" stroke="rgb(0,0,0)"  stroke-width="1.0"/>
<line x1="269.3" y1="157.3" x2="269.3" y2="117.9" stroke="rgb(0,0,0)"  stroke-width="1.0"/>
<line x1="269.3" y1="117.9" x2="246.0" y2="104.6" stroke="rgb(0,0,0)"  stroke-width="1.0"/>
<line x1="428.3" y1="149.8" x2="404.6" y2="139.3" stroke="rgb(0,0,0)"  stroke-width="1.0"/>
<line x1="384.0" y1="143.7" x2="366.6" y2="162.9" stroke="rgb(0,0,0)"  stroke-width="1.0"/>
<line x1="366.6" y1="162.9" x2="386.1" y2="196.7" stroke="rgb(0,0,0)"  stroke-width="1.0"/>
<line x1="386.1" y1="196.7" x2="411.5" y2="191.3" stroke="rgb(0,0,0)"  stroke-width="1.0"/>
<line x1="425.6" y1="175.6" x2="428.3" y2="149.8" stroke="rgb(0,0,0)"  stroke-width="1.0"/>
<line x1="167.4" y1="59.5" x2="133.6" y2="40.0" stroke="rgb(0,0,0)"  stroke-width="1.0"/>
<line x1="158.6" y1="62.7" x2="135.2" y2="49.2" stroke="rgb(0,0,0)"  stroke-width="1.0"/>
<line x1="133.6" y1="40.0" x2="99.9" y2="59.5" stroke="rgb(0,0,0)"  stroke-width="1.0"/>
<line x1="99.9" y1="98.4" x2="133.6" y2="117.9" stroke="rgb(0,0,0)"  stroke-width="1.0"/>
<line x1="133.6" y1="117.9" x2="167.4" y2="98.4" stroke="rgb(0,0,0)"  stroke-width="1.0"/>
<line x1="135.2" y1="108.6" x2="158.6" y2="95.2" stroke="rgb(0,0,0)"  stroke-width="1.0"/>
<line x1="167.4" y1="98.4" x2="167.4" y2="59.5" stroke="rgb(0,0,0)"  stroke-width="1.0"/>
<line x1="308.2" y1="196.7" x2="327.7" y2="230.4" stroke="rgb(0,0,0)"  stroke-width="1.0"/>
<line x1="317.5" y1="198.3" x2="330.9" y2="221.6" stroke="rgb(0,0,0)"  stroke-width="1.0"/>
<line x1="327.7" y1="230.4" x2="366.6" y2="230.4" stroke="rgb(0,0,0)"  stroke-width="1.0"/>
<line x1="366.6" y1="230.4" x2="386.1" y2="196.7" stroke="rgb(0,0,0)"  stroke-width="1.0"/>
<line x1="363.4" y1="221.6" x2="376.9" y2="198.3" stroke="rgb(0,0,0)"  stroke-width="1.0"/>
<line x1="366.6" y1="162.9" x2="327.7" y2="162.9" stroke="rgb(0,0,0)"  stroke-width="1.0"/>
<line x1="360.6" y1="170.1" x2="333.7" y2="170.1" stroke="rgb(0,0,0)"  stroke-width="1.0"/>
<line x1="327.7" y1="162.9" x2="308.2" y2="196.7" stroke="rgb(0,0,0)"  stroke-width="1.0"/>
<text x="229.711680" y="224.372949" fill="rgb(255,12,12)"  stroke="rgb(255,12,12)" stroke-width="1" font-size="16" >O</text>
<text x="228.671405" y="106.171698" fill="rgb(255,12,12)"  stroke="rgb(255,12,12)" stroke-width="1" font-size="16" >O</text>
<text x="386.698501" y="142.007497" fill="rgb(255,12,12)"  stroke="rgb(255,12,12)" stroke-width="1" font-size="16" >O</text>
<text x="418.200740" y="196.570976" fill="rgb(255,12,12)"  stroke="rgb(255,12,12)" stroke-width="1" font-size="16" >O</text>
<text x="56.887716" y="118.441148" fill="rgb(255,12,12)"  stroke="rgb(255,12,12)" stroke-width="1" font-size="16" >O</text>
<text x="56.887716" y="55.436670" fill="rgb(255,12,12)"  stroke="rgb(255,12,12)" stroke-width="1" font-size="16" >O</text>
<text font-size="18.000000" fill ="black" font-family="sans-serif"
x="10.000000" y="20.000000" ></text>
<title> - OBDepict</title>
</svg>
