<?xml version="1.0"?>
<svg version="1.1" id="topsvg"
xmlns="http://www.w3.org/2000/svg" xmlns:xlink="http://www.w3.org/1999/xlink"
xmlns:cml="http://www.xml-cml.org/schema" x="0" y="0" width="200px" height="200px" viewBox="0 0 100 100">
<title> - Open Babel Depiction</title>
<rect x="0" y="0" width="100" height="100" fill="white"/>
<g transform="translate(0,0)">
<svg width="100" height="100" x="0" y="0" viewBox="0 0 207.963 224.591"
font-family="sans-serif" stroke="rgb(0,0,0)" stroke-width="2"  stroke-linecap="round">
<line x1="62.4" y1="61.8" x2="65.2" y2="73.9" opacity="1.0" stroke="rgb(0,0,0)"  stroke-width="2.0"/>
<line x1="56.6" y1="63.2" x2="59.3" y2="75.3" opacity="1.0" stroke="rgb(0,0,0)"  stroke-width="2.0"/>
<line x1="47.1" y1="171.5" x2="52.0" y2="160.0" opacity="1.0" stroke="rgb(0,0,0)"  stroke-width="2.0"/>
<line x1="52.6" y1="173.8" x2="57.5" y2="162.3" opacity="1.0" stroke="rgb(0,0,0)"  stroke-width="2.0"/>
<polygon points="98.722136 89.769508 92.848125 77.427148 100.761588 76.253648 " stroke-width="2.000000" fill="rgb(0,0,0)"  stroke="rgb(0,0,0)" />
<polygon points="102.934677 151.845395 112.362389 161.756547 105.206972 165.334256 " stroke-width="2.000000" fill="rgb(0,0,0)"  stroke="rgb(0,0,0)" />
<polygon points="132.799937 65.187790 131.694489 51.549461 139.508954 53.262392 " stroke-width="2.000000" fill="rgb(0,0,0)"  stroke="rgb(0,0,0)" />
<line x1="133.9" y1="129.3" x2="132.5" y2="130.0" opacity="1.0" stroke="rgb(0,0,0)"  stroke-width="1.0"/>
<line x1="135.4" y1="130.9" x2="132.8" y2="132.1" opacity="1.0" stroke="rgb(0,0,0)"  stroke-width="1.0"/>
<line x1="136.8" y1="132.5" x2="133.1" y2="134.3" opacity="1.0" stroke="rgb(0,0,0)"  stroke-width="1.0"/>
<line x1="138.3" y1="134.2" x2="133.4" y2="136.5" opacity="1.0" stroke="rgb(0,0,0)"  stroke-width="1.0"/>
<line x1="139.8" y1="135.8" x2="133.7" y2="138.6" opacity="1.0" stroke="rgb(0,0,0)"  stroke-width="1.0"/>
<line x1="141.2" y1="137.4" x2="134.0" y2="140.8" opacity="1.0" stroke="rgb(0,0,0)"  stroke-width="1.0"/>
<line x1="48.5" y1="106.4" x2="56.6" y2="97.1" opacity="1.0" stroke="rgb(0,0,0)"  stroke-width="2.0"/>
<line x1="77.1" y1="92.4" x2="88.6" y2="97.2" opacity="1.0" stroke="rgb(0,0,0)"  stroke-width="2.0"/>
<line x1="99.5" y1="115.3" x2="98.4" y2="127.5" opacity="1.0" stroke="rgb(0,0,0)"  stroke-width="2.0"/>
<line x1="84.6" y1="143.4" x2="72.5" y2="146.2" opacity="1.0" stroke="rgb(0,0,0)"  stroke-width="2.0"/>
<line x1="53.1" y1="138.0" x2="46.7" y2="127.3" opacity="1.0" stroke="rgb(0,0,0)"  stroke-width="2.0"/>
<line x1="110.5" y1="94.0" x2="120.1" y2="85.9" opacity="1.0" stroke="rgb(0,0,0)"  stroke-width="2.0"/>
<line x1="119.4" y1="70.2" x2="109.2" y2="63.1" opacity="1.0" stroke="rgb(0,0,0)"  stroke-width="2.0"/>
<line x1="104.1" y1="67.4" x2="121.2" y2="104.0" opacity="1.0" stroke="rgb(0,0,0)"  stroke-width="2.0"/>
<line x1="116.8" y1="124.1" x2="107.2" y2="132.1" opacity="1.0" stroke="rgb(0,0,0)"  stroke-width="2.0"/>
<line x1="155.2" y1="73.1" x2="142.9" y2="75.3" opacity="1.0" stroke="rgb(0,0,0)"  stroke-width="2.0"/>
<line x1="139.6" y1="113.5" x2="151.8" y2="111.4" opacity="1.0" stroke="rgb(0,0,0)"  stroke-width="2.0"/>
<line x1="165.7" y1="96.5" x2="166.9" y2="83.4" opacity="1.0" stroke="rgb(0,0,0)"  stroke-width="2.0"/>
<line x1="158.7" y1="93.7" x2="159.5" y2="85.0" opacity="1.0" stroke="rgb(0,0,0)"  stroke-width="2.0"/>
<text x="92.558979" y="63.614926" fill="rgb(255,12,12)" stroke-width="0" font-weight="bold" font-size="16" >O</text>
<text x="34.000000" y="124.197951" fill="rgb(255,12,12)" stroke-width="0" font-weight="bold" font-size="16" >O</text>
<text x="50.628452" y="57.831509" fill="rgb(255,12,12)" stroke-width="0" font-weight="bold" font-size="16" >O</text>
<text x="38.772898" y="192.591446" fill="rgb(255,12,12)" stroke-width="0" font-weight="bold" font-size="16" >O</text>
<text x="94.583025" y="110.318351" fill="rgb(102,102,102)" stroke-width="0" font-weight="bold" font-size="16" >C</text>
<text x="91.256733" y="148.489506" fill="rgb(102,102,102)" stroke-width="0" font-weight="bold" font-size="16" >C</text>
<text x="124.080558" y="85.593716" fill="rgb(102,102,102)" stroke-width="0" font-weight="bold" font-size="16" >C</text>
<text x="120.754266" y="123.764871" fill="rgb(102,102,102)" stroke-width="0" font-weight="bold" font-size="16" >C</text>
<text x="161.962994" y="78.796772" fill="rgb(102,102,102)" stroke-width="0" font-weight="bold" font-size="16" >C</text>
<text x="161.962994" y="62.796772" fill="rgb(102,102,102)" stroke-width="0" font-weight="bold" font-size="16" >H</text>
<text x="158.636702" y="117.115295" fill="rgb(102,102,102)" stroke-width="0" font-weight="bold" font-size="16" >CH</text>
<text x="59.157715" y="95.280865" fill="rgb(102,102,102)" stroke-width="0" font-weight="bold" font-size="16" >C</text>
<text x="53.807377" y="157.166136" fill="rgb(102,102,102)" stroke-width="0" font-weight="bold" font-size="16" >C</text>
<text x="88.943968" y="72.291555" fill="rgb(191,191,191)" stroke-width="0" font-weight="bold" font-size="16" >H</text>
<text x="108.462625" y="182.901290" fill="rgb(191,191,191)" stroke-width="0" font-weight="bold" font-size="16" >H</text>
<text x="132.321101" y="48.000000" fill="rgb(191,191,191)" stroke-width="0" font-weight="bold" font-size="16" >H</text>
<text x="136.946631" y="158.612742" fill="rgb(191,191,191)" stroke-width="0" font-weight="bold" font-size="16" >H</text>
</svg>
</g>
<text font-size="18.000000" fill ="black" font-family="sans-serif"
x="10.000000" y="20.000000" ></text>
</svg>
