<?xml version="1.0"?>
<svg version="1.1" id="topsvg"
xmlns="http://www.w3.org/2000/svg" xmlns:xlink="http://www.w3.org/1999/xlink"
xmlns:cml="http://www.xml-cml.org/schema" x="0" y="0" width="200px" height="200px" viewBox="0 0 100 100">
<title> - Open Babel Depiction</title>
<rect x="0" y="0" width="100" height="100" fill="white"/>
<g transform="translate(0,0)">
<svg width="100" height="100" x="0" y="0" viewBox="0 0 207.963 224.591"
font-family="sans-serif" stroke="rgb(0,0,0)" stroke-width="2"  stroke-linecap="round">
<line x1="62.4" y1="61.8" x2="68.1" y2="86.6" opacity="1.0" stroke="rgb(0,0,0)"  stroke-width="2.0"/>
<line x1="56.6" y1="63.2" x2="62.2" y2="87.9" opacity="1.0" stroke="rgb(0,0,0)"  stroke-width="2.0"/>
<line x1="47.1" y1="171.5" x2="57.0" y2="148.0" opacity="1.0" stroke="rgb(0,0,0)"  stroke-width="2.0"/>
<line x1="52.6" y1="173.8" x2="62.6" y2="150.3" opacity="1.0" stroke="rgb(0,0,0)"  stroke-width="2.0"/>
<polygon points="100.583025 102.318351 92.848125 77.427148 100.761588 76.253648 " stroke-width="2.000000" fill="rgb(0,0,0)"  stroke="rgb(0,0,0)" />
<polygon points="97.256733 140.489506 112.362389 161.756547 105.206972 165.334256 " stroke-width="2.000000" fill="rgb(0,0,0)"  stroke="rgb(0,0,0)" />
<polygon points="130.080558 77.593716 131.694489 51.549461 139.508954 53.262392 " stroke-width="2.000000" fill="rgb(0,0,0)"  stroke="rgb(0,0,0)" />
<line x1="129.6" y1="120.1" x2="128.2" y2="120.8" opacity="1.0" stroke="rgb(0,0,0)"  stroke-width="1.0"/>
<line x1="132.0" y1="123.6" x2="129.4" y2="124.8" opacity="1.0" stroke="rgb(0,0,0)"  stroke-width="1.0"/>
<line x1="134.3" y1="127.0" x2="130.5" y2="128.8" opacity="1.0" stroke="rgb(0,0,0)"  stroke-width="1.0"/>
<line x1="136.6" y1="130.5" x2="131.7" y2="132.8" opacity="1.0" stroke="rgb(0,0,0)"  stroke-width="1.0"/>
<line x1="138.9" y1="134.0" x2="132.8" y2="136.8" opacity="1.0" stroke="rgb(0,0,0)"  stroke-width="1.0"/>
<line x1="141.2" y1="137.4" x2="134.0" y2="140.8" opacity="1.0" stroke="rgb(0,0,0)"  stroke-width="1.0"/>
<line x1="48.5" y1="106.4" x2="65.2" y2="87.3" opacity="1.0" stroke="rgb(0,0,0)"  stroke-width="2.0"/>
<line x1="65.2" y1="87.3" x2="100.6" y2="102.3" opacity="1.0" stroke="rgb(0,0,0)"  stroke-width="2.0"/>
<line x1="100.6" y1="102.3" x2="97.3" y2="140.5" opacity="1.0" stroke="rgb(0,0,0)"  stroke-width="2.0"/>
<line x1="97.3" y1="140.5" x2="59.8" y2="149.2" opacity="1.0" stroke="rgb(0,0,0)"  stroke-width="2.0"/>
<line x1="59.8" y1="149.2" x2="46.7" y2="127.3" opacity="1.0" stroke="rgb(0,0,0)"  stroke-width="2.0"/>
<line x1="100.6" y1="102.3" x2="130.1" y2="77.6" opacity="1.0" stroke="rgb(0,0,0)"  stroke-width="2.0"/>
<line x1="130.1" y1="77.6" x2="109.2" y2="63.1" opacity="1.0" stroke="rgb(0,0,0)"  stroke-width="2.0"/>
<line x1="104.1" y1="67.4" x2="126.8" y2="115.8" opacity="1.0" stroke="rgb(0,0,0)"  stroke-width="2.0"/>
<line x1="126.8" y1="115.8" x2="97.3" y2="140.5" opacity="1.0" stroke="rgb(0,0,0)"  stroke-width="2.0"/>
<line x1="168.0" y1="70.8" x2="130.1" y2="77.6" opacity="1.0" stroke="rgb(0,0,0)"  stroke-width="2.0"/>
<line x1="126.8" y1="115.8" x2="164.6" y2="109.1" opacity="1.0" stroke="rgb(0,0,0)"  stroke-width="2.0"/>
<line x1="164.6" y1="109.1" x2="168.0" y2="70.8" opacity="1.0" stroke="rgb(0,0,0)"  stroke-width="2.0"/>
<line x1="158.0" y1="102.5" x2="160.3" y2="76.2" opacity="1.0" stroke="rgb(0,0,0)"  stroke-width="2.0"/>
<text x="92.558979" y="63.614926" fill="rgb(255,12,12)" stroke-width="0" font-weight="bold" font-size="16" >O</text>
<text x="34.000000" y="124.197951" fill="rgb(255,12,12)" stroke-width="0" font-weight="bold" font-size="16" >O</text>
<text x="50.628452" y="57.831509" fill="rgb(255,12,12)" stroke-width="0" font-weight="bold" font-size="16" >O</text>
<text x="38.772898" y="192.591446" fill="rgb(255,12,12)" stroke-width="0" font-weight="bold" font-size="16" >O</text>
<text x="88.943968" y="72.291555" fill="rgb(191,191,191)" stroke-width="0" font-weight="bold" font-size="16" >H</text>
<text x="108.462625" y="182.901290" fill="rgb(191,191,191)" stroke-width="0" font-weight="bold" font-size="16" >H</text>
<text x="132.321101" y="48.000000" fill="rgb(191,191,191)" stroke-width="0" font-weight="bold" font-size="16" >H</text>
<text x="136.946631" y="158.612742" fill="rgb(191,191,191)" stroke-width="0" font-weight="bold" font-size="16" >H</text>
</svg>
</g>
<text font-size="18.000000" fill ="black" font-family="sans-serif"
x="10.000000" y="20.000000" ></text>
</svg>
