<?xml version="1.0"?>
<svg version="1.1" id="topsvg"
xmlns="http://www.w3.org/2000/svg" xmlns:xlink="http://www.w3.org/1999/xlink"
xmlns:cml="http://www.xml-cml.org/schema" x="0" y="0" width="200px" height="200px" viewBox="0 0 100 100">
<title> - Open Babel Depiction</title>
<rect x="0" y="0" width="100" height="100" fill="white"/>
<g transform="translate(0,0)">
<svg width="100" height="100" x="0" y="0" viewBox="0 0 422.148 205.712"
font-family="sans-serif" stroke="rgb(0,0,0)" stroke-width="2"  stroke-linecap="round">
<line x1="370.3" y1="91.9" x2="344.9" y2="80.6" opacity="1.0" stroke="rgb(0,0,0)"  stroke-width="2.0"/>
<line x1="345.0" y1="52.6" x2="347.9" y2="80.2" opacity="1.0" stroke="rgb(0,0,0)"  stroke-width="2.0"/>
<line x1="339.0" y1="53.2" x2="341.9" y2="80.9" opacity="1.0" stroke="rgb(0,0,0)"  stroke-width="2.0"/>
<line x1="52.8" y1="88.0" x2="76.8" y2="101.9" opacity="1.0" stroke="rgb(0,0,0)"  stroke-width="2.0"/>
<line x1="49.8" y1="93.2" x2="73.8" y2="107.1" opacity="1.0" stroke="rgb(0,0,0)"  stroke-width="2.0"/>
<line x1="269.1" y1="79.6" x2="269.3" y2="80.2" opacity="1.0" stroke="rgb(0,0,0)"  stroke-width="2.0"/>
<polygon points="311.893398 104.536294 342.540554 77.327419 347.242597 83.799728 " stroke-width="2.000000" fill="rgb(0,0,0)"  stroke="rgb(0,0,0)" />
<line x1="249.1" y1="127.9" x2="208.4" y2="127.9" opacity="1.0" stroke="rgb(0,0,0)"  stroke-width="2.0"/>
<line x1="249.1" y1="121.9" x2="208.4" y2="121.9" opacity="1.0" stroke="rgb(0,0,0)"  stroke-width="2.0"/>
<line x1="172.2" y1="96.1" x2="146.0" y2="104.5" opacity="1.0" stroke="rgb(0,0,0)"  stroke-width="2.0"/>
<line x1="146.0" y1="104.5" x2="146.0" y2="145.3" opacity="1.0" stroke="rgb(0,0,0)"  stroke-width="2.0"/>
<line x1="146.0" y1="145.3" x2="171.8" y2="153.6" opacity="1.0" stroke="rgb(0,0,0)"  stroke-width="2.0"/>
<line x1="153.9" y1="140.3" x2="172.2" y2="146.2" opacity="1.0" stroke="rgb(0,0,0)"  stroke-width="2.0"/>
<line x1="192.2" y1="147.2" x2="208.4" y2="124.9" opacity="1.0" stroke="rgb(0,0,0)"  stroke-width="2.0"/>
<line x1="208.4" y1="124.9" x2="192.2" y2="102.6" opacity="1.0" stroke="rgb(0,0,0)"  stroke-width="2.0"/>
<line x1="285.5" y1="95.9" x2="311.9" y2="104.5" opacity="1.0" stroke="rgb(0,0,0)"  stroke-width="2.0"/>
<line x1="311.9" y1="104.5" x2="311.9" y2="145.3" opacity="1.0" stroke="rgb(0,0,0)"  stroke-width="2.0"/>
<line x1="311.9" y1="145.3" x2="285.5" y2="153.9" opacity="1.0" stroke="rgb(0,0,0)"  stroke-width="2.0"/>
<line x1="265.5" y1="147.4" x2="249.1" y2="124.9" opacity="1.0" stroke="rgb(0,0,0)"  stroke-width="2.0"/>
<line x1="249.1" y1="124.9" x2="265.5" y2="102.4" opacity="1.0" stroke="rgb(0,0,0)"  stroke-width="2.0"/>
<line x1="146.0" y1="104.5" x2="110.6" y2="84.1" opacity="1.0" stroke="rgb(0,0,0)"  stroke-width="2.0"/>
<line x1="137.2" y1="107.8" x2="112.2" y2="93.4" opacity="1.0" stroke="rgb(0,0,0)"  stroke-width="2.0"/>
<line x1="110.6" y1="84.1" x2="75.3" y2="104.5" opacity="1.0" stroke="rgb(0,0,0)"  stroke-width="2.0"/>
<line x1="75.3" y1="104.5" x2="75.3" y2="145.3" opacity="1.0" stroke="rgb(0,0,0)"  stroke-width="2.0"/>
<line x1="75.3" y1="145.3" x2="110.6" y2="165.7" opacity="1.0" stroke="rgb(0,0,0)"  stroke-width="2.0"/>
<line x1="84.1" y1="142.1" x2="109.0" y2="156.5" opacity="1.0" stroke="rgb(0,0,0)"  stroke-width="2.0"/>
<line x1="110.6" y1="165.7" x2="146.0" y2="145.3" opacity="1.0" stroke="rgb(0,0,0)"  stroke-width="2.0"/>
<text x="267.107999" y="165.922296" fill="rgb(178,178,0)" stroke-width="0" font-weight="bold" font-size="16" >S</text>
<text x="178.550043" y="100.105390" fill="rgb(178,178,0)" stroke-width="0" font-weight="bold" font-size="16" >S</text>
<text x="376.147582" y="105.150347" fill="rgb(255,12,12)" stroke-width="0" font-weight="bold" font-size="16" >OH</text>
<text x="334.625589" y="48.000000" fill="rgb(255,12,12)" stroke-width="0" font-weight="bold" font-size="16" >O</text>
<text x="34.000000" y="92.144391" fill="rgb(255,12,12)" stroke-width="0" font-weight="bold" font-size="16" >O</text>
<text x="267.107999" y="99.930020" fill="rgb(12,12,255)" stroke-width="0" font-weight="bold" font-size="16" >N</text>
<text x="178.550043" y="165.746926" fill="rgb(12,12,255)" stroke-width="0" font-weight="bold" font-size="16" >N</text>
<text x="259.293822" y="75.883888" fill="rgb(191,191,191)" stroke-width="0" font-weight="bold" font-size="16" >H</text>
</svg>
</g>
<text font-size="18.000000" fill ="black" font-family="sans-serif"
x="10.000000" y="20.000000" ></text>
</svg>
