<?xml version="1.0"?>
<svg version="1.1" id="topsvg"
xmlns="http://www.w3.org/2000/svg" xmlns:xlink="http://www.w3.org/1999/xlink"
xmlns:cml="http://www.xml-cml.org/schema" x="0" y="0" width="200px" height="200px" viewBox="0 0 100 100">
<title> - Open Babel Depiction</title>
<rect x="0" y="0" width="100" height="100" fill="white"/>
<g transform="translate(0,0)">
<svg width="100" height="100" x="0" y="0" viewBox="0 0 193.914 173.914"
font-family="sans-serif" stroke="rgb(0,0,0)" stroke-width="2"  stroke-linecap="round">
<line x1="123.2" y1="60.3" x2="123.7" y2="61.8" opacity="1.0" stroke="rgb(0,0,0)"  stroke-width="1.0"/>
<line x1="129.1" y1="57.7" x2="130.0" y2="60.4" opacity="1.0" stroke="rgb(0,0,0)"  stroke-width="1.0"/>
<line x1="135.0" y1="55.1" x2="136.3" y2="59.1" opacity="1.0" stroke="rgb(0,0,0)"  stroke-width="1.0"/>
<line x1="140.9" y1="52.5" x2="142.6" y2="57.7" opacity="1.0" stroke="rgb(0,0,0)"  stroke-width="1.0"/>
<line x1="146.8" y1="49.9" x2="148.9" y2="56.3" opacity="1.0" stroke="rgb(0,0,0)"  stroke-width="1.0"/>
<line x1="152.7" y1="47.3" x2="155.2" y2="55.0" opacity="1.0" stroke="rgb(0,0,0)"  stroke-width="1.0"/>
<polygon points="63.511410 101.553671 50.994833 125.586467 44.522697 120.884185 " stroke-width="2.000000" fill="rgb(0,0,0)"  stroke="rgb(0,0,0)" />
<line x1="103.5" y1="101.6" x2="63.5" y2="101.6" opacity="1.0" stroke="rgb(0,0,0)"  stroke-width="2.0"/>
<line x1="63.5" y1="101.6" x2="51.2" y2="63.5" opacity="1.0" stroke="rgb(0,0,0)"  stroke-width="2.0"/>
<line x1="51.2" y1="63.5" x2="83.5" y2="40.0" opacity="1.0" stroke="rgb(0,0,0)"  stroke-width="2.0"/>
<line x1="83.5" y1="40.0" x2="115.9" y2="63.5" opacity="1.0" stroke="rgb(0,0,0)"  stroke-width="2.0"/>
<line x1="115.9" y1="63.5" x2="103.5" y2="101.6" opacity="1.0" stroke="rgb(0,0,0)"  stroke-width="2.0"/>
<text x="22.000000" y="141.914351" fill="rgb(255,12,12)" stroke-width="0" font-weight="bold" font-size="16" >HO</text>
</svg>
</g>
<text font-size="18.000000" fill ="black" font-family="sans-serif"
x="10.000000" y="20.000000" ></text>
</svg>
