<?xml version="1.0"?>
<svg version="1.1" id="topsvg"
xmlns="http://www.w3.org/2000/svg" xmlns:xlink="http://www.w3.org/1999/xlink"
xmlns:cml="http://www.xml-cml.org/schema" x="0" y="0" width="200px" height="200px" viewBox="0 0 100 100">
<title> - Open Babel Depiction</title>
<rect x="0" y="0" width="100" height="100" fill="white"/>
<g transform="translate(0,0)">
<svg width="100" height="100" x="0" y="0" viewBox="0 0 287.846 200"
font-family="sans-serif" stroke="rgb(0,0,0)" stroke-width="2"  stroke-linecap="round">
<line x1="236.6" y1="93.5" x2="224.5" y2="86.5" opacity="1.0" stroke="rgb(0,0,0)"  stroke-width="2.0"/>
<line x1="201.9" y1="86.5" x2="189.8" y2="93.5" opacity="1.0" stroke="rgb(0,0,0)"  stroke-width="2.0"/>
<line x1="98.0" y1="93.5" x2="85.9" y2="86.5" opacity="1.0" stroke="rgb(0,0,0)"  stroke-width="2.0"/>
<line x1="71.6" y1="67.0" x2="71.6" y2="53.0" opacity="1.0" stroke="rgb(0,0,0)"  stroke-width="2.0"/>
<line x1="77.6" y1="67.0" x2="77.6" y2="53.0" opacity="1.0" stroke="rgb(0,0,0)"  stroke-width="2.0"/>
<line x1="63.4" y1="86.5" x2="51.3" y2="93.5" opacity="1.0" stroke="rgb(0,0,0)"  stroke-width="2.0"/>
<line x1="132.7" y1="153.5" x2="120.5" y2="146.5" opacity="1.0" stroke="rgb(0,0,0)"  stroke-width="2.0"/>
<line x1="109.3" y1="126.8" x2="109.3" y2="113.2" opacity="1.0" stroke="rgb(0,0,0)"  stroke-width="2.0"/>
<line x1="116.5" y1="124.8" x2="116.5" y2="115.2" opacity="1.0" stroke="rgb(0,0,0)"  stroke-width="2.0"/>
<line x1="120.5" y1="93.5" x2="132.7" y2="86.5" opacity="1.0" stroke="rgb(0,0,0)"  stroke-width="2.0"/>
<line x1="155.4" y1="86.6" x2="167.1" y2="93.4" opacity="1.0" stroke="rgb(0,0,0)"  stroke-width="2.0"/>
<line x1="153.5" y1="93.8" x2="161.8" y2="98.6" opacity="1.0" stroke="rgb(0,0,0)"  stroke-width="2.0"/>
<line x1="178.6" y1="113.0" x2="178.6" y2="127.0" opacity="1.0" stroke="rgb(0,0,0)"  stroke-width="2.0"/>
<line x1="167.1" y1="146.6" x2="155.4" y2="153.4" opacity="1.0" stroke="rgb(0,0,0)"  stroke-width="2.0"/>
<line x1="161.8" y1="141.4" x2="153.5" y2="146.2" opacity="1.0" stroke="rgb(0,0,0)"  stroke-width="2.0"/>
<text x="243.846097" y="108.000000" fill="rgb(0,0,0)" stroke-width="0" font-weight="bold" font-size="16" >CH</text>
<text x="267.846097" y="111.680000" fill="rgb(0,0,0)" stroke-width="0" font-weight="bold" font-size="13" >3</text>
<text x="207.205081" y="88.000000" fill="rgb(0,0,0)" stroke-width="0" font-weight="bold" font-size="16" >C</text>
<text x="207.205081" y="72.000000" fill="rgb(0,0,0)" stroke-width="0" font-weight="bold" font-size="16" >H</text>
<text x="219.205081" y="75.680000" fill="rgb(0,0,0)" stroke-width="0" font-weight="bold" font-size="13" >2</text>
<text x="172.564065" y="108.000000" fill="rgb(0,0,0)" stroke-width="0" font-weight="bold" font-size="16" >C</text>
<text x="172.564065" y="148.000000" fill="rgb(0,0,0)" stroke-width="0" font-weight="bold" font-size="16" >CH</text>
<text x="137.923048" y="168.000000" fill="rgb(0,0,0)" stroke-width="0" font-weight="bold" font-size="16" >C</text>
<text x="137.923048" y="184.000000" fill="rgb(0,0,0)" stroke-width="0" font-weight="bold" font-size="16" >H</text>
<text x="91.282032" y="148.000000" fill="rgb(0,0,0)" stroke-width="0" font-weight="bold" font-size="16" >HC</text>
<text x="103.282032" y="108.000000" fill="rgb(0,0,0)" stroke-width="0" font-weight="bold" font-size="16" >C</text>
<text x="137.923048" y="88.000000" fill="rgb(0,0,0)" stroke-width="0" font-weight="bold" font-size="16" >C</text>
<text x="137.923048" y="72.000000" fill="rgb(0,0,0)" stroke-width="0" font-weight="bold" font-size="16" >H</text>
<text x="68.641016" y="88.000000" fill="rgb(0,0,0)" stroke-width="0" font-weight="bold" font-size="16" >C</text>
<text x="68.641016" y="48.000000" fill="rgb(0,0,0)" stroke-width="0" font-weight="bold" font-size="16" >O</text>
<text x="22.000000" y="108.000000" fill="rgb(0,0,0)" stroke-width="0" font-weight="bold" font-size="16" >Cl</text>
</svg>
</g>
<text font-size="18.000000" fill ="black" font-family="sans-serif"
x="10.000000" y="20.000000" ></text>
</svg>
