<?xml version="1.0"?>
<svg version="1.1" id="topsvg"
xmlns="http://www.w3.org/2000/svg" xmlns:xlink="http://www.w3.org/1999/xlink"
xmlns:cml="http://www.xml-cml.org/schema" x="0" y="0" width="200px" height="200px" viewBox="0 0 100 100">
<title> - Open Babel Depiction</title>
<rect x="0" y="0" width="100" height="100" fill="white"/>
<g transform="translate(0,0)">
<svg width="100" height="100" x="0" y="0" viewBox="0 0 193.914 173.914"
font-family="sans-serif" stroke="rgb(0,0,0)" stroke-width="4"  stroke-linecap="round">
<line x1="120.7" y1="61.1" x2="121.2" y2="62.6" opacity="1.0" stroke="rgb(0,0,0)"  stroke-width="1.0"/>
<line x1="124.6" y1="59.2" x2="125.5" y2="61.9" opacity="1.0" stroke="rgb(0,0,0)"  stroke-width="1.0"/>
<line x1="128.5" y1="57.2" x2="129.8" y2="61.2" opacity="1.0" stroke="rgb(0,0,0)"  stroke-width="1.0"/>
<line x1="132.4" y1="55.3" x2="134.0" y2="60.5" opacity="1.0" stroke="rgb(0,0,0)"  stroke-width="1.0"/>
<line x1="136.2" y1="53.4" x2="138.3" y2="59.8" opacity="1.0" stroke="rgb(0,0,0)"  stroke-width="1.0"/>
<line x1="140.1" y1="51.4" x2="142.6" y2="59.0" opacity="1.0" stroke="rgb(0,0,0)"  stroke-width="1.0"/>
<polygon points="63.511410 101.553671 50.994833 125.586467 44.522697 120.884185 " stroke-width="4.000000" fill="rgb(0,0,0)"  stroke="rgb(0,0,0)" />
<line x1="103.5" y1="101.6" x2="63.5" y2="101.6" opacity="1.0" stroke="rgb(0,0,0)"  stroke-width="4.0"/>
<line x1="63.5" y1="101.6" x2="51.2" y2="63.5" opacity="1.0" stroke="rgb(0,0,0)"  stroke-width="4.0"/>
<line x1="51.2" y1="63.5" x2="83.5" y2="40.0" opacity="1.0" stroke="rgb(0,0,0)"  stroke-width="4.0"/>
<line x1="83.5" y1="40.0" x2="115.9" y2="63.5" opacity="1.0" stroke="rgb(0,0,0)"  stroke-width="4.0"/>
<line x1="115.9" y1="63.5" x2="103.5" y2="101.6" opacity="1.0" stroke="rgb(0,0,0)"  stroke-width="4.0"/>
<text x="149.914351" y="59.150730" fill="rgb(102,102,102)" stroke-width="0" font-weight="bold" font-size="16" >CH</text>
<text x="173.914351" y="62.830730" fill="rgb(102,102,102)" stroke-width="0" font-weight="bold" font-size="13" >3</text>
<text x="22.000000" y="141.914351" fill="rgb(255,12,12)" stroke-width="0" font-weight="bold" font-size="16" >HO</text>
</svg>
</g>
<text font-size="18.000000" fill ="black" font-family="sans-serif"
x="10.000000" y="20.000000" ></text>
</svg>
