<?xml version="1.0"?>
<svg xmlns="http://www.w3.org/2000/svg"
xmlns:xlink="http://www.w3.org/1999/xlink" xmlns:cml="http://www.xml-cml.org/schema" width="541.38" height="304.735" x="0" y="0" font-family="sans-serif" stroke="rgb(0,0,0)" stroke-width="1"  stroke-linecap="round">
<rect x="0%" y="0%" width="100%" height="100%" stroke-width="0" fill="rgb(255,255,255)"  />
<line x1="325.4" y1="193.3" x2="325.4" y2="152.5" stroke="rgb(0,0,0)"  stroke-width="1.0"/>
<line x1="338.0" y1="224.0" x2="338.0" y2="251.7" stroke="rgb(0,0,0)"  stroke-width="1.0"/>
<line x1="378.8" y1="224.0" x2="378.8" y2="251.7" stroke="rgb(0,0,0)"  stroke-width="1.0"/>
<line x1="391.4" y1="193.3" x2="391.4" y2="165.5" stroke="rgb(0,0,0)"  stroke-width="1.0"/>
<line x1="325.4" y1="152.5" x2="297.6" y2="152.5" stroke="rgb(0,0,0)"  stroke-width="1.0"/>
<line x1="466.1" y1="80.8" x2="466.1" y2="53.0" stroke="rgb(0,0,0)"  stroke-width="1.0"/>
<line x1="271.6" y1="152.5" x2="256.9" y2="152.5" stroke="rgb(0,0,0)"  stroke-width="1.0"/>
<line x1="230.9" y1="152.5" x2="216.1" y2="152.5" stroke="rgb(0,0,0)"  stroke-width="1.0"/>
<line x1="190.1" y1="152.5" x2="175.3" y2="152.5" stroke="rgb(0,0,0)"  stroke-width="1.0"/>
<line x1="149.3" y1="152.5" x2="134.5" y2="152.5" stroke="rgb(0,0,0)"  stroke-width="1.0"/>
<line x1="108.5" y1="152.5" x2="93.8" y2="152.5" stroke="rgb(0,0,0)"  stroke-width="1.0"/>
<line x1="67.8" y1="152.5" x2="53.0" y2="152.5" stroke="rgb(0,0,0)"  stroke-width="1.0"/>
<line x1="80.8" y1="165.5" x2="80.8" y2="180.3" stroke="rgb(0,0,0)"  stroke-width="1.0"/>
<line x1="162.3" y1="165.5" x2="162.3" y2="180.3" stroke="rgb(0,0,0)"  stroke-width="1.0"/>
<line x1="243.9" y1="165.5" x2="243.9" y2="180.3" stroke="rgb(0,0,0)"  stroke-width="1.0"/>
<line x1="240.9" y1="139.5" x2="240.9" y2="124.7" stroke="rgb(0,0,0)"  stroke-width="1.0"/>
<line x1="246.9" y1="139.5" x2="246.9" y2="124.7" stroke="rgb(0,0,0)"  stroke-width="1.0"/>
<line x1="159.3" y1="139.5" x2="159.3" y2="124.7" stroke="rgb(0,0,0)"  stroke-width="1.0"/>
<line x1="165.3" y1="139.5" x2="165.3" y2="124.7" stroke="rgb(0,0,0)"  stroke-width="1.0"/>
<line x1="77.8" y1="139.5" x2="77.8" y2="124.7" stroke="rgb(0,0,0)"  stroke-width="1.0"/>
<line x1="83.8" y1="139.5" x2="83.8" y2="124.7" stroke="rgb(0,0,0)"  stroke-width="1.0"/>
<line x1="346.7" y1="183.0" x2="325.4" y2="193.3" stroke="rgb(0,0,0)"  stroke-width="1.0"/>
<line x1="325.4" y1="193.3" x2="338.0" y2="224.0" stroke="rgb(0,0,0)"  stroke-width="1.0"/>
<line x1="338.0" y1="224.0" x2="378.8" y2="224.0" stroke="rgb(0,0,0)"  stroke-width="1.0"/>
<line x1="378.8" y1="224.0" x2="391.4" y2="193.3" stroke="rgb(0,0,0)"  stroke-width="1.0"/>
<line x1="391.4" y1="193.3" x2="370.1" y2="183.0" stroke="rgb(0,0,0)"  stroke-width="1.0"/>
<line x1="369.2" y1="118.3" x2="386.4" y2="97.1" stroke="rgb(0,0,0)"  stroke-width="1.0"/>
<line x1="378.5" y1="118.2" x2="390.8" y2="103.1" stroke="rgb(0,0,0)"  stroke-width="1.0"/>
<line x1="406.9" y1="91.5" x2="430.8" y2="101.2" stroke="rgb(0,0,0)"  stroke-width="1.0"/>
<line x1="430.8" y1="101.2" x2="430.8" y2="141.9" stroke="rgb(0,0,0)"  stroke-width="1.0"/>
<line x1="430.8" y1="141.9" x2="403.9" y2="149.1" stroke="rgb(0,0,0)"  stroke-width="1.0"/>
<line x1="384.3" y1="141.6" x2="369.2" y2="118.3" stroke="rgb(0,0,0)"  stroke-width="1.0"/>
<line x1="501.4" y1="141.9" x2="477.3" y2="155.8" stroke="rgb(0,0,0)"  stroke-width="1.0"/>
<line x1="454.4" y1="155.6" x2="430.8" y2="141.9" stroke="rgb(0,0,0)"  stroke-width="1.0"/>
<line x1="456.4" y1="148.4" x2="439.6" y2="138.7" stroke="rgb(0,0,0)"  stroke-width="1.0"/>
<line x1="430.8" y1="101.2" x2="466.1" y2="80.8" stroke="rgb(0,0,0)"  stroke-width="1.0"/>
<line x1="439.6" y1="104.4" x2="464.5" y2="90.0" stroke="rgb(0,0,0)"  stroke-width="1.0"/>
<line x1="466.1" y1="80.8" x2="490.1" y2="94.7" stroke="rgb(0,0,0)"  stroke-width="1.0"/>
<line x1="501.4" y1="114.6" x2="501.4" y2="141.9" stroke="rgb(0,0,0)"  stroke-width="1.0"/>
<line x1="494.2" y1="116.5" x2="494.2" y2="135.9" stroke="rgb(0,0,0)"  stroke-width="1.0"/>
<text x="352.393481" y="185.367220" fill="rgb(255,12,12)"  stroke="rgb(255,12,12)" stroke-width="1" font-size="16" >O</text>
<text x="332.007084" y="272.734658" fill="rgb(255,12,12)"  stroke="rgb(255,12,12)" stroke-width="1" font-size="16" >OH</text>
<text x="372.779877" y="272.734658" fill="rgb(255,12,12)"  stroke="rgb(255,12,12)" stroke-width="1" font-size="16" >OH</text>
<text x="278.636737" y="160.488409" fill="rgb(255,12,12)"  stroke="rgb(255,12,12)" stroke-width="1" font-size="16" >O</text>
<text x="385.377432" y="160.488409" fill="rgb(12,12,255)"  stroke="rgb(12,12,255)" stroke-width="1" font-size="16" >N</text>
<text x="495.379963" y="109.159169" fill="rgb(12,12,255)"  stroke="rgb(12,12,255)" stroke-width="1" font-size="16" >N</text>
<text x="460.073198" y="170.318358" fill="rgb(12,12,255)"  stroke="rgb(12,12,255)" stroke-width="1" font-size="16" >N</text>
<text x="388.832008" y="94.604517" fill="rgb(12,12,255)"  stroke="rgb(12,12,255)" stroke-width="1" font-size="16" >N</text>
<text x="462.073198" y="48.000000" fill="rgb(12,12,255)"  stroke="rgb(12,12,255)" stroke-width="1" font-size="16" >NH</text>
<text x="486.073198" y="51.680000" fill="rgb(12,12,255)"  stroke="rgb(12,12,255)" stroke-width="1" font-size="13" >2</text>
<text x="237.863965" y="160.488409" fill="rgb(255,127,0)"  stroke="rgb(255,127,0)" stroke-width="1" font-size="16" >P</text>
<text x="197.091172" y="160.488409" fill="rgb(255,12,12)"  stroke="rgb(255,12,12)" stroke-width="1" font-size="16" >O</text>
<text x="156.318379" y="160.488409" fill="rgb(255,127,0)"  stroke="rgb(255,127,0)" stroke-width="1" font-size="16" >P</text>
<text x="115.545586" y="160.488409" fill="rgb(255,12,12)"  stroke="rgb(255,12,12)" stroke-width="1" font-size="16" >O</text>
<text x="74.772793" y="160.488409" fill="rgb(255,127,0)"  stroke="rgb(255,127,0)" stroke-width="1" font-size="16" >P</text>
<text x="22.000000" y="160.488409" fill="rgb(255,12,12)"  stroke="rgb(255,12,12)" stroke-width="1" font-size="16" >HO</text>
<text x="74.772793" y="201.261202" fill="rgb(255,12,12)"  stroke="rgb(255,12,12)" stroke-width="1" font-size="16" >OH</text>
<text x="156.318379" y="201.261202" fill="rgb(255,12,12)"  stroke="rgb(255,12,12)" stroke-width="1" font-size="16" >OH</text>
<text x="237.863965" y="201.261202" fill="rgb(255,12,12)"  stroke="rgb(255,12,12)" stroke-width="1" font-size="16" >OH</text>
<text x="237.863965" y="119.715616" fill="rgb(255,12,12)"  stroke="rgb(255,12,12)" stroke-width="1" font-size="16" >O</text>
<text x="156.318379" y="119.715616" fill="rgb(255,12,12)"  stroke="rgb(255,12,12)" stroke-width="1" font-size="16" >O</text>
<text x="74.772793" y="119.715616" fill="rgb(255,12,12)"  stroke="rgb(255,12,12)" stroke-width="1" font-size="16" >O</text>
<text font-size="18.000000" fill ="black" font-family="sans-serif"
x="10.000000" y="20.000000" >draw/ATP.cdx</text>
<title>draw/ATP.cdx - OBDepict</title>
</svg>
