<?xml version="1.0"?>
<svg xmlns="http://www.w3.org/2000/svg"
xmlns:xlink="http://www.w3.org/1999/xlink" xmlns:cml="http://www.xml-cml.org/schema" width="231.985" height="200.22" x="0" y="0" font-family="sans-serif" stroke="rgb(0,0,0)" stroke-width="1"  stroke-linecap="round">
<rect x="0%" y="0%" width="100%" height="100%" stroke-width="0" fill="rgb(255,255,255)"  />
<line x1="53.4" y1="152.6" x2="65.6" y2="143.8" stroke="rgb(0,0,0)"  stroke-width="1.0"/>
<line x1="65.6" y1="143.8" x2="40.0" y2="132.4" stroke="rgb(0,0,0)"  stroke-width="1.0"/>
<line x1="40.0" y1="132.4" x2="41.6" y2="147.3" stroke="rgb(0,0,0)"  stroke-width="1.0"/>
<line x1="84.3" y1="123.0" x2="70.3" y2="98.6" stroke="rgb(0,0,0)"  stroke-width="1.0"/>
<line x1="70.3" y1="98.6" x2="42.9" y2="104.5" stroke="rgb(0,0,0)"  stroke-width="1.0"/>
<line x1="42.9" y1="104.5" x2="40.0" y2="132.4" stroke="rgb(0,0,0)"  stroke-width="1.0"/>
<line x1="65.6" y1="143.8" x2="84.3" y2="123.0" stroke="rgb(0,0,0)"  stroke-width="1.0"/>
<line x1="140.4" y1="67.7" x2="70.3" y2="98.6" stroke="rgb(0,0,0)"  stroke-width="1.0"/>
<line x1="84.3" y1="123.0" x2="133.1" y2="94.9" stroke="rgb(0,0,0)"  stroke-width="1.0"/>
<line x1="133.1" y1="94.9" x2="119.7" y2="40.0" stroke="rgb(0,0,0)"  stroke-width="1.0"/>
<line x1="119.7" y1="40.0" x2="140.4" y2="67.7" stroke="rgb(0,0,0)"  stroke-width="1.0"/>
<line x1="184.7" y1="116.2" x2="192.0" y2="89.0" stroke="rgb(0,0,0)"  stroke-width="1.0"/>
<line x1="179.3" y1="108.6" x2="183.5" y2="93.0" stroke="rgb(0,0,0)"  stroke-width="1.0"/>
<line x1="192.0" y1="89.0" x2="140.4" y2="67.7" stroke="rgb(0,0,0)"  stroke-width="1.0"/>
<line x1="133.1" y1="94.9" x2="184.7" y2="116.2" stroke="rgb(0,0,0)"  stroke-width="1.0"/>
<text x="36.894571" y="168.220436" fill="rgb(255,12,12)"  stroke="rgb(255,12,12)" stroke-width="1" font-size="16" >O</text>
<text font-size="18.000000" fill ="black" font-family="sans-serif"
x="10.000000" y="20.000000" ></text>
<title> - OBDepict</title>
</svg>
