<?xml version="1.0"?>
<svg xmlns="http://www.w3.org/2000/svg"
xmlns:xlink="http://www.w3.org/1999/xlink" xmlns:cml="http://www.xml-cml.org/schema" width="332.654" height="327.662" x="0" y="0" font-family="sans-serif" stroke="rgb(0,0,0)" stroke-width="1"  stroke-linecap="round">
<rect x="0%" y="0%" width="100%" height="100%" stroke-width="0" fill="rgb(255,255,255)"  />
<line x1="157.5" y1="287.7" x2="147.4" y2="286.0" stroke="rgb(0,0,0)"  stroke-width="1.0"/>
<line x1="152.7" y1="279.6" x2="154.5" y2="279.9" stroke="rgb(0,0,0)"  stroke-width="1.0"/>
<line x1="147.4" y1="286.0" x2="191.1" y2="276.8" stroke="rgb(0,0,0)"  stroke-width="1.0"/>
<line x1="191.1" y1="276.8" x2="228.2" y2="272.8" stroke="rgb(0,0,0)"  stroke-width="1.0"/>
<line x1="197.8" y1="283.3" x2="223.0" y2="280.6" stroke="rgb(0,0,0)"  stroke-width="1.0"/>
<line x1="228.2" y1="272.8" x2="207.4" y2="279.5" stroke="rgb(0,0,0)"  stroke-width="1.0"/>
<line x1="207.4" y1="279.5" x2="157.5" y2="287.7" stroke="rgb(0,0,0)"  stroke-width="1.0"/>
<line x1="158.4" y1="178.6" x2="147.9" y2="225.7" stroke="rgb(0,0,0)"  stroke-width="1.0"/>
<line x1="147.9" y1="225.7" x2="191.4" y2="246.6" stroke="rgb(0,0,0)"  stroke-width="1.0"/>
<line x1="191.4" y1="246.6" x2="228.8" y2="212.5" stroke="rgb(0,0,0)"  stroke-width="1.0"/>
<line x1="191.0" y1="237.3" x2="219.5" y2="211.2" stroke="rgb(0,0,0)"  stroke-width="1.0"/>
<line x1="228.8" y1="212.5" x2="208.4" y2="170.4" stroke="rgb(0,0,0)"  stroke-width="1.0"/>
<line x1="208.4" y1="170.4" x2="158.4" y2="178.6" stroke="rgb(0,0,0)"  stroke-width="1.0"/>
<line x1="203.6" y1="178.5" x2="165.5" y2="184.7" stroke="rgb(0,0,0)"  stroke-width="1.0"/>
<line x1="292.7" y1="164.3" x2="282.6" y2="162.5" stroke="rgb(0,0,0)"  stroke-width="1.0"/>
<line x1="285.5" y1="170.3" x2="287.3" y2="170.6" stroke="rgb(0,0,0)"  stroke-width="1.0"/>
<line x1="282.6" y1="162.5" x2="265.8" y2="208.6" stroke="rgb(0,0,0)"  stroke-width="1.0"/>
<line x1="265.8" y1="208.6" x2="265.5" y2="238.7" stroke="rgb(0,0,0)"  stroke-width="1.0"/>
<line x1="273.0" y1="214.6" x2="272.8" y2="232.8" stroke="rgb(0,0,0)"  stroke-width="1.0"/>
<line x1="265.5" y1="238.7" x2="282.1" y2="211.3" stroke="rgb(0,0,0)"  stroke-width="1.0"/>
<line x1="282.1" y1="211.3" x2="292.7" y2="164.3" stroke="rgb(0,0,0)"  stroke-width="1.0"/>
<line x1="141.3" y1="81.0" x2="103.9" y2="115.2" stroke="rgb(0,0,0)"  stroke-width="1.0"/>
<line x1="141.7" y1="90.4" x2="113.2" y2="116.4" stroke="rgb(0,0,0)"  stroke-width="1.0"/>
<line x1="103.9" y1="115.2" x2="124.2" y2="157.2" stroke="rgb(0,0,0)"  stroke-width="1.0"/>
<line x1="124.2" y1="157.2" x2="174.2" y2="149.1" stroke="rgb(0,0,0)"  stroke-width="1.0"/>
<line x1="129.0" y1="149.1" x2="167.1" y2="142.9" stroke="rgb(0,0,0)"  stroke-width="1.0"/>
<line x1="174.2" y1="149.1" x2="184.7" y2="102.0" stroke="rgb(0,0,0)"  stroke-width="1.0"/>
<line x1="184.7" y1="102.0" x2="141.3" y2="81.0" stroke="rgb(0,0,0)"  stroke-width="1.0"/>
<line x1="67.1" y1="89.0" x2="50.5" y2="116.3" stroke="rgb(0,0,0)"  stroke-width="1.0"/>
<line x1="50.5" y1="116.3" x2="40.0" y2="163.4" stroke="rgb(0,0,0)"  stroke-width="1.0"/>
<line x1="40.0" y1="163.4" x2="50.1" y2="165.1" stroke="rgb(0,0,0)"  stroke-width="1.0"/>
<line x1="47.1" y1="157.3" x2="45.4" y2="157.0" stroke="rgb(0,0,0)"  stroke-width="1.0"/>
<line x1="50.1" y1="165.1" x2="66.8" y2="119.1" stroke="rgb(0,0,0)"  stroke-width="1.0"/>
<line x1="66.8" y1="119.1" x2="67.1" y2="89.0" stroke="rgb(0,0,0)"  stroke-width="1.0"/>
<line x1="59.7" y1="113.0" x2="59.9" y2="94.9" stroke="rgb(0,0,0)"  stroke-width="1.0"/>
<line x1="208.5" y1="59.2" x2="191.9" y2="86.6" stroke="rgb(0,0,0)"  stroke-width="1.0"/>
<line x1="211.6" y1="68.1" x2="201.2" y2="85.2" stroke="rgb(0,0,0)"  stroke-width="1.0"/>
<line x1="191.9" y1="86.6" x2="225.2" y2="124.5" stroke="rgb(0,0,0)"  stroke-width="1.0"/>
<line x1="225.2" y1="124.5" x2="262.3" y2="120.5" stroke="rgb(0,0,0)"  stroke-width="1.0"/>
<line x1="230.4" y1="116.7" x2="255.5" y2="114.0" stroke="rgb(0,0,0)"  stroke-width="1.0"/>
<line x1="262.3" y1="120.5" x2="252.0" y2="80.2" stroke="rgb(0,0,0)"  stroke-width="1.0"/>
<line x1="252.0" y1="80.2" x2="208.5" y2="59.2" stroke="rgb(0,0,0)"  stroke-width="1.0"/>
<line x1="71.0" y1="196.9" x2="104.2" y2="234.9" stroke="rgb(0,0,0)"  stroke-width="1.0"/>
<line x1="104.2" y1="234.9" x2="104.0" y2="265.0" stroke="rgb(0,0,0)"  stroke-width="1.0"/>
<line x1="104.0" y1="265.0" x2="70.6" y2="245.8" stroke="rgb(0,0,0)"  stroke-width="1.0"/>
<line x1="102.4" y1="255.8" x2="79.4" y2="242.5" stroke="rgb(0,0,0)"  stroke-width="1.0"/>
<line x1="70.6" y1="245.8" x2="50.2" y2="203.7" stroke="rgb(0,0,0)"  stroke-width="1.0"/>
<line x1="50.2" y1="203.7" x2="71.0" y2="196.9" stroke="rgb(0,0,0)"  stroke-width="1.0"/>
<line x1="58.2" y1="208.7" x2="67.5" y2="205.6" stroke="rgb(0,0,0)"  stroke-width="1.0"/>
<line x1="262.0" y1="81.9" x2="282.4" y2="124.0" stroke="rgb(0,0,0)"  stroke-width="1.0"/>
<line x1="282.4" y1="124.0" x2="261.6" y2="130.7" stroke="rgb(0,0,0)"  stroke-width="1.0"/>
<line x1="274.5" y1="119.0" x2="265.1" y2="122.0" stroke="rgb(0,0,0)"  stroke-width="1.0"/>
<line x1="261.6" y1="130.7" x2="228.4" y2="92.8" stroke="rgb(0,0,0)"  stroke-width="1.0"/>
<line x1="228.4" y1="92.8" x2="228.7" y2="62.7" stroke="rgb(0,0,0)"  stroke-width="1.0"/>
<line x1="228.7" y1="62.7" x2="262.0" y2="81.9" stroke="rgb(0,0,0)"  stroke-width="1.0"/>
<line x1="251.1" y1="177.7" x2="207.4" y2="186.9" stroke="rgb(0,0,0)"  stroke-width="1.0"/>
<line x1="246.7" y1="186.0" x2="214.7" y2="192.7" stroke="rgb(0,0,0)"  stroke-width="1.0"/>
<line x1="207.4" y1="186.9" x2="190.6" y2="232.9" stroke="rgb(0,0,0)"  stroke-width="1.0"/>
<line x1="190.6" y1="232.9" x2="224.0" y2="252.2" stroke="rgb(0,0,0)"  stroke-width="1.0"/>
<line x1="224.0" y1="252.2" x2="261.4" y2="218.1" stroke="rgb(0,0,0)"  stroke-width="1.0"/>
<line x1="261.4" y1="218.1" x2="251.1" y2="177.7" stroke="rgb(0,0,0)"  stroke-width="1.0"/>
<line x1="107.5" y1="203.2" x2="70.4" y2="207.1" stroke="rgb(0,0,0)"  stroke-width="1.0"/>
<line x1="102.3" y1="211.0" x2="77.1" y2="213.6" stroke="rgb(0,0,0)"  stroke-width="1.0"/>
<line x1="70.4" y1="207.1" x2="80.7" y2="247.5" stroke="rgb(0,0,0)"  stroke-width="1.0"/>
<line x1="80.7" y1="247.5" x2="124.1" y2="268.4" stroke="rgb(0,0,0)"  stroke-width="1.0"/>
<line x1="89.2" y1="243.6" x2="121.9" y2="259.4" stroke="rgb(0,0,0)"  stroke-width="1.0"/>
<line x1="124.1" y1="268.4" x2="140.7" y2="241.1" stroke="rgb(0,0,0)"  stroke-width="1.0"/>
<line x1="140.7" y1="241.1" x2="107.5" y2="203.2" stroke="rgb(0,0,0)"  stroke-width="1.0"/>
<line x1="185.3" y1="41.7" x2="141.5" y2="50.9" stroke="rgb(0,0,0)"  stroke-width="1.0"/>
<line x1="141.5" y1="50.9" x2="104.4" y2="54.9" stroke="rgb(0,0,0)"  stroke-width="1.0"/>
<line x1="134.8" y1="44.4" x2="109.6" y2="47.1" stroke="rgb(0,0,0)"  stroke-width="1.0"/>
<line x1="104.4" y1="54.9" x2="125.2" y2="48.1" stroke="rgb(0,0,0)"  stroke-width="1.0"/>
<line x1="125.2" y1="48.1" x2="175.2" y2="40.0" stroke="rgb(0,0,0)"  stroke-width="1.0"/>
<line x1="132.3" y1="54.3" x2="170.4" y2="48.1" stroke="rgb(0,0,0)"  stroke-width="1.0"/>
<line x1="175.2" y1="40.0" x2="185.3" y2="41.7" stroke="rgb(0,0,0)"  stroke-width="1.0"/>
<line x1="71.3" y1="109.6" x2="81.5" y2="149.9" stroke="rgb(0,0,0)"  stroke-width="1.0"/>
<line x1="81.5" y1="149.9" x2="125.3" y2="140.7" stroke="rgb(0,0,0)"  stroke-width="1.0"/>
<line x1="85.9" y1="141.6" x2="117.9" y2="134.9" stroke="rgb(0,0,0)"  stroke-width="1.0"/>
<line x1="125.3" y1="140.7" x2="142.0" y2="94.7" stroke="rgb(0,0,0)"  stroke-width="1.0"/>
<line x1="142.0" y1="94.7" x2="108.7" y2="75.5" stroke="rgb(0,0,0)"  stroke-width="1.0"/>
<line x1="133.2" y1="98.0" x2="110.3" y2="84.7" stroke="rgb(0,0,0)"  stroke-width="1.0"/>
<line x1="108.7" y1="75.5" x2="71.3" y2="109.6" stroke="rgb(0,0,0)"  stroke-width="1.0"/>
<line x1="124.1" y1="268.4" x2="157.5" y2="287.7" stroke="rgb(0,0,0)"  stroke-width="1.0"/>
<line x1="207.4" y1="279.5" x2="224.0" y2="252.2" stroke="rgb(0,0,0)"  stroke-width="1.0"/>
<line x1="204.4" y1="270.7" x2="214.7" y2="253.6" stroke="rgb(0,0,0)"  stroke-width="1.0"/>
<line x1="190.6" y1="232.9" x2="140.7" y2="241.1" stroke="rgb(0,0,0)"  stroke-width="1.0"/>
<line x1="185.8" y1="241.0" x2="147.8" y2="247.2" stroke="rgb(0,0,0)"  stroke-width="1.0"/>
<line x1="104.0" y1="265.0" x2="147.4" y2="286.0" stroke="rgb(0,0,0)"  stroke-width="1.0"/>
<line x1="80.7" y1="247.5" x2="70.6" y2="245.8" stroke="rgb(0,0,0)"  stroke-width="1.0"/>
<line x1="191.4" y1="246.6" x2="191.1" y2="276.8" stroke="rgb(0,0,0)"  stroke-width="1.0"/>
<line x1="228.2" y1="272.8" x2="265.5" y2="238.7" stroke="rgb(0,0,0)"  stroke-width="1.0"/>
<line x1="265.8" y1="208.6" x2="228.8" y2="212.5" stroke="rgb(0,0,0)"  stroke-width="1.0"/>
<line x1="124.2" y1="157.2" x2="107.5" y2="203.2" stroke="rgb(0,0,0)"  stroke-width="1.0"/>
<line x1="207.4" y1="186.9" x2="174.2" y2="149.1" stroke="rgb(0,0,0)"  stroke-width="1.0"/>
<line x1="40.0" y1="163.4" x2="50.2" y2="203.7" stroke="rgb(0,0,0)"  stroke-width="1.0"/>
<line x1="70.4" y1="207.1" x2="50.1" y2="165.1" stroke="rgb(0,0,0)"  stroke-width="1.0"/>
<line x1="225.2" y1="124.5" x2="208.4" y2="170.4" stroke="rgb(0,0,0)"  stroke-width="1.0"/>
<line x1="282.6" y1="162.5" x2="262.3" y2="120.5" stroke="rgb(0,0,0)"  stroke-width="1.0"/>
<line x1="104.2" y1="234.9" x2="147.9" y2="225.7" stroke="rgb(0,0,0)"  stroke-width="1.0"/>
<line x1="111.6" y1="240.7" x2="143.5" y2="233.9" stroke="rgb(0,0,0)"  stroke-width="1.0"/>
<line x1="282.1" y1="211.3" x2="261.4" y2="218.1" stroke="rgb(0,0,0)"  stroke-width="1.0"/>
<line x1="278.7" y1="220.0" x2="269.3" y2="223.1" stroke="rgb(0,0,0)"  stroke-width="1.0"/>
<line x1="261.6" y1="130.7" x2="251.1" y2="177.7" stroke="rgb(0,0,0)"  stroke-width="1.0"/>
<line x1="184.7" y1="102.0" x2="228.4" y2="92.8" stroke="rgb(0,0,0)"  stroke-width="1.0"/>
<line x1="192.1" y1="107.8" x2="224.0" y2="101.1" stroke="rgb(0,0,0)"  stroke-width="1.0"/>
<line x1="66.8" y1="119.1" x2="103.9" y2="115.2" stroke="rgb(0,0,0)"  stroke-width="1.0"/>
<line x1="191.9" y1="86.6" x2="142.0" y2="94.7" stroke="rgb(0,0,0)"  stroke-width="1.0"/>
<line x1="125.3" y1="140.7" x2="158.4" y2="178.6" stroke="rgb(0,0,0)"  stroke-width="1.0"/>
<line x1="81.5" y1="149.9" x2="71.0" y2="196.9" stroke="rgb(0,0,0)"  stroke-width="1.0"/>
<line x1="262.0" y1="81.9" x2="252.0" y2="80.2" stroke="rgb(0,0,0)"  stroke-width="1.0"/>
<line x1="254.9" y1="88.0" x2="256.7" y2="88.3" stroke="rgb(0,0,0)"  stroke-width="1.0"/>
<line x1="292.7" y1="164.3" x2="282.4" y2="124.0" stroke="rgb(0,0,0)"  stroke-width="1.0"/>
<line x1="108.7" y1="75.5" x2="125.2" y2="48.1" stroke="rgb(0,0,0)"  stroke-width="1.0"/>
<line x1="104.4" y1="54.9" x2="67.1" y2="89.0" stroke="rgb(0,0,0)"  stroke-width="1.0"/>
<line x1="50.5" y1="116.3" x2="71.3" y2="109.6" stroke="rgb(0,0,0)"  stroke-width="1.0"/>
<line x1="54.0" y1="107.6" x2="63.3" y2="104.6" stroke="rgb(0,0,0)"  stroke-width="1.0"/>
<line x1="228.7" y1="62.7" x2="185.3" y2="41.7" stroke="rgb(0,0,0)"  stroke-width="1.0"/>
<line x1="220.2" y1="66.5" x2="187.6" y2="50.8" stroke="rgb(0,0,0)"  stroke-width="1.0"/>
<line x1="175.2" y1="40.0" x2="208.5" y2="59.2" stroke="rgb(0,0,0)"  stroke-width="1.0"/>
<line x1="141.3" y1="81.0" x2="141.5" y2="50.9" stroke="rgb(0,0,0)"  stroke-width="1.0"/>
<text font-size="18.000000" fill ="black" font-family="sans-serif"
x="10.000000" y="20.000000" ></text>
<title> - OBDepict</title>
</svg>
