<?xml version="1.0"?>
<svg xmlns="http://www.w3.org/2000/svg"
xmlns:xlink="http://www.w3.org/1999/xlink" xmlns:cml="http://www.xml-cml.org/schema" width="421.648" height="395.601" x="0" y="0" font-family="sans-serif" stroke="rgb(0,0,0)" stroke-width="1"  stroke-linecap="round">
<rect x="0%" y="0%" width="100%" height="100%" stroke-width="0" fill="rgb(255,255,255)"  />
<line x1="74.2" y1="237.3" x2="40.0" y2="217.5" stroke="rgb(0,0,0)"  stroke-width="1.0"/>
<line x1="72.6" y1="228.0" x2="48.8" y2="214.3" stroke="rgb(0,0,0)"  stroke-width="1.0"/>
<line x1="40.0" y1="217.5" x2="40.0" y2="178.1" stroke="rgb(0,0,0)"  stroke-width="1.0"/>
<line x1="40.0" y1="178.1" x2="74.2" y2="158.4" stroke="rgb(0,0,0)"  stroke-width="1.0"/>
<line x1="48.8" y1="181.3" x2="72.6" y2="167.6" stroke="rgb(0,0,0)"  stroke-width="1.0"/>
<line x1="74.2" y1="158.4" x2="108.3" y2="178.1" stroke="rgb(0,0,0)"  stroke-width="1.0"/>
<line x1="108.3" y1="178.1" x2="108.3" y2="217.5" stroke="rgb(0,0,0)"  stroke-width="1.0"/>
<line x1="108.3" y1="217.5" x2="74.2" y2="237.3" stroke="rgb(0,0,0)"  stroke-width="1.0"/>
<line x1="74.2" y1="118.9" x2="108.3" y2="99.2" stroke="rgb(0,0,0)"  stroke-width="1.0"/>
<line x1="83.0" y1="122.1" x2="106.7" y2="108.4" stroke="rgb(0,0,0)"  stroke-width="1.0"/>
<line x1="108.3" y1="99.2" x2="142.5" y2="118.9" stroke="rgb(0,0,0)"  stroke-width="1.0"/>
<line x1="142.5" y1="118.9" x2="142.5" y2="158.4" stroke="rgb(0,0,0)"  stroke-width="1.0"/>
<line x1="142.5" y1="158.4" x2="108.3" y2="178.1" stroke="rgb(0,0,0)"  stroke-width="1.0"/>
<line x1="133.7" y1="155.1" x2="109.9" y2="168.8" stroke="rgb(0,0,0)"  stroke-width="1.0"/>
<line x1="74.2" y1="158.4" x2="74.2" y2="118.9" stroke="rgb(0,0,0)"  stroke-width="1.0"/>
<line x1="176.7" y1="59.7" x2="176.7" y2="99.2" stroke="rgb(0,0,0)"  stroke-width="1.0"/>
<line x1="176.7" y1="99.2" x2="142.5" y2="118.9" stroke="rgb(0,0,0)"  stroke-width="1.0"/>
<line x1="167.9" y1="95.9" x2="144.1" y2="109.7" stroke="rgb(0,0,0)"  stroke-width="1.0"/>
<line x1="108.3" y1="99.2" x2="108.3" y2="59.7" stroke="rgb(0,0,0)"  stroke-width="1.0"/>
<line x1="108.3" y1="59.7" x2="142.5" y2="40.0" stroke="rgb(0,0,0)"  stroke-width="1.0"/>
<line x1="117.1" y1="63.0" x2="140.9" y2="49.2" stroke="rgb(0,0,0)"  stroke-width="1.0"/>
<line x1="142.5" y1="40.0" x2="176.7" y2="59.7" stroke="rgb(0,0,0)"  stroke-width="1.0"/>
<line x1="176.7" y1="335.9" x2="142.5" y2="355.6" stroke="rgb(0,0,0)"  stroke-width="1.0"/>
<line x1="142.5" y1="355.6" x2="108.3" y2="335.9" stroke="rgb(0,0,0)"  stroke-width="1.0"/>
<line x1="140.9" y1="346.4" x2="117.1" y2="332.6" stroke="rgb(0,0,0)"  stroke-width="1.0"/>
<line x1="108.3" y1="335.9" x2="108.3" y2="296.4" stroke="rgb(0,0,0)"  stroke-width="1.0"/>
<line x1="108.3" y1="296.4" x2="142.5" y2="276.7" stroke="rgb(0,0,0)"  stroke-width="1.0"/>
<line x1="142.5" y1="276.7" x2="176.7" y2="296.4" stroke="rgb(0,0,0)"  stroke-width="1.0"/>
<line x1="144.1" y1="285.9" x2="167.9" y2="299.7" stroke="rgb(0,0,0)"  stroke-width="1.0"/>
<line x1="176.7" y1="296.4" x2="176.7" y2="335.9" stroke="rgb(0,0,0)"  stroke-width="1.0"/>
<line x1="108.3" y1="296.4" x2="74.2" y2="276.7" stroke="rgb(0,0,0)"  stroke-width="1.0"/>
<line x1="106.7" y1="287.2" x2="83.0" y2="273.5" stroke="rgb(0,0,0)"  stroke-width="1.0"/>
<line x1="74.2" y1="276.7" x2="74.2" y2="237.3" stroke="rgb(0,0,0)"  stroke-width="1.0"/>
<line x1="108.3" y1="217.5" x2="142.5" y2="237.3" stroke="rgb(0,0,0)"  stroke-width="1.0"/>
<line x1="109.9" y1="226.8" x2="133.7" y2="240.5" stroke="rgb(0,0,0)"  stroke-width="1.0"/>
<line x1="142.5" y1="237.3" x2="142.5" y2="276.7" stroke="rgb(0,0,0)"  stroke-width="1.0"/>
<line x1="210.8" y1="40.0" x2="245.0" y2="59.7" stroke="rgb(0,0,0)"  stroke-width="1.0"/>
<line x1="245.0" y1="59.7" x2="245.0" y2="99.2" stroke="rgb(0,0,0)"  stroke-width="1.0"/>
<line x1="245.0" y1="99.2" x2="210.8" y2="118.9" stroke="rgb(0,0,0)"  stroke-width="1.0"/>
<line x1="236.2" y1="95.9" x2="212.4" y2="109.7" stroke="rgb(0,0,0)"  stroke-width="1.0"/>
<line x1="210.8" y1="118.9" x2="176.7" y2="99.2" stroke="rgb(0,0,0)"  stroke-width="1.0"/>
<line x1="176.7" y1="59.7" x2="210.8" y2="40.0" stroke="rgb(0,0,0)"  stroke-width="1.0"/>
<line x1="185.5" y1="63.0" x2="209.2" y2="49.2" stroke="rgb(0,0,0)"  stroke-width="1.0"/>
<line x1="313.3" y1="99.2" x2="279.2" y2="118.9" stroke="rgb(0,0,0)"  stroke-width="1.0"/>
<line x1="279.2" y1="118.9" x2="245.0" y2="99.2" stroke="rgb(0,0,0)"  stroke-width="1.0"/>
<line x1="245.0" y1="59.7" x2="279.2" y2="40.0" stroke="rgb(0,0,0)"  stroke-width="1.0"/>
<line x1="253.8" y1="63.0" x2="277.6" y2="49.2" stroke="rgb(0,0,0)"  stroke-width="1.0"/>
<line x1="279.2" y1="40.0" x2="313.3" y2="59.7" stroke="rgb(0,0,0)"  stroke-width="1.0"/>
<line x1="313.3" y1="59.7" x2="313.3" y2="99.2" stroke="rgb(0,0,0)"  stroke-width="1.0"/>
<line x1="306.1" y1="65.7" x2="306.1" y2="93.2" stroke="rgb(0,0,0)"  stroke-width="1.0"/>
<line x1="347.5" y1="237.3" x2="313.3" y2="217.5" stroke="rgb(0,0,0)"  stroke-width="1.0"/>
<line x1="313.3" y1="217.5" x2="313.3" y2="178.1" stroke="rgb(0,0,0)"  stroke-width="1.0"/>
<line x1="320.5" y1="211.5" x2="320.5" y2="184.1" stroke="rgb(0,0,0)"  stroke-width="1.0"/>
<line x1="313.3" y1="178.1" x2="347.5" y2="158.4" stroke="rgb(0,0,0)"  stroke-width="1.0"/>
<line x1="347.5" y1="158.4" x2="381.6" y2="178.1" stroke="rgb(0,0,0)"  stroke-width="1.0"/>
<line x1="381.6" y1="178.1" x2="381.6" y2="217.5" stroke="rgb(0,0,0)"  stroke-width="1.0"/>
<line x1="374.4" y1="184.1" x2="374.4" y2="211.5" stroke="rgb(0,0,0)"  stroke-width="1.0"/>
<line x1="381.6" y1="217.5" x2="347.5" y2="237.3" stroke="rgb(0,0,0)"  stroke-width="1.0"/>
<line x1="313.3" y1="178.1" x2="279.2" y2="158.4" stroke="rgb(0,0,0)"  stroke-width="1.0"/>
<line x1="279.2" y1="158.4" x2="279.2" y2="118.9" stroke="rgb(0,0,0)"  stroke-width="1.0"/>
<line x1="286.4" y1="152.4" x2="286.4" y2="124.9" stroke="rgb(0,0,0)"  stroke-width="1.0"/>
<line x1="313.3" y1="99.2" x2="347.5" y2="118.9" stroke="rgb(0,0,0)"  stroke-width="1.0"/>
<line x1="347.5" y1="118.9" x2="347.5" y2="158.4" stroke="rgb(0,0,0)"  stroke-width="1.0"/>
<line x1="340.3" y1="124.9" x2="340.3" y2="152.4" stroke="rgb(0,0,0)"  stroke-width="1.0"/>
<line x1="239.8" y1="331.1" x2="245.0" y2="296.4" stroke="rgb(0,0,0)"  stroke-width="1.0"/>
<line x1="245.0" y1="296.4" x2="279.2" y2="276.7" stroke="rgb(0,0,0)"  stroke-width="1.0"/>
<line x1="279.2" y1="276.7" x2="313.3" y2="296.4" stroke="rgb(0,0,0)"  stroke-width="1.0"/>
<line x1="313.3" y1="296.4" x2="313.3" y2="335.9" stroke="rgb(0,0,0)"  stroke-width="1.0"/>
<line x1="306.1" y1="302.4" x2="306.1" y2="329.9" stroke="rgb(0,0,0)"  stroke-width="1.0"/>
<line x1="313.3" y1="335.9" x2="279.2" y2="355.6" stroke="rgb(0,0,0)"  stroke-width="1.0"/>
<line x1="279.2" y1="355.6" x2="239.8" y2="331.1" stroke="rgb(0,0,0)"  stroke-width="1.0"/>
<line x1="277.9" y1="346.3" x2="248.7" y2="328.2" stroke="rgb(0,0,0)"  stroke-width="1.0"/>
<line x1="279.2" y1="276.7" x2="279.2" y2="237.3" stroke="rgb(0,0,0)"  stroke-width="1.0"/>
<line x1="286.4" y1="270.7" x2="286.4" y2="243.3" stroke="rgb(0,0,0)"  stroke-width="1.0"/>
<line x1="279.2" y1="237.3" x2="313.3" y2="217.5" stroke="rgb(0,0,0)"  stroke-width="1.0"/>
<line x1="347.5" y1="237.3" x2="347.5" y2="276.7" stroke="rgb(0,0,0)"  stroke-width="1.0"/>
<line x1="340.3" y1="243.3" x2="340.3" y2="270.7" stroke="rgb(0,0,0)"  stroke-width="1.0"/>
<line x1="347.5" y1="276.7" x2="313.3" y2="296.4" stroke="rgb(0,0,0)"  stroke-width="1.0"/>
<line x1="239.8" y1="331.1" x2="209.3" y2="348.7" stroke="rgb(0,0,0)"  stroke-width="1.0"/>
<line x1="209.3" y1="348.7" x2="176.7" y2="335.9" stroke="rgb(0,0,0)"  stroke-width="1.0"/>
<line x1="206.4" y1="339.8" x2="184.9" y2="331.4" stroke="rgb(0,0,0)"  stroke-width="1.0"/>
<line x1="176.7" y1="296.4" x2="152.2" y2="301.5" stroke="rgb(0,0,0)"  stroke-width="1.0"/>
<line x1="152.2" y1="301.5" x2="245.0" y2="296.4" stroke="rgb(0,0,0)"  stroke-width="1.0"/>
<line x1="158.5" y1="308.4" x2="239.4" y2="303.9" stroke="rgb(0,0,0)"  stroke-width="1.0"/>
<text font-size="18.000000" fill ="black" font-family="sans-serif"
x="10.000000" y="20.000000" ></text>
<title> - OBDepict</title>
</svg>
