<?xml version="1.0"?>
<svg xmlns="http://www.w3.org/2000/svg"
xmlns:xlink="http://www.w3.org/1999/xlink" xmlns:cml="http://www.xml-cml.org/schema" width="757.87" height="552.254" x="0" y="0" font-family="sans-serif" stroke="rgb(0,0,0)" stroke-width="1"  stroke-linecap="round">
<rect x="0%" y="0%" width="100%" height="100%" stroke-width="0" fill="rgb(255,255,255)"  />
<line x1="147.3" y1="499.3" x2="149.9" y2="474.1" stroke="rgb(0,0,0)"  stroke-width="1.0"/>
<line x1="149.9" y1="474.1" x2="170.4" y2="489.0" stroke="rgb(0,0,0)"  stroke-width="1.0"/>
<line x1="105.2" y1="424.0" x2="106.6" y2="423.2" stroke="rgb(0,0,0)"  stroke-width="1.0"/>
<line x1="102.6" y1="420.8" x2="105.1" y2="419.4" stroke="rgb(0,0,0)"  stroke-width="1.0"/>
<line x1="100.0" y1="417.6" x2="103.6" y2="415.5" stroke="rgb(0,0,0)"  stroke-width="1.0"/>
<line x1="97.3" y1="414.3" x2="102.1" y2="411.6" stroke="rgb(0,0,0)"  stroke-width="1.0"/>
<line x1="94.7" y1="411.1" x2="100.6" y2="407.7" stroke="rgb(0,0,0)"  stroke-width="1.0"/>
<line x1="92.1" y1="407.8" x2="99.1" y2="403.8" stroke="rgb(0,0,0)"  stroke-width="1.0"/>
<line x1="108.4" y1="428.1" x2="83.1" y2="428.1" stroke="rgb(0,0,0)"  stroke-width="1.0"/>
<polygon points="143.431176 412.491062 163.581394 428.892241 157.636236 434.245286 " stroke-width="1.000000" fill="rgb(0,0,0)"  stroke="rgb(0,0,0)" />
<line x1="104.7" y1="385.5" x2="105.1" y2="383.9" stroke="rgb(0,0,0)"  stroke-width="1.0"/>
<line x1="96.6" y1="384.4" x2="97.2" y2="381.6" stroke="rgb(0,0,0)"  stroke-width="1.0"/>
<line x1="88.4" y1="383.3" x2="89.3" y2="379.3" stroke="rgb(0,0,0)"  stroke-width="1.0"/>
<line x1="80.2" y1="382.3" x2="81.4" y2="376.9" stroke="rgb(0,0,0)"  stroke-width="1.0"/>
<line x1="72.1" y1="381.2" x2="73.5" y2="374.6" stroke="rgb(0,0,0)"  stroke-width="1.0"/>
<line x1="63.9" y1="380.1" x2="65.6" y2="372.3" stroke="rgb(0,0,0)"  stroke-width="1.0"/>
<line x1="115.0" y1="386.9" x2="98.0" y2="405.7" stroke="rgb(0,0,0)"  stroke-width="1.0"/>
<polygon points="122.923296 349.374297 106.522117 369.524516 101.169072 363.579357 " stroke-width="1.000000" fill="rgb(0,0,0)"  stroke="rgb(0,0,0)" />
<polygon points="159.363777 337.534067 155.363777 299.218278 163.363777 299.218278 " stroke-width="1.000000" fill="rgb(0,0,0)"  stroke="rgb(0,0,0)" />
<line x1="195.5" y1="356.7" x2="195.5" y2="420.3" stroke="rgb(0,0,0)"  stroke-width="1.0"/>
<line x1="189.5" y1="356.7" x2="189.5" y2="420.3" stroke="rgb(0,0,0)"  stroke-width="1.0"/>
<line x1="230.6" y1="301.1" x2="229.8" y2="302.5" stroke="rgb(0,0,0)"  stroke-width="1.0"/>
<line x1="234.5" y1="302.6" x2="233.0" y2="305.1" stroke="rgb(0,0,0)"  stroke-width="1.0"/>
<line x1="238.3" y1="304.1" x2="236.2" y2="307.7" stroke="rgb(0,0,0)"  stroke-width="1.0"/>
<line x1="242.2" y1="305.6" x2="239.5" y2="310.3" stroke="rgb(0,0,0)"  stroke-width="1.0"/>
<line x1="246.1" y1="307.1" x2="242.7" y2="312.9" stroke="rgb(0,0,0)"  stroke-width="1.0"/>
<line x1="250.0" y1="308.6" x2="246.0" y2="315.5" stroke="rgb(0,0,0)"  stroke-width="1.0"/>
<polygon points="192.546224 280.060383 168.313984 270.688695 172.313984 263.760492 " stroke-width="1.000000" fill="rgb(0,0,0)"  stroke="rgb(0,0,0)" />
<line x1="258.1" y1="236.6" x2="259.7" y2="236.6" stroke="rgb(0,0,0)"  stroke-width="1.0"/>
<line x1="257.5" y1="232.5" x2="260.4" y2="232.5" stroke="rgb(0,0,0)"  stroke-width="1.0"/>
<line x1="256.8" y1="228.4" x2="261.0" y2="228.4" stroke="rgb(0,0,0)"  stroke-width="1.0"/>
<line x1="256.2" y1="224.3" x2="261.6" y2="224.3" stroke="rgb(0,0,0)"  stroke-width="1.0"/>
<line x1="255.6" y1="220.2" x2="262.3" y2="220.2" stroke="rgb(0,0,0)"  stroke-width="1.0"/>
<line x1="254.9" y1="216.1" x2="262.9" y2="216.1" stroke="rgb(0,0,0)"  stroke-width="1.0"/>
<polygon points="258.911118 280.060383 282.672683 269.552386 284.743235 277.279793 " stroke-width="1.000000" fill="rgb(0,0,0)"  stroke="rgb(0,0,0)" />
<polygon points="458.005800 241.744594 454.005800 190.401436 462.005800 190.401436 " stroke-width="1.000000" fill="rgb(0,0,0)"  stroke="rgb(0,0,0)" />
<line x1="458.8" y1="285.2" x2="457.2" y2="285.2" stroke="rgb(0,0,0)"  stroke-width="1.0"/>
<line x1="459.4" y1="289.3" x2="456.6" y2="289.3" stroke="rgb(0,0,0)"  stroke-width="1.0"/>
<line x1="460.1" y1="293.4" x2="455.9" y2="293.4" stroke="rgb(0,0,0)"  stroke-width="1.0"/>
<line x1="460.7" y1="297.5" x2="455.3" y2="297.5" stroke="rgb(0,0,0)"  stroke-width="1.0"/>
<line x1="461.4" y1="301.6" x2="454.6" y2="301.6" stroke="rgb(0,0,0)"  stroke-width="1.0"/>
<line x1="462.0" y1="305.7" x2="454.0" y2="305.7" stroke="rgb(0,0,0)"  stroke-width="1.0"/>
<polygon points="524.370694 241.744594 548.602934 251.116281 544.602934 258.044485 " stroke-width="1.000000" fill="rgb(0,0,0)"  stroke="rgb(0,0,0)" />
<line x1="486.3" y1="220.7" x2="487.1" y2="219.3" stroke="rgb(0,0,0)"  stroke-width="1.0"/>
<line x1="482.5" y1="219.2" x2="483.9" y2="216.7" stroke="rgb(0,0,0)"  stroke-width="1.0"/>
<line x1="478.6" y1="217.7" x2="480.7" y2="214.1" stroke="rgb(0,0,0)"  stroke-width="1.0"/>
<line x1="474.7" y1="216.2" x2="477.4" y2="211.5" stroke="rgb(0,0,0)"  stroke-width="1.0"/>
<line x1="470.8" y1="214.7" x2="474.2" y2="208.9" stroke="rgb(0,0,0)"  stroke-width="1.0"/>
<line x1="467.0" y1="213.2" x2="471.0" y2="206.3" stroke="rgb(0,0,0)"  stroke-width="1.0"/>
<line x1="528.8" y1="155.8" x2="530.2" y2="156.6" stroke="rgb(0,0,0)"  stroke-width="1.0"/>
<line x1="532.4" y1="148.4" x2="534.9" y2="149.8" stroke="rgb(0,0,0)"  stroke-width="1.0"/>
<line x1="535.9" y1="141.0" x2="539.5" y2="143.0" stroke="rgb(0,0,0)"  stroke-width="1.0"/>
<line x1="539.5" y1="133.5" x2="544.2" y2="136.2" stroke="rgb(0,0,0)"  stroke-width="1.0"/>
<line x1="543.0" y1="126.1" x2="548.8" y2="129.4" stroke="rgb(0,0,0)"  stroke-width="1.0"/>
<line x1="546.6" y1="118.6" x2="553.5" y2="122.6" stroke="rgb(0,0,0)"  stroke-width="1.0"/>
<line x1="524.4" y1="165.1" x2="511.7" y2="143.2" stroke="rgb(0,0,0)"  stroke-width="1.0"/>
<polygon points="557.553142 184.270909 543.457388 162.445702 550.765752 159.191808 " stroke-width="1.000000" fill="rgb(0,0,0)"  stroke="rgb(0,0,0)" />
<line x1="620.2" y1="207.1" x2="618.9" y2="208.1" stroke="rgb(0,0,0)"  stroke-width="1.0"/>
<line x1="623.1" y1="210.1" x2="620.8" y2="211.8" stroke="rgb(0,0,0)"  stroke-width="1.0"/>
<line x1="626.0" y1="213.0" x2="622.7" y2="215.5" stroke="rgb(0,0,0)"  stroke-width="1.0"/>
<line x1="629.0" y1="216.0" x2="624.6" y2="219.2" stroke="rgb(0,0,0)"  stroke-width="1.0"/>
<line x1="631.9" y1="218.9" x2="626.5" y2="222.8" stroke="rgb(0,0,0)"  stroke-width="1.0"/>
<line x1="634.8" y1="221.8" x2="628.4" y2="226.5" stroke="rgb(0,0,0)"  stroke-width="1.0"/>
<line x1="590.3" y1="168.7" x2="591.6" y2="167.8" stroke="rgb(0,0,0)"  stroke-width="1.0"/>
<line x1="587.4" y1="165.8" x2="589.7" y2="164.1" stroke="rgb(0,0,0)"  stroke-width="1.0"/>
<line x1="584.5" y1="162.9" x2="587.8" y2="160.4" stroke="rgb(0,0,0)"  stroke-width="1.0"/>
<line x1="581.5" y1="159.9" x2="585.9" y2="156.7" stroke="rgb(0,0,0)"  stroke-width="1.0"/>
<line x1="578.6" y1="157.0" x2="584.0" y2="153.0" stroke="rgb(0,0,0)"  stroke-width="1.0"/>
<line x1="575.7" y1="154.0" x2="582.1" y2="149.3" stroke="rgb(0,0,0)"  stroke-width="1.0"/>
<polygon points="616.515079 141.432554 617.939910 115.490314 625.765091 117.153608 " stroke-width="1.000000" fill="rgb(0,0,0)"  stroke="rgb(0,0,0)" />
<line x1="616.5" y1="141.4" x2="597.7" y2="124.5" stroke="rgb(0,0,0)"  stroke-width="1.0"/>
<polygon points="652.955560 153.272785 656.955560 178.944364 648.955560 178.944364 " stroke-width="1.000000" fill="rgb(0,0,0)"  stroke="rgb(0,0,0)" />
<line x1="689.1" y1="170.3" x2="687.5" y2="170.0" stroke="rgb(0,0,0)"  stroke-width="1.0"/>
<line x1="688.9" y1="174.5" x2="686.1" y2="173.9" stroke="rgb(0,0,0)"  stroke-width="1.0"/>
<line x1="688.7" y1="178.6" x2="684.6" y2="177.7" stroke="rgb(0,0,0)"  stroke-width="1.0"/>
<line x1="688.4" y1="182.8" x2="683.1" y2="181.6" stroke="rgb(0,0,0)"  stroke-width="1.0"/>
<line x1="688.2" y1="186.9" x2="681.6" y2="185.5" stroke="rgb(0,0,0)"  stroke-width="1.0"/>
<line x1="688.0" y1="191.1" x2="680.1" y2="189.4" stroke="rgb(0,0,0)"  stroke-width="1.0"/>
<line x1="689.4" y1="165.1" x2="708.2" y2="182.1" stroke="rgb(0,0,0)"  stroke-width="1.0"/>
<polygon points="689.396041 103.116765 705.797220 82.966546 711.150265 88.911705 " stroke-width="1.000000" fill="rgb(0,0,0)"  stroke="rgb(0,0,0)" />
<line x1="689.4" y1="103.1" x2="681.4" y2="65.6" stroke="rgb(0,0,0)"  stroke-width="1.0"/>
<line x1="681.4" y1="65.6" x2="700.2" y2="48.7" stroke="rgb(0,0,0)"  stroke-width="1.0"/>
<line x1="149.9" y1="474.1" x2="112.4" y2="466.2" stroke="rgb(0,0,0)"  stroke-width="1.0"/>
<line x1="112.4" y1="466.2" x2="108.4" y2="428.1" stroke="rgb(0,0,0)"  stroke-width="1.0"/>
<line x1="108.4" y1="428.1" x2="143.4" y2="412.5" stroke="rgb(0,0,0)"  stroke-width="1.0"/>
<line x1="143.4" y1="412.5" x2="160.4" y2="431.3" stroke="rgb(0,0,0)"  stroke-width="1.0"/>
<line x1="162.6" y1="452.2" x2="149.9" y2="474.1" stroke="rgb(0,0,0)"  stroke-width="1.0"/>
<line x1="122.9" y1="349.4" x2="100.4" y2="318.4" stroke="rgb(0,0,0)"  stroke-width="1.0"/>
<line x1="100.4" y1="318.4" x2="122.9" y2="287.4" stroke="rgb(0,0,0)"  stroke-width="1.0"/>
<line x1="122.9" y1="287.4" x2="159.4" y2="299.2" stroke="rgb(0,0,0)"  stroke-width="1.0"/>
<line x1="126.4" y1="296.1" x2="151.4" y2="304.2" stroke="rgb(0,0,0)"  stroke-width="1.0"/>
<line x1="159.4" y1="299.2" x2="159.4" y2="337.5" stroke="rgb(0,0,0)"  stroke-width="1.0"/>
<line x1="159.4" y1="337.5" x2="122.9" y2="349.4" stroke="rgb(0,0,0)"  stroke-width="1.0"/>
<line x1="616.5" y1="203.4" x2="594.0" y2="172.4" stroke="rgb(0,0,0)"  stroke-width="1.0"/>
<line x1="594.0" y1="172.4" x2="557.6" y2="184.3" stroke="rgb(0,0,0)"  stroke-width="1.0"/>
<line x1="557.6" y1="184.3" x2="557.6" y2="222.6" stroke="rgb(0,0,0)"  stroke-width="1.0"/>
<line x1="557.6" y1="222.6" x2="594.0" y2="234.4" stroke="rgb(0,0,0)"  stroke-width="1.0"/>
<line x1="565.5" y1="217.6" x2="590.5" y2="225.7" stroke="rgb(0,0,0)"  stroke-width="1.0"/>
<line x1="594.0" y1="234.4" x2="616.5" y2="203.4" stroke="rgb(0,0,0)"  stroke-width="1.0"/>
<line x1="653.0" y1="153.3" x2="616.5" y2="141.4" stroke="rgb(0,0,0)"  stroke-width="1.0"/>
<line x1="616.5" y1="141.4" x2="594.0" y2="172.4" stroke="rgb(0,0,0)"  stroke-width="1.0"/>
<line x1="616.5" y1="203.4" x2="640.6" y2="195.6" stroke="rgb(0,0,0)"  stroke-width="1.0"/>
<line x1="653.0" y1="178.6" x2="653.0" y2="153.3" stroke="rgb(0,0,0)"  stroke-width="1.0"/>
<line x1="653.0" y1="153.3" x2="689.4" y2="165.1" stroke="rgb(0,0,0)"  stroke-width="1.0"/>
<line x1="689.4" y1="165.1" x2="711.9" y2="134.1" stroke="rgb(0,0,0)"  stroke-width="1.0"/>
<line x1="711.9" y1="134.1" x2="689.4" y2="103.1" stroke="rgb(0,0,0)"  stroke-width="1.0"/>
<line x1="689.4" y1="103.1" x2="665.3" y2="110.9" stroke="rgb(0,0,0)"  stroke-width="1.0"/>
<line x1="653.0" y1="128.0" x2="653.0" y2="153.3" stroke="rgb(0,0,0)"  stroke-width="1.0"/>
<line x1="143.4" y1="412.5" x2="115.0" y2="386.9" stroke="rgb(0,0,0)"  stroke-width="1.0"/>
<line x1="115.0" y1="386.9" x2="122.9" y2="349.4" stroke="rgb(0,0,0)"  stroke-width="1.0"/>
<line x1="159.4" y1="337.5" x2="187.8" y2="363.2" stroke="rgb(0,0,0)"  stroke-width="1.0"/>
<line x1="187.8" y1="363.2" x2="182.6" y2="387.9" stroke="rgb(0,0,0)"  stroke-width="1.0"/>
<line x1="167.5" y1="404.7" x2="143.4" y2="412.5" stroke="rgb(0,0,0)"  stroke-width="1.0"/>
<line x1="225.7" y1="299.2" x2="225.7" y2="337.5" stroke="rgb(0,0,0)"  stroke-width="1.0"/>
<line x1="225.7" y1="337.5" x2="192.5" y2="356.7" stroke="rgb(0,0,0)"  stroke-width="1.0"/>
<line x1="192.5" y1="356.7" x2="159.4" y2="337.5" stroke="rgb(0,0,0)"  stroke-width="1.0"/>
<line x1="159.4" y1="299.2" x2="192.5" y2="280.1" stroke="rgb(0,0,0)"  stroke-width="1.0"/>
<line x1="192.5" y1="280.1" x2="225.7" y2="299.2" stroke="rgb(0,0,0)"  stroke-width="1.0"/>
<line x1="258.9" y1="241.7" x2="258.9" y2="280.1" stroke="rgb(0,0,0)"  stroke-width="1.0"/>
<line x1="258.9" y1="280.1" x2="225.7" y2="299.2" stroke="rgb(0,0,0)"  stroke-width="1.0"/>
<line x1="192.5" y1="280.1" x2="192.5" y2="241.7" stroke="rgb(0,0,0)"  stroke-width="1.0"/>
<line x1="192.5" y1="241.7" x2="225.7" y2="222.6" stroke="rgb(0,0,0)"  stroke-width="1.0"/>
<line x1="225.7" y1="222.6" x2="258.9" y2="241.7" stroke="rgb(0,0,0)"  stroke-width="1.0"/>
<line x1="458.0" y1="280.1" x2="458.0" y2="241.7" stroke="rgb(0,0,0)"  stroke-width="1.0"/>
<line x1="458.0" y1="241.7" x2="424.8" y2="222.6" stroke="rgb(0,0,0)"  stroke-width="1.0"/>
<line x1="424.8" y1="222.6" x2="391.6" y2="241.7" stroke="rgb(0,0,0)"  stroke-width="1.0"/>
<line x1="391.6" y1="241.7" x2="391.6" y2="280.1" stroke="rgb(0,0,0)"  stroke-width="1.0"/>
<line x1="398.8" y1="247.7" x2="398.8" y2="274.1" stroke="rgb(0,0,0)"  stroke-width="1.0"/>
<line x1="391.6" y1="280.1" x2="424.8" y2="299.2" stroke="rgb(0,0,0)"  stroke-width="1.0"/>
<line x1="424.8" y1="299.2" x2="458.0" y2="280.1" stroke="rgb(0,0,0)"  stroke-width="1.0"/>
<line x1="524.4" y1="241.7" x2="491.2" y2="222.6" stroke="rgb(0,0,0)"  stroke-width="1.0"/>
<line x1="491.2" y1="222.6" x2="458.0" y2="241.7" stroke="rgb(0,0,0)"  stroke-width="1.0"/>
<line x1="458.0" y1="280.1" x2="491.2" y2="299.2" stroke="rgb(0,0,0)"  stroke-width="1.0"/>
<line x1="491.2" y1="299.2" x2="524.4" y2="280.1" stroke="rgb(0,0,0)"  stroke-width="1.0"/>
<line x1="524.4" y1="280.1" x2="524.4" y2="241.7" stroke="rgb(0,0,0)"  stroke-width="1.0"/>
<line x1="292.1" y1="222.6" x2="325.3" y2="241.7" stroke="rgb(0,0,0)"  stroke-width="1.0"/>
<line x1="325.3" y1="241.7" x2="325.3" y2="280.1" stroke="rgb(0,0,0)"  stroke-width="1.0"/>
<line x1="325.3" y1="280.1" x2="292.1" y2="299.2" stroke="rgb(0,0,0)"  stroke-width="1.0"/>
<line x1="292.1" y1="299.2" x2="258.9" y2="280.1" stroke="rgb(0,0,0)"  stroke-width="1.0"/>
<line x1="258.9" y1="241.7" x2="292.1" y2="222.6" stroke="rgb(0,0,0)"  stroke-width="1.0"/>
<line x1="347.5" y1="292.9" x2="325.3" y2="280.1" stroke="rgb(0,0,0)"  stroke-width="1.0"/>
<line x1="349.2" y1="285.6" x2="334.1" y2="276.8" stroke="rgb(0,0,0)"  stroke-width="1.0"/>
<line x1="325.3" y1="241.7" x2="347.5" y2="228.9" stroke="rgb(0,0,0)"  stroke-width="1.0"/>
<line x1="334.1" y1="245.0" x2="349.2" y2="236.2" stroke="rgb(0,0,0)"  stroke-width="1.0"/>
<line x1="369.7" y1="229.1" x2="391.6" y2="241.7" stroke="rgb(0,0,0)"  stroke-width="1.0"/>
<line x1="391.6" y1="280.1" x2="369.7" y2="292.7" stroke="rgb(0,0,0)"  stroke-width="1.0"/>
<line x1="557.6" y1="184.3" x2="524.4" y2="165.1" stroke="rgb(0,0,0)"  stroke-width="1.0"/>
<line x1="524.4" y1="165.1" x2="491.2" y2="184.3" stroke="rgb(0,0,0)"  stroke-width="1.0"/>
<line x1="491.2" y1="184.3" x2="491.2" y2="222.6" stroke="rgb(0,0,0)"  stroke-width="1.0"/>
<line x1="524.4" y1="241.7" x2="557.6" y2="222.6" stroke="rgb(0,0,0)"  stroke-width="1.0"/>
<text x="119.906458" y="520.253582" fill="rgb(102,102,102)"  stroke="rgb(102,102,102)" stroke-width="1" font-size="16" >H</text>
<text x="131.906458" y="523.933582" fill="rgb(102,102,102)"  stroke="rgb(102,102,102)" stroke-width="1" font-size="13" >3</text>
<text x="138.406458" y="520.253582" fill="rgb(102,102,102)"  stroke="rgb(102,102,102)" stroke-width="1" font-size="16" >C</text>
<text x="176.909673" y="504.669146" fill="rgb(102,102,102)"  stroke="rgb(102,102,102)" stroke-width="1" font-size="16" >CH</text>
<text x="200.909673" y="508.349146" fill="rgb(102,102,102)"  stroke="rgb(102,102,102)" stroke-width="1" font-size="13" >3</text>
<text x="163.069443" y="448.965243" fill="rgb(255,12,12)"  stroke="rgb(255,12,12)" stroke-width="1" font-size="16" >O</text>
<text x="83.270066" y="402.893051" fill="rgb(191,191,191)"  stroke="rgb(191,191,191)" stroke-width="1" font-size="16" >H</text>
<text x="52.112171" y="436.075498" fill="rgb(255,12,12)"  stroke="rgb(255,12,12)" stroke-width="1" font-size="16" >HO</text>
<text x="173.871657" y="408.650832" fill="rgb(255,12,12)"  stroke="rgb(255,12,12)" stroke-width="1" font-size="16" >O</text>
<text x="34.000000" y="378.920194" fill="rgb(191,191,191)"  stroke="rgb(191,191,191)" stroke-width="1" font-size="16" >H</text>
<text x="63.318728" y="423.326976" fill="rgb(102,102,102)"  stroke="rgb(102,102,102)" stroke-width="1" font-size="16" >H</text>
<text x="75.318728" y="427.006976" fill="rgb(102,102,102)"  stroke="rgb(102,102,102)" stroke-width="1" font-size="13" >3</text>
<text x="81.818728" y="423.326976" fill="rgb(102,102,102)"  stroke="rgb(102,102,102)" stroke-width="1" font-size="16" >C</text>
<text x="88.449115" y="383.012565" fill="rgb(191,191,191)"  stroke="rgb(191,191,191)" stroke-width="1" font-size="16" >H</text>
<text x="186.546224" y="441.323541" fill="rgb(255,12,12)"  stroke="rgb(255,12,12)" stroke-width="1" font-size="16" >O</text>
<text x="252.911118" y="326.376173" fill="rgb(191,191,191)"  stroke="rgb(191,191,191)" stroke-width="1" font-size="16" >H</text>
<text x="153.363777" y="268.902488" fill="rgb(191,191,191)"  stroke="rgb(191,191,191)" stroke-width="1" font-size="16" >H</text>
<text x="252.911118" y="211.428804" fill="rgb(191,191,191)"  stroke="rgb(191,191,191)" stroke-width="1" font-size="16" >H</text>
<text x="291.921329" y="278.143527" fill="rgb(102,102,102)"  stroke="rgb(102,102,102)" stroke-width="1" font-size="16" >CH</text>
<text x="315.921329" y="281.823527" fill="rgb(102,102,102)"  stroke="rgb(102,102,102)" stroke-width="1" font-size="13" >3</text>
<text x="352.458459" y="307.218278" fill="rgb(12,12,255)"  stroke="rgb(12,12,255)" stroke-width="1" font-size="16" >N</text>
<text x="352.458459" y="230.586699" fill="rgb(12,12,255)"  stroke="rgb(12,12,255)" stroke-width="1" font-size="16" >N</text>
<text x="454.005800" y="173.113015" fill="rgb(102,102,102)"  stroke="rgb(102,102,102)" stroke-width="1" font-size="16" >CH</text>
<text x="478.005800" y="176.793015" fill="rgb(102,102,102)"  stroke="rgb(102,102,102)" stroke-width="1" font-size="13" >3</text>
<text x="452.005800" y="326.376173" fill="rgb(191,191,191)"  stroke="rgb(191,191,191)" stroke-width="1" font-size="16" >H</text>
<text x="551.553142" y="268.902488" fill="rgb(191,191,191)"  stroke="rgb(191,191,191)" stroke-width="1" font-size="16" >H</text>
<text x="452.005800" y="211.428804" fill="rgb(191,191,191)"  stroke="rgb(191,191,191)" stroke-width="1" font-size="16" >H</text>
<text x="556.686484" y="106.748121" fill="rgb(191,191,191)"  stroke="rgb(191,191,191)" stroke-width="1" font-size="16" >H</text>
<text x="487.212800" y="139.930568" fill="rgb(255,12,12)"  stroke="rgb(255,12,12)" stroke-width="1" font-size="16" >HO</text>
<text x="515.968706" y="157.267694" fill="rgb(102,102,102)"  stroke="rgb(102,102,102)" stroke-width="1" font-size="16" >H</text>
<text x="527.968706" y="160.947694" fill="rgb(102,102,102)"  stroke="rgb(102,102,102)" stroke-width="1" font-size="13" >3</text>
<text x="534.468706" y="157.267694" fill="rgb(102,102,102)"  stroke="rgb(102,102,102)" stroke-width="1" font-size="16" >C</text>
<text x="633.036535" y="242.426929" fill="rgb(191,191,191)"  stroke="rgb(191,191,191)" stroke-width="1" font-size="16" >H</text>
<text x="646.955560" y="199.588574" fill="rgb(255,12,12)"  stroke="rgb(255,12,12)" stroke-width="1" font-size="16" >O</text>
<text x="553.472167" y="149.432554" fill="rgb(255,12,12)"  stroke="rgb(255,12,12)" stroke-width="1" font-size="16" >HO</text>
<text x="618.481379" y="111.954057" fill="rgb(191,191,191)"  stroke="rgb(191,191,191)" stroke-width="1" font-size="16" >H</text>
<text x="562.040898" y="123.794287" fill="rgb(102,102,102)"  stroke="rgb(102,102,102)" stroke-width="1" font-size="16" >H</text>
<text x="574.040898" y="127.474287" fill="rgb(102,102,102)"  stroke="rgb(102,102,102)" stroke-width="1" font-size="13" >3</text>
<text x="580.540898" y="123.794287" fill="rgb(102,102,102)"  stroke="rgb(102,102,102)" stroke-width="1" font-size="16" >C</text>
<text x="646.955560" y="122.956995" fill="rgb(255,12,12)"  stroke="rgb(255,12,12)" stroke-width="1" font-size="16" >O</text>
<text x="675.429741" y="210.591512" fill="rgb(191,191,191)"  stroke="rgb(191,191,191)" stroke-width="1" font-size="16" >H</text>
<text x="711.870222" y="198.751282" fill="rgb(255,12,12)"  stroke="rgb(255,12,12)" stroke-width="1" font-size="16" >OH</text>
<text x="713.870222" y="85.478498" fill="rgb(102,102,102)"  stroke="rgb(102,102,102)" stroke-width="1" font-size="16" >CH</text>
<text x="737.870222" y="89.158498" fill="rgb(102,102,102)"  stroke="rgb(102,102,102)" stroke-width="1" font-size="13" >3</text>
<text x="703.903921" y="48.000000" fill="rgb(255,12,12)"  stroke="rgb(255,12,12)" stroke-width="1" font-size="16" >OH</text>
<text font-size="18.000000" fill ="black" font-family="sans-serif"
x="10.000000" y="20.000000" ></text>
<title> - OBDepict</title>
</svg>
