<?xml version="1.0"?>
<svg xmlns="http://www.w3.org/2000/svg"
xmlns:xlink="http://www.w3.org/1999/xlink" xmlns:cml="http://www.xml-cml.org/schema" width="208.028" height="187.549" x="0" y="0" font-family="sans-serif" stroke="rgb(0,0,0)" stroke-width="4"  stroke-linecap="round">
<rect x="0%" y="0%" width="100%" height="100%" stroke-width="0" fill="rgb(255,255,255)"  />
<polygon points="128.902 69.7258 155.949 71.3852 154.285 79.2104 " stroke-width="4" fill="rgb(0,0,0)"  stroke="rgb(0,0,0)" />
<line x1="128.9" y1="69.7" x2="147.0" y2="49.7" stroke="rgb(0,0,0)"  stroke-width="4.0"/>
<line x1="72.0" y1="110.7" x2="71.3" y2="109.2" stroke="rgb(0,0,0)"  stroke-width="4.0"/>
<line x1="68.3" y1="113.0" x2="67.1" y2="110.4" stroke="rgb(0,0,0)"  stroke-width="4.0"/>
<line x1="64.7" y1="115.3" x2="63.0" y2="111.5" stroke="rgb(0,0,0)"  stroke-width="4.0"/>
<line x1="61.0" y1="117.7" x2="58.8" y2="112.7" stroke="rgb(0,0,0)"  stroke-width="4.0"/>
<line x1="57.3" y1="120.0" x2="54.6" y2="113.9" stroke="rgb(0,0,0)"  stroke-width="4.0"/>
<line x1="53.7" y1="122.3" x2="50.4" y2="115.0" stroke="rgb(0,0,0)"  stroke-width="4.0"/>
<line x1="76.5" y1="107.8" x2="73.7" y2="134.6" stroke="rgb(0,0,0)"  stroke-width="4.0"/>
<line x1="96.5" y1="46.2" x2="128.9" y2="69.7" stroke="rgb(0,0,0)"  stroke-width="4.0"/>
<line x1="128.9" y1="69.7" x2="116.5" y2="107.8" stroke="rgb(0,0,0)"  stroke-width="4.0"/>
<line x1="116.5" y1="107.8" x2="76.5" y2="107.8" stroke="rgb(0,0,0)"  stroke-width="4.0"/>
<line x1="76.5" y1="107.8" x2="64.2" y2="69.7" stroke="rgb(0,0,0)"  stroke-width="4.0"/>
<line x1="64.2" y1="69.7" x2="96.5" y2="46.2" stroke="rgb(0,0,0)"  stroke-width="4.0"/>
<text x="162.028402" y="86.042261" fill="rgb(191,191,191)"  stroke="rgb(191,191,191)" stroke-width="1" font-size="16" >H</text>
<text x="151.667722" y="48.000000" fill="rgb(102,102,102)"  stroke="rgb(102,102,102)" stroke-width="1" font-size="16" >CH</text>
<text x="175.667722" y="51.680000" fill="rgb(102,102,102)"  stroke="rgb(102,102,102)" stroke-width="1" font-size="13" >3</text>
<text x="34.000000" y="132.037519" fill="rgb(191,191,191)"  stroke="rgb(191,191,191)" stroke-width="1" font-size="16" >H</text>
<text x="54.360680" y="155.548929" fill="rgb(255,12,12)"  stroke="rgb(255,12,12)" stroke-width="1" font-size="16" >HO</text>
<text font-size="18.000000" fill ="black" font-family="sans-serif"
x="10.000000" y="20.000000" ></text>
<title> - OBDepict</title>
</svg>
