<?xml version="1.0"?>
<svg xmlns="http://www.w3.org/2000/svg"
xmlns:xlink="http://www.w3.org/1999/xlink" xmlns:cml="http://www.xml-cml.org/schema" width="183.923" height="300" x="0" y="0" font-family="sans-serif" stroke="rgb(0,0,0)" stroke-width="1"  stroke-linecap="round">
<rect x="0%" y="0%" width="100%" height="100%" stroke-width="0" fill="rgb(255,255,255)"  />
<line x1="51.3" y1="206.5" x2="63.4" y2="213.5" stroke="rgb(0,0,0)"  stroke-width="1.0"/>
<line x1="77.6" y1="233.0" x2="77.6" y2="247.0" stroke="rgb(0,0,0)"  stroke-width="1.0"/>
<line x1="71.6" y1="233.0" x2="71.6" y2="247.0" stroke="rgb(0,0,0)"  stroke-width="1.0"/>
<line x1="85.9" y1="213.5" x2="98.0" y2="206.5" stroke="rgb(0,0,0)"  stroke-width="1.0"/>
<line x1="109.3" y1="187.0" x2="109.3" y2="173.0" stroke="rgb(0,0,0)"  stroke-width="1.0"/>
<line x1="109.3" y1="67.0" x2="109.3" y2="53.0" stroke="rgb(0,0,0)"  stroke-width="1.0"/>
<line x1="97.9" y1="153.4" x2="86.1" y2="146.6" stroke="rgb(0,0,0)"  stroke-width="1.0"/>
<line x1="99.7" y1="146.2" x2="91.4" y2="141.4" stroke="rgb(0,0,0)"  stroke-width="1.0"/>
<line x1="74.6" y1="127.0" x2="74.6" y2="113.0" stroke="rgb(0,0,0)"  stroke-width="1.0"/>
<line x1="86.1" y1="93.4" x2="97.9" y2="86.6" stroke="rgb(0,0,0)"  stroke-width="1.0"/>
<line x1="91.4" y1="98.6" x2="99.7" y2="93.8" stroke="rgb(0,0,0)"  stroke-width="1.0"/>
<line x1="120.5" y1="86.5" x2="132.7" y2="93.5" stroke="rgb(0,0,0)"  stroke-width="1.0"/>
<line x1="143.9" y1="113.2" x2="143.9" y2="126.8" stroke="rgb(0,0,0)"  stroke-width="1.0"/>
<line x1="136.7" y1="115.2" x2="136.7" y2="124.8" stroke="rgb(0,0,0)"  stroke-width="1.0"/>
<line x1="132.7" y1="146.5" x2="120.5" y2="153.5" stroke="rgb(0,0,0)"  stroke-width="1.0"/>
<text x="14.000000" y="208.000000" fill="rgb(102,102,102)"  stroke="rgb(102,102,102)" stroke-width="1" font-size="16" >H</text>
<text x="26.000000" y="211.680000" fill="rgb(102,102,102)"  stroke="rgb(102,102,102)" stroke-width="1" font-size="13" >3</text>
<text x="32.500000" y="208.000000" fill="rgb(102,102,102)"  stroke="rgb(102,102,102)" stroke-width="1" font-size="16" >C</text>
<text x="68.641016" y="228.000000" fill="rgb(102,102,102)"  stroke="rgb(102,102,102)" stroke-width="1" font-size="16" >C</text>
<text x="68.641016" y="268.000000" fill="rgb(255,12,12)"  stroke="rgb(255,12,12)" stroke-width="1" font-size="16" >O</text>
<text x="103.282032" y="208.000000" fill="rgb(12,12,255)"  stroke="rgb(12,12,255)" stroke-width="1" font-size="16" >NH</text>
<text x="103.282032" y="168.000000" fill="rgb(102,102,102)"  stroke="rgb(102,102,102)" stroke-width="1" font-size="16" >C</text>
<text x="56.641016" y="148.000000" fill="rgb(102,102,102)"  stroke="rgb(102,102,102)" stroke-width="1" font-size="16" >HC</text>
<text x="56.641016" y="108.000000" fill="rgb(102,102,102)"  stroke="rgb(102,102,102)" stroke-width="1" font-size="16" >HC</text>
<text x="103.282032" y="88.000000" fill="rgb(102,102,102)"  stroke="rgb(102,102,102)" stroke-width="1" font-size="16" >C</text>
<text x="137.923048" y="108.000000" fill="rgb(102,102,102)"  stroke="rgb(102,102,102)" stroke-width="1" font-size="16" >CH</text>
<text x="137.923048" y="148.000000" fill="rgb(102,102,102)"  stroke="rgb(102,102,102)" stroke-width="1" font-size="16" >CH</text>
<text x="103.282032" y="48.000000" fill="rgb(255,12,12)"  stroke="rgb(255,12,12)" stroke-width="1" font-size="16" >OH</text>
<text font-size="18.000000" fill ="black" font-family="sans-serif"
x="10.000000" y="20.000000" ></text>
<title> - OBDepict</title>
</svg>
