<?xml version="1.0"?>
<svg xmlns="http://www.w3.org/2000/svg"
xmlns:xlink="http://www.w3.org/1999/xlink" xmlns:cml="http://www.xml-cml.org/schema" width="154.422" height="155.668" x="0" y="0" font-family="sans-serif" stroke="rgb(0,0,0)" stroke-width="1"  stroke-linecap="round">
<rect x="0%" y="0%" width="100%" height="100%" stroke-width="0" fill="rgb(255,255,255)"  />
<line x1="85.6" y1="103.8" x2="74.6" y2="79.1" stroke="rgb(0,0,0)"  stroke-width="1.0"/>
<line x1="81.8" y1="105.5" x2="70.8" y2="80.8" stroke="rgb(0,0,0)"  stroke-width="1.0"/>
<line x1="89.5" y1="102.1" x2="78.5" y2="77.4" stroke="rgb(0,0,0)"  stroke-width="1.0"/>
<line x1="74.6" y1="79.1" x2="101.5" y2="76.3" stroke="rgb(0,0,0)"  stroke-width="1.0"/>
<line x1="74.2" y1="74.9" x2="101.1" y2="72.1" stroke="rgb(0,0,0)"  stroke-width="1.0"/>
<line x1="75.1" y1="83.3" x2="101.9" y2="80.5" stroke="rgb(0,0,0)"  stroke-width="1.0"/>
<line x1="74.6" y1="79.1" x2="80.3" y2="52.7" stroke="rgb(0,0,0)"  stroke-width="1.0"/>
<line x1="70.5" y1="78.3" x2="76.1" y2="51.8" stroke="rgb(0,0,0)"  stroke-width="1.0"/>
<line x1="78.7" y1="80.0" x2="84.4" y2="53.6" stroke="rgb(0,0,0)"  stroke-width="1.0"/>
<line x1="74.6" y1="79.1" x2="51.3" y2="65.6" stroke="rgb(0,0,0)"  stroke-width="1.0"/>
<line x1="72.5" y1="82.8" x2="49.2" y2="69.3" stroke="rgb(0,0,0)"  stroke-width="1.0"/>
<line x1="76.7" y1="75.5" x2="53.4" y2="62.0" stroke="rgb(0,0,0)"  stroke-width="1.0"/>
<line x1="74.6" y1="79.1" x2="54.6" y2="97.2" stroke="rgb(0,0,0)"  stroke-width="1.0"/>
<line x1="77.5" y1="82.2" x2="57.4" y2="100.3" stroke="rgb(0,0,0)"  stroke-width="1.0"/>
<line x1="71.8" y1="76.0" x2="51.8" y2="94.1" stroke="rgb(0,0,0)"  stroke-width="1.0"/>
<text x="84.910482" y="123.667722" fill="rgb(102,102,102)"  stroke="rgb(102,102,102)" stroke-width="1" font-size="16" >CH</text>
<text x="108.421892" y="82.944765" fill="rgb(102,102,102)"  stroke="rgb(102,102,102)" stroke-width="1" font-size="16" >CH</text>
<text x="76.957484" y="48.000000" fill="rgb(102,102,102)"  stroke="rgb(102,102,102)" stroke-width="1" font-size="16" >CH</text>
<text x="22.000000" y="67.125904" fill="rgb(102,102,102)"  stroke="rgb(102,102,102)" stroke-width="1" font-size="16" >HC</text>
<text x="26.915223" y="113.891128" fill="rgb(102,102,102)"  stroke="rgb(102,102,102)" stroke-width="1" font-size="16" >HC</text>
<text font-size="18.000000" fill ="black" font-family="sans-serif"
x="10.000000" y="20.000000" ></text>
<title> - OBDepict</title>
</svg>
