<?xml version="1.0"?>
<svg xmlns="http://www.w3.org/2000/svg"
xmlns:xlink="http://www.w3.org/1999/xlink" xmlns:cml="http://www.xml-cml.org/schema" width="265.229" height="290.776" x="0" y="0" font-family="sans-serif" stroke="rgb(0,0,0)" stroke-width="1"  stroke-linecap="round">
<rect x="0%" y="0%" width="100%" height="100%" stroke-width="0" fill="rgb(255,255,255)"  />
<line x1="218.7" y1="94.3" x2="211.7" y2="106.4" stroke="rgb(0,0,0)"  stroke-width="1.0"/>
<line x1="114.2" y1="139.6" x2="113.4" y2="141.0" stroke="rgb(0,0,0)"  stroke-width="1.0"/>
<line x1="119.8" y1="142.1" x2="118.3" y2="144.6" stroke="rgb(0,0,0)"  stroke-width="1.0"/>
<line x1="125.3" y1="144.5" x2="123.2" y2="148.2" stroke="rgb(0,0,0)"  stroke-width="1.0"/>
<line x1="130.8" y1="147.0" x2="128.1" y2="151.7" stroke="rgb(0,0,0)"  stroke-width="1.0"/>
<line x1="136.4" y1="149.5" x2="133.0" y2="155.3" stroke="rgb(0,0,0)"  stroke-width="1.0"/>
<line x1="141.9" y1="151.9" x2="137.9" y2="158.9" stroke="rgb(0,0,0)"  stroke-width="1.0"/>
<line x1="69.6" y1="115.7" x2="70.4" y2="114.3" stroke="rgb(0,0,0)"  stroke-width="1.0"/>
<line x1="65.6" y1="114.1" x2="67.0" y2="111.6" stroke="rgb(0,0,0)"  stroke-width="1.0"/>
<line x1="61.5" y1="112.5" x2="63.6" y2="108.9" stroke="rgb(0,0,0)"  stroke-width="1.0"/>
<line x1="57.5" y1="110.9" x2="60.2" y2="106.2" stroke="rgb(0,0,0)"  stroke-width="1.0"/>
<line x1="53.5" y1="109.4" x2="56.8" y2="103.5" stroke="rgb(0,0,0)"  stroke-width="1.0"/>
<line x1="49.4" y1="107.8" x2="53.4" y2="100.8" stroke="rgb(0,0,0)"  stroke-width="1.0"/>
<line x1="69.6" y1="78.0" x2="70.4" y2="76.6" stroke="rgb(0,0,0)"  stroke-width="1.0"/>
<line x1="65.6" y1="76.4" x2="67.0" y2="73.9" stroke="rgb(0,0,0)"  stroke-width="1.0"/>
<line x1="61.5" y1="74.8" x2="63.6" y2="71.2" stroke="rgb(0,0,0)"  stroke-width="1.0"/>
<line x1="57.5" y1="73.2" x2="60.2" y2="68.5" stroke="rgb(0,0,0)"  stroke-width="1.0"/>
<line x1="53.5" y1="71.7" x2="56.8" y2="65.8" stroke="rgb(0,0,0)"  stroke-width="1.0"/>
<line x1="49.4" y1="70.1" x2="53.4" y2="63.1" stroke="rgb(0,0,0)"  stroke-width="1.0"/>
<line x1="144.2" y1="114.3" x2="145.0" y2="115.7" stroke="rgb(0,0,0)"  stroke-width="1.0"/>
<line x1="147.6" y1="111.6" x2="149.0" y2="114.1" stroke="rgb(0,0,0)"  stroke-width="1.0"/>
<line x1="151.0" y1="108.9" x2="153.0" y2="112.5" stroke="rgb(0,0,0)"  stroke-width="1.0"/>
<line x1="154.4" y1="106.2" x2="157.1" y2="110.9" stroke="rgb(0,0,0)"  stroke-width="1.0"/>
<line x1="157.8" y1="103.5" x2="161.1" y2="109.4" stroke="rgb(0,0,0)"  stroke-width="1.0"/>
<line x1="161.1" y1="100.8" x2="165.1" y2="107.8" stroke="rgb(0,0,0)"  stroke-width="1.0"/>
<polygon points="172.582412 136.548077 162.646834 161.757684 155.718580 157.757772 " stroke-width="1.000000" fill="rgb(0,0,0)"  stroke="rgb(0,0,0)" />
<line x1="74.6" y1="80.0" x2="74.6" y2="53.0" stroke="rgb(0,0,0)"  stroke-width="1.0"/>
<line x1="74.6" y1="230.8" x2="51.3" y2="244.3" stroke="rgb(0,0,0)"  stroke-width="1.0"/>
<line x1="51.3" y1="165.3" x2="74.6" y2="193.1" stroke="rgb(0,0,0)"  stroke-width="1.0"/>
<line x1="74.6" y1="193.1" x2="107.3" y2="174.2" stroke="rgb(0,0,0)"  stroke-width="1.0"/>
<line x1="107.3" y1="174.2" x2="107.3" y2="136.5" stroke="rgb(0,0,0)"  stroke-width="1.0"/>
<line x1="107.3" y1="136.5" x2="74.6" y2="117.7" stroke="rgb(0,0,0)"  stroke-width="1.0"/>
<line x1="74.6" y1="117.7" x2="51.3" y2="145.4" stroke="rgb(0,0,0)"  stroke-width="1.0"/>
<line x1="205.2" y1="130.7" x2="205.2" y2="155.4" stroke="rgb(0,0,0)"  stroke-width="1.0"/>
<line x1="205.2" y1="155.4" x2="139.9" y2="155.4" stroke="rgb(0,0,0)"  stroke-width="1.0"/>
<line x1="139.9" y1="155.4" x2="107.3" y2="136.5" stroke="rgb(0,0,0)"  stroke-width="1.0"/>
<line x1="107.3" y1="136.5" x2="139.9" y2="117.7" stroke="rgb(0,0,0)"  stroke-width="1.0"/>
<line x1="139.9" y1="117.7" x2="172.6" y2="136.5" stroke="rgb(0,0,0)"  stroke-width="1.0"/>
<line x1="172.6" y1="136.5" x2="194.0" y2="124.2" stroke="rgb(0,0,0)"  stroke-width="1.0"/>
<line x1="74.6" y1="230.8" x2="107.3" y2="249.6" stroke="rgb(0,0,0)"  stroke-width="1.0"/>
<line x1="107.3" y1="249.6" x2="139.9" y2="230.8" stroke="rgb(0,0,0)"  stroke-width="1.0"/>
<line x1="108.9" y1="240.4" x2="131.1" y2="227.5" stroke="rgb(0,0,0)"  stroke-width="1.0"/>
<line x1="139.9" y1="230.8" x2="139.9" y2="193.1" stroke="rgb(0,0,0)"  stroke-width="1.0"/>
<line x1="139.9" y1="193.1" x2="107.3" y2="174.2" stroke="rgb(0,0,0)"  stroke-width="1.0"/>
<line x1="131.1" y1="196.3" x2="108.9" y2="183.5" stroke="rgb(0,0,0)"  stroke-width="1.0"/>
<line x1="74.6" y1="193.1" x2="74.6" y2="230.8" stroke="rgb(0,0,0)"  stroke-width="1.0"/>
<line x1="81.8" y1="199.1" x2="81.8" y2="224.8" stroke="rgb(0,0,0)"  stroke-width="1.0"/>
<line x1="74.6" y1="117.7" x2="74.6" y2="80.0" stroke="rgb(0,0,0)"  stroke-width="1.0"/>
<line x1="74.6" y1="80.0" x2="107.3" y2="61.2" stroke="rgb(0,0,0)"  stroke-width="1.0"/>
<line x1="107.3" y1="61.2" x2="139.9" y2="80.0" stroke="rgb(0,0,0)"  stroke-width="1.0"/>
<line x1="108.9" y1="70.4" x2="131.1" y2="83.2" stroke="rgb(0,0,0)"  stroke-width="1.0"/>
<line x1="139.9" y1="80.0" x2="139.9" y2="117.7" stroke="rgb(0,0,0)"  stroke-width="1.0"/>
<line x1="139.9" y1="193.1" x2="172.6" y2="174.2" stroke="rgb(0,0,0)"  stroke-width="1.0"/>
<line x1="172.6" y1="174.2" x2="172.6" y2="136.5" stroke="rgb(0,0,0)"  stroke-width="1.0"/>
<text x="221.229281" y="91.057575" fill="rgb(102,102,102)"  stroke="rgb(102,102,102)" stroke-width="1" font-size="16" >CH</text>
<text x="245.229281" y="94.737575" fill="rgb(102,102,102)"  stroke="rgb(102,102,102)" stroke-width="1" font-size="13" >3</text>
<text x="199.229501" y="125.698718" fill="rgb(12,12,255)"  stroke="rgb(12,12,255)" stroke-width="1" font-size="16" >N</text>
<text x="36.955371" y="163.397435" fill="rgb(255,12,12)"  stroke="rgb(255,12,12)" stroke-width="1" font-size="16" >O</text>
<text x="34.000381" y="105.698278" fill="rgb(191,191,191)"  stroke="rgb(191,191,191)" stroke-width="1" font-size="16" >H</text>
<text x="34.000381" y="67.999560" fill="rgb(191,191,191)"  stroke="rgb(191,191,191)" stroke-width="1" font-size="16" >H</text>
<text x="168.576084" y="105.698278" fill="rgb(191,191,191)"  stroke="rgb(191,191,191)" stroke-width="1" font-size="16" >H</text>
<text x="146.582852" y="179.189347" fill="rgb(191,191,191)"  stroke="rgb(191,191,191)" stroke-width="1" font-size="16" >H</text>
<text x="68.641143" y="48.000000" fill="rgb(255,12,12)"  stroke="rgb(255,12,12)" stroke-width="1" font-size="16" >OH</text>
<text x="22.000000" y="258.775802" fill="rgb(255,12,12)"  stroke="rgb(255,12,12)" stroke-width="1" font-size="16" >HO</text>
<text font-size="18.000000" fill ="black" font-family="sans-serif"
x="10.000000" y="20.000000" ></text>
<title> - OBDepict</title>
</svg>
