<?xml version="1.0"?>
<svg xmlns="http://www.w3.org/2000/svg"
xmlns:xlink="http://www.w3.org/1999/xlink" xmlns:cml="http://www.xml-cml.org/schema" width="406.222" height="376.431" x="0" y="0" font-family="sans-serif" stroke="rgb(0,0,0)" stroke-width="1"  stroke-linecap="round">
<rect x="0%" y="0%" width="100%" height="100%" stroke-width="0" fill="rgb(255,255,255)"  />
<line x1="237.5" y1="282.0" x2="203.7" y2="262.7" stroke="rgb(0,0,0)"  stroke-width="1.0"/>
<line x1="135.5" y1="183.9" x2="101.7" y2="164.5" stroke="rgb(0,0,0)"  stroke-width="1.0"/>
<line x1="348.8" y1="268.4" x2="366.2" y2="287.6" stroke="rgb(0,0,0)"  stroke-width="1.0"/>
<line x1="366.2" y1="287.6" x2="340.8" y2="282.3" stroke="rgb(0,0,0)"  stroke-width="1.0"/>
<line x1="321.6" y1="290.9" x2="308.8" y2="313.4" stroke="rgb(0,0,0)"  stroke-width="1.0"/>
<line x1="308.8" y1="313.4" x2="304.5" y2="274.7" stroke="rgb(0,0,0)"  stroke-width="1.0"/>
<line x1="315.3" y1="306.7" x2="312.4" y2="279.9" stroke="rgb(0,0,0)"  stroke-width="1.0"/>
<line x1="304.5" y1="274.7" x2="328.2" y2="264.1" stroke="rgb(0,0,0)"  stroke-width="1.0"/>
<line x1="203.7" y1="223.3" x2="203.7" y2="183.9" stroke="rgb(0,0,0)"  stroke-width="1.0"/>
<line x1="203.7" y1="183.9" x2="180.4" y2="170.6" stroke="rgb(0,0,0)"  stroke-width="1.0"/>
<line x1="157.9" y1="170.7" x2="135.5" y2="183.9" stroke="rgb(0,0,0)"  stroke-width="1.0"/>
<line x1="135.5" y1="183.9" x2="135.5" y2="223.3" stroke="rgb(0,0,0)"  stroke-width="1.0"/>
<line x1="135.5" y1="223.3" x2="203.7" y2="223.3" stroke="rgb(0,0,0)"  stroke-width="1.0"/>
<line x1="181.3" y1="275.8" x2="203.7" y2="262.7" stroke="rgb(0,0,0)"  stroke-width="1.0"/>
<line x1="203.7" y1="262.7" x2="203.7" y2="223.3" stroke="rgb(0,0,0)"  stroke-width="1.0"/>
<line x1="135.5" y1="223.3" x2="135.5" y2="262.7" stroke="rgb(0,0,0)"  stroke-width="1.0"/>
<line x1="135.5" y1="262.7" x2="158.8" y2="275.9" stroke="rgb(0,0,0)"  stroke-width="1.0"/>
<line x1="68.6" y1="40.0" x2="91.1" y2="52.9" stroke="rgb(0,0,0)"  stroke-width="1.0"/>
<line x1="99.7" y1="72.1" x2="94.4" y2="97.5" stroke="rgb(0,0,0)"  stroke-width="1.0"/>
<line x1="94.4" y1="97.5" x2="55.7" y2="101.7" stroke="rgb(0,0,0)"  stroke-width="1.0"/>
<line x1="55.7" y1="101.7" x2="74.9" y2="84.2" stroke="rgb(0,0,0)"  stroke-width="1.0"/>
<line x1="79.2" y1="63.7" x2="68.6" y2="40.0" stroke="rgb(0,0,0)"  stroke-width="1.0"/>
<line x1="241.7" y1="320.7" x2="277.3" y2="336.4" stroke="rgb(0,0,0)"  stroke-width="1.0"/>
<line x1="250.1" y1="316.6" x2="274.7" y2="327.4" stroke="rgb(0,0,0)"  stroke-width="1.0"/>
<line x1="277.3" y1="336.4" x2="308.8" y2="313.4" stroke="rgb(0,0,0)"  stroke-width="1.0"/>
<line x1="304.5" y1="274.7" x2="268.9" y2="259.0" stroke="rgb(0,0,0)"  stroke-width="1.0"/>
<line x1="268.9" y1="259.0" x2="237.5" y2="282.0" stroke="rgb(0,0,0)"  stroke-width="1.0"/>
<line x1="268.3" y1="268.4" x2="246.6" y2="284.3" stroke="rgb(0,0,0)"  stroke-width="1.0"/>
<line x1="237.5" y1="282.0" x2="241.7" y2="320.7" stroke="rgb(0,0,0)"  stroke-width="1.0"/>
<line x1="101.7" y1="164.5" x2="63.0" y2="168.7" stroke="rgb(0,0,0)"  stroke-width="1.0"/>
<line x1="95.0" y1="158.0" x2="68.2" y2="160.9" stroke="rgb(0,0,0)"  stroke-width="1.0"/>
<line x1="63.0" y1="168.7" x2="40.0" y2="137.3" stroke="rgb(0,0,0)"  stroke-width="1.0"/>
<line x1="40.0" y1="137.3" x2="55.7" y2="101.7" stroke="rgb(0,0,0)"  stroke-width="1.0"/>
<line x1="49.0" y1="134.7" x2="59.9" y2="110.1" stroke="rgb(0,0,0)"  stroke-width="1.0"/>
<line x1="94.4" y1="97.5" x2="117.4" y2="128.9" stroke="rgb(0,0,0)"  stroke-width="1.0"/>
<line x1="92.2" y1="106.6" x2="108.1" y2="128.3" stroke="rgb(0,0,0)"  stroke-width="1.0"/>
<line x1="117.4" y1="128.9" x2="101.7" y2="164.5" stroke="rgb(0,0,0)"  stroke-width="1.0"/>
<text x="163.084057" y="172.161131" fill="rgb(255,12,12)"  stroke="rgb(255,12,12)" stroke-width="1" font-size="16" >O</text>
<text x="164.124332" y="290.362382" fill="rgb(255,12,12)"  stroke="rgb(255,12,12)" stroke-width="1" font-size="16" >O</text>
<text x="96.385628" y="67.350760" fill="rgb(255,12,12)"  stroke="rgb(255,12,12)" stroke-width="1" font-size="16" >O</text>
<text x="78.558157" y="83.516554" fill="rgb(255,12,12)"  stroke="rgb(255,12,12)" stroke-width="1" font-size="16" >O</text>
<text x="334.065053" y="266.758520" fill="rgb(255,12,12)"  stroke="rgb(255,12,12)" stroke-width="1" font-size="16" >O</text>
<text x="322.105626" y="287.642095" fill="rgb(255,12,12)"  stroke="rgb(255,12,12)" stroke-width="1" font-size="16" >O</text>
<text font-size="18.000000" fill ="black" font-family="sans-serif"
x="10.000000" y="20.000000" ></text>
<title> - OBDepict</title>
</svg>
